<?xml version="1.0" encoding="UTF-8"?>
<svg viewBox="0 0 480 320" preserveAspectRatio="xMidYMid meet" xmlns="http://www.w3.org/2000/svg">
  
        
        <text x="32" y="48" class="lbl-title">Activation energy to reach a working local integration</text>

        
        <line class="axis" x1="56" y1="74" x2="56" y2="262"></line>
        <line class="axis" x1="56" y1="262" x2="448" y2="262"></line>
        <text x="32" y="170" class="lbl-axis" transform="rotate(-90 32 170)">effort &amp;nbsp;·&amp;nbsp; hours</text>
        <text x="252" y="282" class="lbl-axis" text-anchor="middle">project phase</text>

        
        <g>
          <line class="grid" x1="56" y1="100" x2="448" y2="100"></line>
          <line class="grid" x1="56" y1="140" x2="448" y2="140"></line>
          <line class="grid" x1="56" y1="180" x2="448" y2="180"></line>
          <line class="grid" x1="56" y1="220" x2="448" y2="220"></line>
          <text x="50" y="103" class="lbl-tick" text-anchor="end">100</text>
          <text x="50" y="143" class="lbl-tick" text-anchor="end">75</text>
          <text x="50" y="183" class="lbl-tick" text-anchor="end">50</text>
          <text x="50" y="223" class="lbl-tick" text-anchor="end">25</text>
          <text x="50" y="263" class="lbl-tick" text-anchor="end">0</text>
        </g>

        
        <g>
          <text x="100" y="278" class="lbl-tick" text-anchor="middle">recon</text>
          <text x="180" y="278" class="lbl-tick" text-anchor="middle">protocol</text>
          <text x="260" y="278" class="lbl-tick" text-anchor="middle">decode</text>
          <text x="340" y="278" class="lbl-tick" text-anchor="middle">integrate</text>
          <text x="418" y="278" class="lbl-tick" text-anchor="middle">ship</text>
        </g>

        
        <path d="M 80 250 C 130 200, 160 150, 200 110 S 280 85, 340 85 S 420 84, 440 84" class="hairline" stroke="#666" stroke-width="1.4" fill="none"></path>
        
        <path d="M 80 250 C 130 200, 160 150, 200 110 S 280 85, 340 85 S 420 84, 440 84 L 440 262 L 80 262 Z" fill="#ebebeb" opacity="0.55"></path>

        
        <path d="M 80 252 C 130 240, 170 226, 220 220 S 320 215, 380 214 S 430 213, 440 213" class="accent-stroke" stroke-width="1.6"></path>
        <path d="M 80 252 C 130 240, 170 226, 220 220 S 320 215, 380 214 S 430 213, 440 213 L 440 262 L 80 262 Z" fill="#00658b" opacity="0.12"></path>

        
        <g opacity="0.0"></g>

        
        <circle cx="440" cy="84" r="2.4" fill="#666"></circle>
        <circle cx="440" cy="213" r="2.4" fill="#00658b"></circle>

        
        <line x1="440" y1="86" x2="440" y2="211" stroke="#000" stroke-width="0.6"></line>
        <polygon points="440,86 437,93 443,93" fill="#000"></polygon>
        <polygon points="440,211 437,204 443,204" fill="#000"></polygon>
        <text x="436" y="152" class="lbl-bold" text-anchor="end">gap</text>

        
        <g>
          <line x1="220" y1="103" x2="244" y2="103" class="hairline" stroke="#666" stroke-width="1.4"></line>
          <text x="248" y="106" class="lbl">traditional reverse engineering</text>
        </g>
        <g>
          <line x1="220" y1="234" x2="244" y2="234" class="accent-stroke" stroke-width="1.6"></line>
          <text x="248" y="237" class="lbl">AI-assisted</text>
        </g>

        
        <text x="100" y="245" class="lbl-sm">low overlap</text>
        <text x="100" y="256" class="lbl-sm">at start</text>
      </svg>