<?xml version="1.0" encoding="UTF-8"?>
<svg viewBox="0 0 480 320" preserveAspectRatio="xMidYMid meet" xmlns="http://www.w3.org/2000/svg">
  
        <text x="32" y="40" class="lbl-title">APK → protocol → Home Assistant</text>

        
        <g>
          <line class="grid" x1="32" y1="86" x2="448" y2="86"></line>
          <line class="grid" x1="32" y1="170" x2="448" y2="170"></line>
          <line class="grid" x1="32" y1="254" x2="448" y2="254"></line>
          <text x="36" y="80" class="lbl-sm">Vendor surface</text>
          <text x="36" y="164" class="lbl-sm">AI-assisted analysis</text>
          <text x="36" y="248" class="lbl-sm">Local outcome</text>
        </g>

        
        <g>
          
          <rect x="60" y="100" width="92" height="46" fill="#fff" stroke="#000" stroke-width="0.8"></rect>
          <text x="106" y="120" class="lbl-bold" text-anchor="middle">App APK</text>
          <text x="106" y="135" class="lbl-sm" text-anchor="middle">Spider Farmer</text>

          
          <rect x="194" y="100" width="92" height="46" fill="#fff" stroke="#000" stroke-width="0.8"></rect>
          <text x="240" y="120" class="lbl-bold" text-anchor="middle">BLE / Wi-Fi</text>
          <text x="240" y="135" class="lbl-sm" text-anchor="middle">captures, pairing</text>

          
          <rect x="328" y="100" width="92" height="46" fill="#fff" stroke="#000" stroke-width="0.8"></rect>
          <text x="374" y="120" class="lbl-bold" text-anchor="middle">Cloud API</text>
          <text x="374" y="135" class="lbl-sm" text-anchor="middle">undoc. endpoints</text>

          
          <line x1="106" y1="146" x2="106" y2="186" class="rule"></line>
          <line x1="240" y1="146" x2="240" y2="186" class="rule"></line>
          <line x1="374" y1="146" x2="374" y2="186" class="rule"></line>
          <polygon points="106,186 103,180 109,180" fill="#000"></polygon>
          <polygon points="240,186 237,180 243,180" fill="#000"></polygon>
          <polygon points="374,186 371,180 377,180" fill="#000"></polygon>
        </g>

        
        <rect x="60" y="186" width="360" height="40" fill="#d1e8fa" stroke="#00658b" stroke-width="1.2"></rect>
        <text x="240" y="204" class="lbl-bold" text-anchor="middle" fill="#00658b">LLM-assisted: decompile · diff · diagram · draft client</text>
        <text x="240" y="218" class="lbl-sm" text-anchor="middle">prompt logs &amp; transcripts retained as research artifacts</text>

        
        <line x1="240" y1="226" x2="240" y2="266" class="accent-stroke"></line>
        <polygon points="240,266 236,259 244,259" fill="#00658b"></polygon>

        
        <rect x="146" y="266" width="188" height="36" fill="#fff" stroke="#000" stroke-width="1"></rect>
        <text x="240" y="282" class="lbl-bold" text-anchor="middle">Home Assistant integration</text>
        <text x="240" y="294" class="lbl-sm" text-anchor="middle">local control · no vendor cloud dependency</text>
      </svg>