<?xml version="1.0" encoding="utf-8" standalone="no"?>
<!DOCTYPE svg PUBLIC "-//W3C//DTD SVG 1.1//EN"
  "http://www.w3.org/Graphics/SVG/1.1/DTD/svg11.dtd">
<svg xmlns:xlink="http://www.w3.org/1999/xlink" width="727.783279pt" height="384.915pt" viewBox="0 0 727.783279 384.915" xmlns="http://www.w3.org/2000/svg" version="1.1">
 <metadata>
  <rdf:RDF xmlns:dc="http://purl.org/dc/elements/1.1/" xmlns:cc="http://creativecommons.org/ns#" xmlns:rdf="http://www.w3.org/1999/02/22-rdf-syntax-ns#">
   <cc:Work>
    <dc:type rdf:resource="http://purl.org/dc/dcmitype/StillImage"/>
    <dc:date>2026-05-02T10:28:00.388340</dc:date>
    <dc:format>image/svg+xml</dc:format>
    <dc:creator>
     <cc:Agent>
      <dc:title>Matplotlib v3.10.9, https://matplotlib.org/</dc:title>
     </cc:Agent>
    </dc:creator>
   </cc:Work>
  </rdf:RDF>
 </metadata>
 <defs>
  <style type="text/css">*{stroke-linejoin: round; stroke-linecap: butt}</style>
 </defs>
 <g id="figure_1">
  <g id="patch_1">
   <path d="M 0 384.915 
L 727.783279 384.915 
L 727.783279 -0 
L 0 -0 
z
" style="fill: #ffffff"/>
  </g>
  <g id="axes_1">
   <g id="patch_2">
    <path d="M 41.14375 334.8 
L 474.074784 334.8 
L 474.074784 57.6 
L 41.14375 57.6 
z
" style="fill: #ffffff"/>
   </g>
   <g id="matplotlib.axis_1">
    <g id="xtick_1">
     <g id="line2d_1">
      <defs>
       <path id="md2114f1360" d="M 0 0 
L 0 6 
" style="stroke: #000000; stroke-width: 1.25"/>
      </defs>
      <g>
       <use xlink:href="#md2114f1360" x="98.910208" y="334.8" style="stroke: #000000; stroke-width: 1.25"/>
      </g>
     </g>
     <g id="text_1">
      <!-- Discovery -->
      <g transform="translate(76.962551 351.546875) scale(0.1 -0.1)">
       <defs>
        <path id="LiberationSans-44" d="M 4316 2247 
Q 4316 1566 4050 1055 
Q 3784 544 3296 272 
Q 2809 0 2172 0 
L 525 0 
L 525 4403 
L 1981 4403 
Q 3100 4403 3708 3842 
Q 4316 3281 4316 2247 
z
M 3716 2247 
Q 3716 3066 3267 3495 
Q 2819 3925 1969 3925 
L 1122 3925 
L 1122 478 
L 2103 478 
Q 2588 478 2955 690 
Q 3322 903 3519 1303 
Q 3716 1703 3716 2247 
z
" transform="scale(0.015625)"/>
        <path id="LiberationSans-69" d="M 428 4100 
L 428 4638 
L 991 4638 
L 991 4100 
L 428 4100 
z
M 428 0 
L 428 3381 
L 991 3381 
L 991 0 
L 428 0 
z
" transform="scale(0.015625)"/>
        <path id="LiberationSans-73" d="M 2969 934 
Q 2969 456 2608 196 
Q 2247 -63 1597 -63 
Q 966 -63 623 145 
Q 281 353 178 794 
L 675 891 
Q 747 619 972 492 
Q 1197 366 1597 366 
Q 2025 366 2223 497 
Q 2422 628 2422 891 
Q 2422 1091 2284 1216 
Q 2147 1341 1841 1422 
L 1438 1528 
Q 953 1653 748 1773 
Q 544 1894 428 2066 
Q 313 2238 313 2488 
Q 313 2950 642 3192 
Q 972 3434 1603 3434 
Q 2163 3434 2492 3237 
Q 2822 3041 2909 2606 
L 2403 2544 
Q 2356 2769 2151 2889 
Q 1947 3009 1603 3009 
Q 1222 3009 1040 2893 
Q 859 2778 859 2544 
Q 859 2400 934 2306 
Q 1009 2213 1156 2147 
Q 1303 2081 1775 1966 
Q 2222 1853 2419 1758 
Q 2616 1663 2730 1547 
Q 2844 1431 2906 1279 
Q 2969 1128 2969 934 
z
" transform="scale(0.015625)"/>
        <path id="LiberationSans-63" d="M 859 1706 
Q 859 1031 1071 706 
Q 1284 381 1713 381 
Q 2013 381 2214 543 
Q 2416 706 2463 1044 
L 3031 1006 
Q 2966 519 2616 228 
Q 2266 -63 1728 -63 
Q 1019 -63 645 385 
Q 272 834 272 1694 
Q 272 2547 647 2995 
Q 1022 3444 1722 3444 
Q 2241 3444 2583 3175 
Q 2925 2906 3013 2434 
L 2434 2391 
Q 2391 2672 2212 2837 
Q 2034 3003 1706 3003 
Q 1259 3003 1059 2706 
Q 859 2409 859 1706 
z
" transform="scale(0.015625)"/>
        <path id="LiberationSans-6f" d="M 3291 1694 
Q 3291 806 2900 371 
Q 2509 -63 1766 -63 
Q 1025 -63 647 389 
Q 269 841 269 1694 
Q 269 3444 1784 3444 
Q 2559 3444 2925 3017 
Q 3291 2591 3291 1694 
z
M 2700 1694 
Q 2700 2394 2492 2711 
Q 2284 3028 1794 3028 
Q 1300 3028 1079 2704 
Q 859 2381 859 1694 
Q 859 1025 1076 689 
Q 1294 353 1759 353 
Q 2266 353 2483 678 
Q 2700 1003 2700 1694 
z
" transform="scale(0.015625)"/>
        <path id="LiberationSans-76" d="M 1916 0 
L 1250 0 
L 22 3381 
L 622 3381 
L 1366 1181 
Q 1406 1056 1581 441 
L 1691 806 
L 1813 1175 
L 2581 3381 
L 3178 3381 
L 1916 0 
z
" transform="scale(0.015625)"/>
        <path id="LiberationSans-65" d="M 863 1572 
Q 863 991 1103 675 
Q 1344 359 1806 359 
Q 2172 359 2392 506 
Q 2613 653 2691 878 
L 3184 738 
Q 2881 -63 1806 -63 
Q 1056 -63 664 384 
Q 272 831 272 1713 
Q 272 2550 664 2997 
Q 1056 3444 1784 3444 
Q 3275 3444 3275 1647 
L 3275 1572 
L 863 1572 
z
M 2694 2003 
Q 2647 2538 2422 2783 
Q 2197 3028 1775 3028 
Q 1366 3028 1127 2754 
Q 888 2481 869 2003 
L 2694 2003 
z
" transform="scale(0.015625)"/>
        <path id="LiberationSans-72" d="M 444 0 
L 444 2594 
Q 444 2950 425 3381 
L 956 3381 
Q 981 2806 981 2691 
L 994 2691 
Q 1128 3125 1303 3284 
Q 1478 3444 1797 3444 
Q 1909 3444 2025 3413 
L 2025 2897 
Q 1913 2928 1725 2928 
Q 1375 2928 1190 2626 
Q 1006 2325 1006 1763 
L 1006 0 
L 444 0 
z
" transform="scale(0.015625)"/>
        <path id="LiberationSans-79" d="M 597 -1328 
Q 366 -1328 209 -1294 
L 209 -872 
Q 328 -891 472 -891 
Q 997 -891 1303 -119 
L 1356 16 
L 16 3381 
L 616 3381 
L 1328 1513 
Q 1344 1469 1366 1408 
Q 1388 1347 1506 1000 
Q 1625 653 1634 613 
L 1853 1228 
L 2594 3381 
L 3188 3381 
L 1888 0 
Q 1678 -541 1497 -805 
Q 1316 -1069 1095 -1198 
Q 875 -1328 597 -1328 
z
" transform="scale(0.015625)"/>
       </defs>
       <use xlink:href="#LiberationSans-44"/>
       <use xlink:href="#LiberationSans-69" transform="translate(72.216797 0)"/>
       <use xlink:href="#LiberationSans-73" transform="translate(94.433594 0)"/>
       <use xlink:href="#LiberationSans-63" transform="translate(144.433594 0)"/>
       <use xlink:href="#LiberationSans-6f" transform="translate(194.433594 0)"/>
       <use xlink:href="#LiberationSans-76" transform="translate(250.048828 0)"/>
       <use xlink:href="#LiberationSans-65" transform="translate(300.048828 0)"/>
       <use xlink:href="#LiberationSans-72" transform="translate(355.664062 0)"/>
       <use xlink:href="#LiberationSans-79" transform="translate(388.964844 0)"/>
      </g>
     </g>
    </g>
    <g id="xtick_2">
     <g id="line2d_2">
      <g>
       <use xlink:href="#md2114f1360" x="204.709581" y="334.8" style="stroke: #000000; stroke-width: 1.25"/>
      </g>
     </g>
     <g id="text_2">
      <!-- Build -->
      <g transform="translate(193.591612 351.546875) scale(0.1 -0.1)">
       <defs>
        <path id="LiberationSans-42" d="M 3931 1241 
Q 3931 653 3503 326 
Q 3075 0 2313 0 
L 525 0 
L 525 4403 
L 2125 4403 
Q 3675 4403 3675 3334 
Q 3675 2944 3456 2678 
Q 3238 2413 2838 2322 
Q 3363 2259 3647 1970 
Q 3931 1681 3931 1241 
z
M 3075 3263 
Q 3075 3619 2831 3772 
Q 2588 3925 2125 3925 
L 1122 3925 
L 1122 2531 
L 2125 2531 
Q 2603 2531 2839 2711 
Q 3075 2891 3075 3263 
z
M 3328 1288 
Q 3328 2066 2234 2066 
L 1122 2066 
L 1122 478 
L 2281 478 
Q 2828 478 3078 681 
Q 3328 884 3328 1288 
z
" transform="scale(0.015625)"/>
        <path id="LiberationSans-75" d="M 981 3381 
L 981 1238 
Q 981 903 1047 718 
Q 1113 534 1256 453 
Q 1400 372 1678 372 
Q 2084 372 2318 650 
Q 2553 928 2553 1422 
L 2553 3381 
L 3116 3381 
L 3116 722 
Q 3116 131 3134 0 
L 2603 0 
Q 2600 16 2597 84 
Q 2594 153 2589 242 
Q 2584 331 2578 578 
L 2569 578 
Q 2375 228 2120 82 
Q 1866 -63 1488 -63 
Q 931 -63 673 214 
Q 416 491 416 1128 
L 416 3381 
L 981 3381 
z
" transform="scale(0.015625)"/>
        <path id="LiberationSans-6c" d="M 431 0 
L 431 4638 
L 994 4638 
L 994 0 
L 431 0 
z
" transform="scale(0.015625)"/>
        <path id="LiberationSans-64" d="M 2566 544 
Q 2409 219 2151 78 
Q 1894 -63 1513 -63 
Q 872 -63 570 368 
Q 269 800 269 1675 
Q 269 3444 1513 3444 
Q 1897 3444 2153 3303 
Q 2409 3163 2566 2856 
L 2572 2856 
L 2566 3234 
L 2566 4638 
L 3128 4638 
L 3128 697 
Q 3128 169 3147 0 
L 2609 0 
Q 2600 50 2589 231 
Q 2578 413 2578 544 
L 2566 544 
z
M 859 1694 
Q 859 984 1046 678 
Q 1234 372 1656 372 
Q 2134 372 2350 703 
Q 2566 1034 2566 1731 
Q 2566 2403 2350 2715 
Q 2134 3028 1663 3028 
Q 1238 3028 1048 2714 
Q 859 2400 859 1694 
z
" transform="scale(0.015625)"/>
       </defs>
       <use xlink:href="#LiberationSans-42"/>
       <use xlink:href="#LiberationSans-75" transform="translate(66.699219 0)"/>
       <use xlink:href="#LiberationSans-69" transform="translate(122.314453 0)"/>
       <use xlink:href="#LiberationSans-6c" transform="translate(144.53125 0)"/>
       <use xlink:href="#LiberationSans-64" transform="translate(166.748047 0)"/>
      </g>
     </g>
    </g>
    <g id="xtick_3">
     <g id="line2d_3">
      <g>
       <use xlink:href="#md2114f1360" x="310.508954" y="334.8" style="stroke: #000000; stroke-width: 1.25"/>
      </g>
     </g>
     <g id="text_3">
      <!-- Debug -->
      <g transform="translate(295.776141 351.546875) scale(0.1 -0.1)">
       <defs>
        <path id="LiberationSans-62" d="M 3291 1706 
Q 3291 -63 2047 -63 
Q 1663 -63 1408 76 
Q 1153 216 994 525 
L 988 525 
Q 988 428 975 229 
Q 963 31 956 0 
L 413 0 
Q 431 169 431 697 
L 431 4638 
L 994 4638 
L 994 3316 
Q 994 3113 981 2838 
L 994 2838 
Q 1150 3163 1408 3303 
Q 1666 3444 2047 3444 
Q 2688 3444 2989 3012 
Q 3291 2581 3291 1706 
z
M 2700 1688 
Q 2700 2397 2512 2703 
Q 2325 3009 1903 3009 
Q 1428 3009 1211 2684 
Q 994 2359 994 1653 
Q 994 988 1206 670 
Q 1419 353 1897 353 
Q 2322 353 2511 667 
Q 2700 981 2700 1688 
z
" transform="scale(0.015625)"/>
        <path id="LiberationSans-67" d="M 1713 -1328 
Q 1159 -1328 831 -1111 
Q 503 -894 409 -494 
L 975 -413 
Q 1031 -647 1223 -773 
Q 1416 -900 1728 -900 
Q 2569 -900 2569 84 
L 2569 628 
L 2563 628 
Q 2403 303 2125 139 
Q 1847 -25 1475 -25 
Q 853 -25 561 387 
Q 269 800 269 1684 
Q 269 2581 583 3007 
Q 897 3434 1538 3434 
Q 1897 3434 2161 3270 
Q 2425 3106 2569 2803 
L 2575 2803 
Q 2575 2897 2587 3128 
Q 2600 3359 2613 3381 
L 3147 3381 
Q 3128 3213 3128 2681 
L 3128 97 
Q 3128 -1328 1713 -1328 
z
M 2569 1691 
Q 2569 2103 2456 2401 
Q 2344 2700 2139 2858 
Q 1934 3016 1675 3016 
Q 1244 3016 1047 2703 
Q 850 2391 850 1691 
Q 850 997 1034 694 
Q 1219 391 1666 391 
Q 1931 391 2137 547 
Q 2344 703 2456 995 
Q 2569 1288 2569 1691 
z
" transform="scale(0.015625)"/>
       </defs>
       <use xlink:href="#LiberationSans-44"/>
       <use xlink:href="#LiberationSans-65" transform="translate(72.216797 0)"/>
       <use xlink:href="#LiberationSans-62" transform="translate(127.832031 0)"/>
       <use xlink:href="#LiberationSans-75" transform="translate(183.447266 0)"/>
       <use xlink:href="#LiberationSans-67" transform="translate(239.0625 0)"/>
      </g>
     </g>
    </g>
    <g id="xtick_4">
     <g id="line2d_4">
      <g>
       <use xlink:href="#md2114f1360" x="416.308327" y="334.8" style="stroke: #000000; stroke-width: 1.25"/>
      </g>
     </g>
     <g id="text_4">
      <!-- Validation -->
      <g transform="translate(394.717702 351.546875) scale(0.1 -0.1)">
       <defs>
        <path id="LiberationSans-56" d="M 2444 0 
L 1825 0 
L 28 4403 
L 656 4403 
L 1875 1303 
L 2138 525 
L 2400 1303 
L 3613 4403 
L 4241 4403 
L 2444 0 
z
" transform="scale(0.015625)"/>
        <path id="LiberationSans-61" d="M 1294 -63 
Q 784 -63 528 206 
Q 272 475 272 944 
Q 272 1469 617 1750 
Q 963 2031 1731 2050 
L 2491 2063 
L 2491 2247 
Q 2491 2659 2316 2837 
Q 2141 3016 1766 3016 
Q 1388 3016 1216 2887 
Q 1044 2759 1009 2478 
L 422 2531 
Q 566 3444 1778 3444 
Q 2416 3444 2737 3151 
Q 3059 2859 3059 2306 
L 3059 850 
Q 3059 600 3125 473 
Q 3191 347 3375 347 
Q 3456 347 3559 369 
L 3559 19 
Q 3347 -31 3125 -31 
Q 2813 -31 2670 133 
Q 2528 297 2509 647 
L 2491 647 
Q 2275 259 1989 98 
Q 1703 -63 1294 -63 
z
M 1422 359 
Q 1731 359 1972 500 
Q 2213 641 2352 886 
Q 2491 1131 2491 1391 
L 2491 1669 
L 1875 1656 
Q 1478 1650 1273 1575 
Q 1069 1500 959 1344 
Q 850 1188 850 934 
Q 850 659 998 509 
Q 1147 359 1422 359 
z
" transform="scale(0.015625)"/>
        <path id="LiberationSans-74" d="M 1731 25 
Q 1453 -50 1163 -50 
Q 488 -50 488 716 
L 488 2972 
L 97 2972 
L 97 3381 
L 509 3381 
L 675 4138 
L 1050 4138 
L 1050 3381 
L 1675 3381 
L 1675 2972 
L 1050 2972 
L 1050 838 
Q 1050 594 1129 495 
Q 1209 397 1406 397 
Q 1519 397 1731 441 
L 1731 25 
z
" transform="scale(0.015625)"/>
        <path id="LiberationSans-6e" d="M 2578 0 
L 2578 2144 
Q 2578 2478 2512 2662 
Q 2447 2847 2303 2928 
Q 2159 3009 1881 3009 
Q 1475 3009 1240 2731 
Q 1006 2453 1006 1959 
L 1006 0 
L 444 0 
L 444 2659 
Q 444 3250 425 3381 
L 956 3381 
Q 959 3366 962 3297 
Q 966 3228 970 3139 
Q 975 3050 981 2803 
L 991 2803 
Q 1184 3153 1439 3298 
Q 1694 3444 2072 3444 
Q 2628 3444 2886 3167 
Q 3144 2891 3144 2253 
L 3144 0 
L 2578 0 
z
" transform="scale(0.015625)"/>
       </defs>
       <use xlink:href="#LiberationSans-56"/>
       <use xlink:href="#LiberationSans-61" transform="translate(59.324219 0)"/>
       <use xlink:href="#LiberationSans-6c" transform="translate(114.939453 0)"/>
       <use xlink:href="#LiberationSans-69" transform="translate(137.15625 0)"/>
       <use xlink:href="#LiberationSans-64" transform="translate(159.373047 0)"/>
       <use xlink:href="#LiberationSans-61" transform="translate(214.988281 0)"/>
       <use xlink:href="#LiberationSans-74" transform="translate(270.603516 0)"/>
       <use xlink:href="#LiberationSans-69" transform="translate(298.386719 0)"/>
       <use xlink:href="#LiberationSans-6f" transform="translate(320.603516 0)"/>
       <use xlink:href="#LiberationSans-6e" transform="translate(376.21875 0)"/>
      </g>
     </g>
    </g>
   </g>
   <g id="matplotlib.axis_2">
    <g id="ytick_1">
     <g id="line2d_5">
      <path d="M 41.14375 334.8 
L 474.074784 334.8 
" clip-path="url(#p3acac60ce8)" style="fill: none; stroke-dasharray: 1,1.65; stroke-dashoffset: 0; stroke: #cccccc; stroke-opacity: 0.4"/>
     </g>
     <g id="line2d_6">
      <defs>
       <path id="md7fa565b31" d="M 0 0 
L -6 0 
" style="stroke: #000000; stroke-width: 1.25"/>
      </defs>
      <g>
       <use xlink:href="#md7fa565b31" x="41.14375" y="334.8" style="stroke: #000000; stroke-width: 1.25"/>
      </g>
     </g>
     <g id="text_5">
      <!-- 0 -->
      <g transform="translate(26.082813 338.423437) scale(0.1 -0.1)">
       <defs>
        <path id="LiberationSans-30" d="M 3309 2203 
Q 3309 1100 2920 518 
Q 2531 -63 1772 -63 
Q 1013 -63 631 515 
Q 250 1094 250 2203 
Q 250 3338 620 3903 
Q 991 4469 1791 4469 
Q 2569 4469 2939 3897 
Q 3309 3325 3309 2203 
z
M 2738 2203 
Q 2738 3156 2517 3584 
Q 2297 4013 1791 4013 
Q 1272 4013 1045 3591 
Q 819 3169 819 2203 
Q 819 1266 1048 831 
Q 1278 397 1778 397 
Q 2275 397 2506 840 
Q 2738 1284 2738 2203 
z
" transform="scale(0.015625)"/>
       </defs>
       <use xlink:href="#LiberationSans-30"/>
      </g>
     </g>
    </g>
    <g id="ytick_2">
     <g id="line2d_7">
      <path d="M 41.14375 295.397015 
L 474.074784 295.397015 
" clip-path="url(#p3acac60ce8)" style="fill: none; stroke-dasharray: 1,1.65; stroke-dashoffset: 0; stroke: #cccccc; stroke-opacity: 0.4"/>
     </g>
     <g id="line2d_8">
      <g>
       <use xlink:href="#md7fa565b31" x="41.14375" y="295.397015" style="stroke: #000000; stroke-width: 1.25"/>
      </g>
     </g>
     <g id="text_6">
      <!-- 10 -->
      <g transform="translate(20.521875 299.020452) scale(0.1 -0.1)">
       <defs>
        <path id="LiberationSans-31" d="M 488 0 
L 488 478 
L 1609 478 
L 1609 3866 
L 616 3156 
L 616 3688 
L 1656 4403 
L 2175 4403 
L 2175 478 
L 3247 478 
L 3247 0 
L 488 0 
z
" transform="scale(0.015625)"/>
       </defs>
       <use xlink:href="#LiberationSans-31"/>
       <use xlink:href="#LiberationSans-30" transform="translate(55.615234 0)"/>
      </g>
     </g>
    </g>
    <g id="ytick_3">
     <g id="line2d_9">
      <path d="M 41.14375 255.99403 
L 474.074784 255.99403 
" clip-path="url(#p3acac60ce8)" style="fill: none; stroke-dasharray: 1,1.65; stroke-dashoffset: 0; stroke: #cccccc; stroke-opacity: 0.4"/>
     </g>
     <g id="line2d_10">
      <g>
       <use xlink:href="#md7fa565b31" x="41.14375" y="255.99403" style="stroke: #000000; stroke-width: 1.25"/>
      </g>
     </g>
     <g id="text_7">
      <!-- 20 -->
      <g transform="translate(20.521875 259.617467) scale(0.1 -0.1)">
       <defs>
        <path id="LiberationSans-32" d="M 322 0 
L 322 397 
Q 481 763 711 1042 
Q 941 1322 1194 1548 
Q 1447 1775 1695 1969 
Q 1944 2163 2144 2356 
Q 2344 2550 2467 2762 
Q 2591 2975 2591 3244 
Q 2591 3606 2378 3806 
Q 2166 4006 1788 4006 
Q 1428 4006 1195 3811 
Q 963 3616 922 3263 
L 347 3316 
Q 409 3844 795 4156 
Q 1181 4469 1788 4469 
Q 2453 4469 2811 4155 
Q 3169 3841 3169 3263 
Q 3169 3006 3051 2753 
Q 2934 2500 2703 2247 
Q 2472 1994 1819 1463 
Q 1459 1169 1246 933 
Q 1034 697 941 478 
L 3238 478 
L 3238 0 
L 322 0 
z
" transform="scale(0.015625)"/>
       </defs>
       <use xlink:href="#LiberationSans-32"/>
       <use xlink:href="#LiberationSans-30" transform="translate(55.615234 0)"/>
      </g>
     </g>
    </g>
    <g id="ytick_4">
     <g id="line2d_11">
      <path d="M 41.14375 216.591045 
L 474.074784 216.591045 
" clip-path="url(#p3acac60ce8)" style="fill: none; stroke-dasharray: 1,1.65; stroke-dashoffset: 0; stroke: #cccccc; stroke-opacity: 0.4"/>
     </g>
     <g id="line2d_12">
      <g>
       <use xlink:href="#md7fa565b31" x="41.14375" y="216.591045" style="stroke: #000000; stroke-width: 1.25"/>
      </g>
     </g>
     <g id="text_8">
      <!-- 30 -->
      <g transform="translate(20.521875 220.214482) scale(0.1 -0.1)">
       <defs>
        <path id="LiberationSans-33" d="M 3278 1216 
Q 3278 606 2890 271 
Q 2503 -63 1784 -63 
Q 1116 -63 717 239 
Q 319 541 244 1131 
L 825 1184 
Q 938 403 1784 403 
Q 2209 403 2451 612 
Q 2694 822 2694 1234 
Q 2694 1594 2417 1795 
Q 2141 1997 1619 1997 
L 1300 1997 
L 1300 2484 
L 1606 2484 
Q 2069 2484 2323 2686 
Q 2578 2888 2578 3244 
Q 2578 3597 2370 3801 
Q 2163 4006 1753 4006 
Q 1381 4006 1151 3815 
Q 922 3625 884 3278 
L 319 3322 
Q 381 3863 767 4166 
Q 1153 4469 1759 4469 
Q 2422 4469 2789 4161 
Q 3156 3853 3156 3303 
Q 3156 2881 2920 2617 
Q 2684 2353 2234 2259 
L 2234 2247 
Q 2728 2194 3003 1916 
Q 3278 1638 3278 1216 
z
" transform="scale(0.015625)"/>
       </defs>
       <use xlink:href="#LiberationSans-33"/>
       <use xlink:href="#LiberationSans-30" transform="translate(55.615234 0)"/>
      </g>
     </g>
    </g>
    <g id="ytick_5">
     <g id="line2d_13">
      <path d="M 41.14375 177.18806 
L 474.074784 177.18806 
" clip-path="url(#p3acac60ce8)" style="fill: none; stroke-dasharray: 1,1.65; stroke-dashoffset: 0; stroke: #cccccc; stroke-opacity: 0.4"/>
     </g>
     <g id="line2d_14">
      <g>
       <use xlink:href="#md7fa565b31" x="41.14375" y="177.18806" style="stroke: #000000; stroke-width: 1.25"/>
      </g>
     </g>
     <g id="text_9">
      <!-- 40 -->
      <g transform="translate(20.521875 180.811497) scale(0.1 -0.1)">
       <defs>
        <path id="LiberationSans-34" d="M 2753 997 
L 2753 0 
L 2222 0 
L 2222 997 
L 147 997 
L 147 1434 
L 2163 4403 
L 2753 4403 
L 2753 1441 
L 3372 1441 
L 3372 997 
L 2753 997 
z
M 2222 3769 
Q 2216 3750 2134 3603 
Q 2053 3456 2013 3397 
L 884 1734 
L 716 1503 
L 666 1441 
L 2222 1441 
L 2222 3769 
z
" transform="scale(0.015625)"/>
       </defs>
       <use xlink:href="#LiberationSans-34"/>
       <use xlink:href="#LiberationSans-30" transform="translate(55.615234 0)"/>
      </g>
     </g>
    </g>
    <g id="ytick_6">
     <g id="line2d_15">
      <path d="M 41.14375 137.785075 
L 474.074784 137.785075 
" clip-path="url(#p3acac60ce8)" style="fill: none; stroke-dasharray: 1,1.65; stroke-dashoffset: 0; stroke: #cccccc; stroke-opacity: 0.4"/>
     </g>
     <g id="line2d_16">
      <g>
       <use xlink:href="#md7fa565b31" x="41.14375" y="137.785075" style="stroke: #000000; stroke-width: 1.25"/>
      </g>
     </g>
     <g id="text_10">
      <!-- 50 -->
      <g transform="translate(20.521875 141.408512) scale(0.1 -0.1)">
       <defs>
        <path id="LiberationSans-35" d="M 3291 1434 
Q 3291 738 2877 337 
Q 2463 -63 1728 -63 
Q 1113 -63 734 206 
Q 356 475 256 984 
L 825 1050 
Q 1003 397 1741 397 
Q 2194 397 2450 670 
Q 2706 944 2706 1422 
Q 2706 1838 2448 2094 
Q 2191 2350 1753 2350 
Q 1525 2350 1328 2278 
Q 1131 2206 934 2034 
L 384 2034 
L 531 4403 
L 3034 4403 
L 3034 3925 
L 1044 3925 
L 959 2528 
Q 1325 2809 1869 2809 
Q 2519 2809 2905 2428 
Q 3291 2047 3291 1434 
z
" transform="scale(0.015625)"/>
       </defs>
       <use xlink:href="#LiberationSans-35"/>
       <use xlink:href="#LiberationSans-30" transform="translate(55.615234 0)"/>
      </g>
     </g>
    </g>
    <g id="ytick_7">
     <g id="line2d_17">
      <path d="M 41.14375 98.38209 
L 474.074784 98.38209 
" clip-path="url(#p3acac60ce8)" style="fill: none; stroke-dasharray: 1,1.65; stroke-dashoffset: 0; stroke: #cccccc; stroke-opacity: 0.4"/>
     </g>
     <g id="line2d_18">
      <g>
       <use xlink:href="#md7fa565b31" x="41.14375" y="98.38209" style="stroke: #000000; stroke-width: 1.25"/>
      </g>
     </g>
     <g id="text_11">
      <!-- 60 -->
      <g transform="translate(20.521875 102.005527) scale(0.1 -0.1)">
       <defs>
        <path id="LiberationSans-36" d="M 3278 1441 
Q 3278 744 2900 340 
Q 2522 -63 1856 -63 
Q 1113 -63 719 490 
Q 325 1044 325 2100 
Q 325 3244 734 3856 
Q 1144 4469 1900 4469 
Q 2897 4469 3156 3572 
L 2619 3475 
Q 2453 4013 1894 4013 
Q 1413 4013 1148 3564 
Q 884 3116 884 2266 
Q 1038 2550 1316 2698 
Q 1594 2847 1953 2847 
Q 2563 2847 2920 2465 
Q 3278 2084 3278 1441 
z
M 2706 1416 
Q 2706 1894 2472 2153 
Q 2238 2413 1819 2413 
Q 1425 2413 1183 2183 
Q 941 1953 941 1550 
Q 941 1041 1192 716 
Q 1444 391 1838 391 
Q 2244 391 2475 664 
Q 2706 938 2706 1416 
z
" transform="scale(0.015625)"/>
       </defs>
       <use xlink:href="#LiberationSans-36"/>
       <use xlink:href="#LiberationSans-30" transform="translate(55.615234 0)"/>
      </g>
     </g>
    </g>
    <g id="ytick_8">
     <g id="line2d_19">
      <path d="M 41.14375 58.979104 
L 474.074784 58.979104 
" clip-path="url(#p3acac60ce8)" style="fill: none; stroke-dasharray: 1,1.65; stroke-dashoffset: 0; stroke: #cccccc; stroke-opacity: 0.4"/>
     </g>
     <g id="line2d_20">
      <g>
       <use xlink:href="#md7fa565b31" x="41.14375" y="58.979104" style="stroke: #000000; stroke-width: 1.25"/>
      </g>
     </g>
     <g id="text_12">
      <!-- 70 -->
      <g transform="translate(20.521875 62.602542) scale(0.1 -0.1)">
       <defs>
        <path id="LiberationSans-37" d="M 3238 3947 
Q 2563 2916 2284 2331 
Q 2006 1747 1867 1178 
Q 1728 609 1728 0 
L 1141 0 
Q 1141 844 1498 1776 
Q 1856 2709 2694 3925 
L 328 3925 
L 328 4403 
L 3238 4403 
L 3238 3947 
z
" transform="scale(0.015625)"/>
       </defs>
       <use xlink:href="#LiberationSans-37"/>
       <use xlink:href="#LiberationSans-30" transform="translate(55.615234 0)"/>
      </g>
     </g>
    </g>
    <g id="text_13">
     <!-- Estimated effort (h) -->
     <g transform="translate(14.446875 238.624219) rotate(-90) scale(0.1 -0.1)">
      <defs>
       <path id="LiberationSans-45" d="M 525 0 
L 525 4403 
L 3866 4403 
L 3866 3916 
L 1122 3916 
L 1122 2503 
L 3678 2503 
L 3678 2022 
L 1122 2022 
L 1122 488 
L 3994 488 
L 3994 0 
L 525 0 
z
" transform="scale(0.015625)"/>
       <path id="LiberationSans-6d" d="M 2400 0 
L 2400 2144 
Q 2400 2634 2265 2821 
Q 2131 3009 1781 3009 
Q 1422 3009 1212 2734 
Q 1003 2459 1003 1959 
L 1003 0 
L 444 0 
L 444 2659 
Q 444 3250 425 3381 
L 956 3381 
Q 959 3366 962 3297 
Q 966 3228 970 3139 
Q 975 3050 981 2803 
L 991 2803 
Q 1172 3163 1406 3303 
Q 1641 3444 1978 3444 
Q 2363 3444 2586 3291 
Q 2809 3138 2897 2803 
L 2906 2803 
Q 3081 3144 3329 3294 
Q 3578 3444 3931 3444 
Q 4444 3444 4676 3166 
Q 4909 2888 4909 2253 
L 4909 0 
L 4353 0 
L 4353 2144 
Q 4353 2634 4218 2821 
Q 4084 3009 3734 3009 
Q 3366 3009 3161 2736 
Q 2956 2463 2956 1959 
L 2956 0 
L 2400 0 
z
" transform="scale(0.015625)"/>
       <path id="LiberationSans-20" transform="scale(0.015625)"/>
       <path id="LiberationSans-66" d="M 1128 2972 
L 1128 0 
L 566 0 
L 566 2972 
L 91 2972 
L 91 3381 
L 566 3381 
L 566 3763 
Q 566 4225 769 4428 
Q 972 4631 1391 4631 
Q 1625 4631 1788 4594 
L 1788 4166 
Q 1647 4191 1538 4191 
Q 1322 4191 1225 4081 
Q 1128 3972 1128 3684 
L 1128 3381 
L 1788 3381 
L 1788 2972 
L 1128 2972 
z
" transform="scale(0.015625)"/>
       <path id="LiberationSans-28" d="M 397 1663 
Q 397 2566 680 3284 
Q 963 4003 1550 4638 
L 2094 4638 
Q 1509 3988 1236 3256 
Q 963 2525 963 1656 
Q 963 791 1233 62 
Q 1503 -666 2094 -1325 
L 1550 -1325 
Q 959 -688 678 32 
Q 397 753 397 1650 
L 397 1663 
z
" transform="scale(0.015625)"/>
       <path id="LiberationSans-68" d="M 991 2803 
Q 1172 3134 1426 3289 
Q 1681 3444 2072 3444 
Q 2622 3444 2883 3170 
Q 3144 2897 3144 2253 
L 3144 0 
L 2578 0 
L 2578 2144 
Q 2578 2500 2512 2673 
Q 2447 2847 2297 2928 
Q 2147 3009 1881 3009 
Q 1484 3009 1245 2734 
Q 1006 2459 1006 1994 
L 1006 0 
L 444 0 
L 444 4638 
L 1006 4638 
L 1006 3431 
Q 1006 3241 995 3037 
Q 984 2834 981 2803 
L 991 2803 
z
" transform="scale(0.015625)"/>
       <path id="LiberationSans-29" d="M 1734 1650 
Q 1734 747 1451 28 
Q 1169 -691 581 -1325 
L 38 -1325 
Q 625 -669 897 57 
Q 1169 784 1169 1656 
Q 1169 2528 895 3256 
Q 622 3984 38 4638 
L 581 4638 
Q 1172 4000 1453 3279 
Q 1734 2559 1734 1663 
L 1734 1650 
z
" transform="scale(0.015625)"/>
      </defs>
      <use xlink:href="#LiberationSans-45"/>
      <use xlink:href="#LiberationSans-73" transform="translate(66.699219 0)"/>
      <use xlink:href="#LiberationSans-74" transform="translate(116.699219 0)"/>
      <use xlink:href="#LiberationSans-69" transform="translate(144.482422 0)"/>
      <use xlink:href="#LiberationSans-6d" transform="translate(166.699219 0)"/>
      <use xlink:href="#LiberationSans-61" transform="translate(250 0)"/>
      <use xlink:href="#LiberationSans-74" transform="translate(305.615234 0)"/>
      <use xlink:href="#LiberationSans-65" transform="translate(333.398438 0)"/>
      <use xlink:href="#LiberationSans-64" transform="translate(389.013672 0)"/>
      <use xlink:href="#LiberationSans-20" transform="translate(444.628906 0)"/>
      <use xlink:href="#LiberationSans-65" transform="translate(472.412109 0)"/>
      <use xlink:href="#LiberationSans-66" transform="translate(528.027344 0)"/>
      <use xlink:href="#LiberationSans-66" transform="translate(554.060547 0)"/>
      <use xlink:href="#LiberationSans-6f" transform="translate(581.84375 0)"/>
      <use xlink:href="#LiberationSans-72" transform="translate(637.458984 0)"/>
      <use xlink:href="#LiberationSans-74" transform="translate(670.759766 0)"/>
      <use xlink:href="#LiberationSans-20" transform="translate(698.542969 0)"/>
      <use xlink:href="#LiberationSans-28" transform="translate(726.326172 0)"/>
      <use xlink:href="#LiberationSans-68" transform="translate(759.626953 0)"/>
      <use xlink:href="#LiberationSans-29" transform="translate(815.242188 0)"/>
     </g>
    </g>
   </g>
   <g id="patch_3">
    <path d="M 41.14375 334.8 
L 41.14375 57.6 
" style="fill: none; stroke: #262626; stroke-width: 1.25; stroke-linejoin: miter; stroke-linecap: square"/>
   </g>
   <g id="patch_4">
    <path d="M 41.14375 334.8 
L 474.074784 334.8 
" style="fill: none; stroke: #262626; stroke-width: 1.25; stroke-linejoin: miter; stroke-linecap: square"/>
   </g>
   <g id="patch_5">
    <path d="M 60.822433 334.8 
L 79.866321 334.8 
L 79.866321 326.919403 
L 60.822433 326.919403 
z
" clip-path="url(#p3acac60ce8)" style="fill: #00658b; stroke: #ffffff; stroke-width: 0.8; stroke-linejoin: miter"/>
   </g>
   <g id="patch_6">
    <path d="M 166.621806 334.8 
L 185.665694 334.8 
L 185.665694 322.979104 
L 166.621806 322.979104 
z
" clip-path="url(#p3acac60ce8)" style="fill: #00658b; stroke: #ffffff; stroke-width: 0.8; stroke-linejoin: miter"/>
   </g>
   <g id="patch_7">
    <path d="M 272.421179 334.8 
L 291.465067 334.8 
L 291.465067 319.038806 
L 272.421179 319.038806 
z
" clip-path="url(#p3acac60ce8)" style="fill: #00658b; stroke: #ffffff; stroke-width: 0.8; stroke-linejoin: miter"/>
   </g>
   <g id="patch_8">
    <path d="M 378.220553 334.8 
L 397.26444 334.8 
L 397.26444 328.889552 
L 378.220553 328.889552 
z
" clip-path="url(#p3acac60ce8)" style="fill: #00658b; stroke: #ffffff; stroke-width: 0.8; stroke-linejoin: miter"/>
   </g>
   <g id="patch_9">
    <path d="M 79.866321 334.8 
L 98.910208 334.8 
L 98.910208 216.591045 
L 79.866321 216.591045 
z
" clip-path="url(#p3acac60ce8)" style="fill: #b1b1b1; stroke: #ffffff; stroke-width: 0.8; stroke-linejoin: miter"/>
   </g>
   <g id="patch_10">
    <path d="M 185.665694 334.8 
L 204.709581 334.8 
L 204.709581 255.99403 
L 185.665694 255.99403 
z
" clip-path="url(#p3acac60ce8)" style="fill: #b1b1b1; stroke: #ffffff; stroke-width: 0.8; stroke-linejoin: miter"/>
   </g>
   <g id="patch_11">
    <path d="M 291.465067 334.8 
L 310.508954 334.8 
L 310.508954 208.710448 
L 291.465067 208.710448 
z
" clip-path="url(#p3acac60ce8)" style="fill: #b1b1b1; stroke: #ffffff; stroke-width: 0.8; stroke-linejoin: miter"/>
   </g>
   <g id="patch_12">
    <path d="M 397.26444 334.8 
L 416.308327 334.8 
L 416.308327 315.098507 
L 397.26444 315.098507 
z
" clip-path="url(#p3acac60ce8)" style="fill: #b1b1b1; stroke: #ffffff; stroke-width: 0.8; stroke-linejoin: miter"/>
   </g>
   <g id="patch_13">
    <path d="M 98.910208 334.8 
L 117.954095 334.8 
L 117.954095 322.979104 
L 98.910208 322.979104 
z
" clip-path="url(#p3acac60ce8)" style="fill: #00658b; opacity: 0.55; stroke: #ffffff; stroke-width: 0.8; stroke-linejoin: miter"/>
   </g>
   <g id="patch_14">
    <path d="M 204.709581 334.8 
L 223.753468 334.8 
L 223.753468 326.919403 
L 204.709581 326.919403 
z
" clip-path="url(#p3acac60ce8)" style="fill: #00658b; opacity: 0.55; stroke: #ffffff; stroke-width: 0.8; stroke-linejoin: miter"/>
   </g>
   <g id="patch_15">
    <path d="M 310.508954 334.8 
L 329.552841 334.8 
L 329.552841 322.979104 
L 310.508954 322.979104 
z
" clip-path="url(#p3acac60ce8)" style="fill: #00658b; opacity: 0.55; stroke: #ffffff; stroke-width: 0.8; stroke-linejoin: miter"/>
   </g>
   <g id="patch_16">
    <path d="M 416.308327 334.8 
L 435.352214 334.8 
L 435.352214 334.8 
L 416.308327 334.8 
z
" clip-path="url(#p3acac60ce8)" style="fill: #00658b; opacity: 0.55; stroke: #ffffff; stroke-width: 0.8; stroke-linejoin: miter"/>
   </g>
   <g id="patch_17">
    <path d="M 117.954095 334.8 
L 136.997982 334.8 
L 136.997982 137.785075 
L 117.954095 137.785075 
z
" clip-path="url(#p3acac60ce8)" style="fill: #b1b1b1; opacity: 0.55; stroke: #ffffff; stroke-width: 0.8; stroke-linejoin: miter"/>
   </g>
   <g id="patch_18">
    <path d="M 223.753468 334.8 
L 242.797355 334.8 
L 242.797355 196.889552 
L 223.753468 196.889552 
z
" clip-path="url(#p3acac60ce8)" style="fill: #b1b1b1; opacity: 0.55; stroke: #ffffff; stroke-width: 0.8; stroke-linejoin: miter"/>
   </g>
   <g id="patch_19">
    <path d="M 329.552841 334.8 
L 348.596728 334.8 
L 348.596728 196.889552 
L 329.552841 196.889552 
z
" clip-path="url(#p3acac60ce8)" style="fill: #b1b1b1; opacity: 0.55; stroke: #ffffff; stroke-width: 0.8; stroke-linejoin: miter"/>
   </g>
   <g id="patch_20">
    <path d="M 435.352214 334.8 
L 454.396101 334.8 
L 454.396101 334.8 
L 435.352214 334.8 
z
" clip-path="url(#p3acac60ce8)" style="fill: #b1b1b1; opacity: 0.55; stroke: #ffffff; stroke-width: 0.8; stroke-linejoin: miter"/>
   </g>
   <g id="patch_21">
    <path d="M 397.187073 242.167088 
Q 416.913984 285.602596 436.178569 328.020137 
" style="fill: none; stroke: #c0392b; stroke-linecap: round"/>
    <path d="M 436.303765 324.668372 
L 436.178569 328.020137 
L 433.572275 325.908921 
" style="fill: none; stroke: #c0392b; stroke-linecap: round"/>
   </g>
   <g id="text_14">
    <!-- EcoFlow: validation phase -->
    <g style="fill: #c0392b" transform="translate(342.248766 220.135662) scale(0.075 -0.075)">
     <defs>
      <path id="LiberationSans-46" d="M 1122 3916 
L 1122 2278 
L 3578 2278 
L 3578 1784 
L 1122 1784 
L 1122 0 
L 525 0 
L 525 4403 
L 3653 4403 
L 3653 3916 
L 1122 3916 
z
" transform="scale(0.015625)"/>
      <path id="LiberationSans-77" d="M 3669 0 
L 3016 0 
L 2425 2391 
L 2313 2919 
Q 2284 2778 2225 2514 
Q 2166 2250 1588 0 
L 938 0 
L -9 3381 
L 547 3381 
L 1119 1084 
Q 1141 1009 1253 466 
L 1306 697 
L 2013 3381 
L 2616 3381 
L 3206 1059 
L 3350 466 
L 3447 900 
L 4088 3381 
L 4638 3381 
L 3669 0 
z
" transform="scale(0.015625)"/>
      <path id="LiberationSans-3a" d="M 584 2734 
L 584 3381 
L 1194 3381 
L 1194 2734 
L 584 2734 
z
M 584 0 
L 584 647 
L 1194 647 
L 1194 0 
L 584 0 
z
" transform="scale(0.015625)"/>
      <path id="LiberationSans-70" d="M 3291 1706 
Q 3291 -63 2047 -63 
Q 1266 -63 997 525 
L 981 525 
Q 994 500 994 -6 
L 994 -1328 
L 431 -1328 
L 431 2691 
Q 431 3213 413 3381 
L 956 3381 
Q 959 3369 965 3292 
Q 972 3216 980 3056 
Q 988 2897 988 2838 
L 1000 2838 
Q 1150 3150 1397 3295 
Q 1644 3441 2047 3441 
Q 2672 3441 2981 3022 
Q 3291 2603 3291 1706 
z
M 2700 1694 
Q 2700 2400 2509 2703 
Q 2319 3006 1903 3006 
Q 1569 3006 1380 2865 
Q 1191 2725 1092 2426 
Q 994 2128 994 1650 
Q 994 984 1206 668 
Q 1419 353 1897 353 
Q 2316 353 2508 661 
Q 2700 969 2700 1694 
z
" transform="scale(0.015625)"/>
     </defs>
     <use xlink:href="#LiberationSans-45"/>
     <use xlink:href="#LiberationSans-63" transform="translate(66.699219 0)"/>
     <use xlink:href="#LiberationSans-6f" transform="translate(116.699219 0)"/>
     <use xlink:href="#LiberationSans-46" transform="translate(172.314453 0)"/>
     <use xlink:href="#LiberationSans-6c" transform="translate(233.398438 0)"/>
     <use xlink:href="#LiberationSans-6f" transform="translate(255.615234 0)"/>
     <use xlink:href="#LiberationSans-77" transform="translate(311.230469 0)"/>
     <use xlink:href="#LiberationSans-3a" transform="translate(383.447266 0)"/>
     <use xlink:href="#LiberationSans-20" transform="translate(411.230469 0)"/>
     <use xlink:href="#LiberationSans-76" transform="translate(439.013672 0)"/>
     <use xlink:href="#LiberationSans-61" transform="translate(489.013672 0)"/>
     <use xlink:href="#LiberationSans-6c" transform="translate(544.628906 0)"/>
     <use xlink:href="#LiberationSans-69" transform="translate(566.845703 0)"/>
     <use xlink:href="#LiberationSans-64" transform="translate(589.0625 0)"/>
     <use xlink:href="#LiberationSans-61" transform="translate(644.677734 0)"/>
     <use xlink:href="#LiberationSans-74" transform="translate(700.292969 0)"/>
     <use xlink:href="#LiberationSans-69" transform="translate(728.076172 0)"/>
     <use xlink:href="#LiberationSans-6f" transform="translate(750.292969 0)"/>
     <use xlink:href="#LiberationSans-6e" transform="translate(805.908203 0)"/>
     <use xlink:href="#LiberationSans-20" transform="translate(861.523438 0)"/>
     <use xlink:href="#LiberationSans-70" transform="translate(889.306641 0)"/>
     <use xlink:href="#LiberationSans-68" transform="translate(944.921875 0)"/>
     <use xlink:href="#LiberationSans-61" transform="translate(1000.537109 0)"/>
     <use xlink:href="#LiberationSans-73" transform="translate(1056.152344 0)"/>
     <use xlink:href="#LiberationSans-65" transform="translate(1106.152344 0)"/>
    </g>
    <!-- not separately captured — -->
    <g style="fill: #c0392b" transform="translate(342.248766 228.2141) scale(0.075 -0.075)">
     <defs>
      <path id="LiberationSans-2014" d="M 0 1409 
L 0 1838 
L 6400 1838 
L 6400 1409 
L 0 1409 
z
" transform="scale(0.015625)"/>
     </defs>
     <use xlink:href="#LiberationSans-6e"/>
     <use xlink:href="#LiberationSans-6f" transform="translate(55.615234 0)"/>
     <use xlink:href="#LiberationSans-74" transform="translate(111.230469 0)"/>
     <use xlink:href="#LiberationSans-20" transform="translate(139.013672 0)"/>
     <use xlink:href="#LiberationSans-73" transform="translate(166.796875 0)"/>
     <use xlink:href="#LiberationSans-65" transform="translate(216.796875 0)"/>
     <use xlink:href="#LiberationSans-70" transform="translate(272.412109 0)"/>
     <use xlink:href="#LiberationSans-61" transform="translate(328.027344 0)"/>
     <use xlink:href="#LiberationSans-72" transform="translate(383.642578 0)"/>
     <use xlink:href="#LiberationSans-61" transform="translate(416.943359 0)"/>
     <use xlink:href="#LiberationSans-74" transform="translate(472.558594 0)"/>
     <use xlink:href="#LiberationSans-65" transform="translate(500.341797 0)"/>
     <use xlink:href="#LiberationSans-6c" transform="translate(555.957031 0)"/>
     <use xlink:href="#LiberationSans-79" transform="translate(578.173828 0)"/>
     <use xlink:href="#LiberationSans-20" transform="translate(628.173828 0)"/>
     <use xlink:href="#LiberationSans-63" transform="translate(655.957031 0)"/>
     <use xlink:href="#LiberationSans-61" transform="translate(705.957031 0)"/>
     <use xlink:href="#LiberationSans-70" transform="translate(761.572266 0)"/>
     <use xlink:href="#LiberationSans-74" transform="translate(817.1875 0)"/>
     <use xlink:href="#LiberationSans-75" transform="translate(844.970703 0)"/>
     <use xlink:href="#LiberationSans-72" transform="translate(900.585938 0)"/>
     <use xlink:href="#LiberationSans-65" transform="translate(933.886719 0)"/>
     <use xlink:href="#LiberationSans-64" transform="translate(989.501953 0)"/>
     <use xlink:href="#LiberationSans-20" transform="translate(1045.117188 0)"/>
     <use xlink:href="#LiberationSans-2014" transform="translate(1072.900391 0)"/>
    </g>
    <!-- omitted (CLAUDE.md rule 1) -->
    <g style="fill: #c0392b" transform="translate(342.248766 236.292537) scale(0.075 -0.075)">
     <defs>
      <path id="LiberationSans-43" d="M 2475 3981 
Q 1744 3981 1337 3511 
Q 931 3041 931 2222 
Q 931 1413 1354 920 
Q 1778 428 2500 428 
Q 3425 428 3891 1344 
L 4378 1100 
Q 4106 531 3614 234 
Q 3122 -63 2472 -63 
Q 1806 -63 1320 214 
Q 834 491 579 1005 
Q 325 1519 325 2222 
Q 325 3275 894 3872 
Q 1463 4469 2469 4469 
Q 3172 4469 3644 4194 
Q 4116 3919 4338 3378 
L 3772 3191 
Q 3619 3575 3280 3778 
Q 2941 3981 2475 3981 
z
" transform="scale(0.015625)"/>
      <path id="LiberationSans-4c" d="M 525 0 
L 525 4403 
L 1122 4403 
L 1122 488 
L 3347 488 
L 3347 0 
L 525 0 
z
" transform="scale(0.015625)"/>
      <path id="LiberationSans-41" d="M 3647 0 
L 3144 1288 
L 1138 1288 
L 631 0 
L 13 0 
L 1809 4403 
L 2488 4403 
L 4256 0 
L 3647 0 
z
M 2141 3953 
L 2113 3866 
Q 2034 3606 1881 3200 
L 1319 1753 
L 2966 1753 
L 2400 3206 
Q 2313 3422 2225 3694 
L 2141 3953 
z
" transform="scale(0.015625)"/>
      <path id="LiberationSans-55" d="M 2284 -63 
Q 1744 -63 1341 134 
Q 938 331 716 706 
Q 494 1081 494 1600 
L 494 4403 
L 1091 4403 
L 1091 1650 
Q 1091 1047 1397 734 
Q 1703 422 2281 422 
Q 2875 422 3204 745 
Q 3534 1069 3534 1691 
L 3534 4403 
L 4128 4403 
L 4128 1656 
Q 4128 1122 3901 734 
Q 3675 347 3261 142 
Q 2847 -63 2284 -63 
z
" transform="scale(0.015625)"/>
      <path id="LiberationSans-2e" d="M 584 0 
L 584 684 
L 1194 684 
L 1194 0 
L 584 0 
z
" transform="scale(0.015625)"/>
     </defs>
     <use xlink:href="#LiberationSans-6f"/>
     <use xlink:href="#LiberationSans-6d" transform="translate(55.615234 0)"/>
     <use xlink:href="#LiberationSans-69" transform="translate(138.916016 0)"/>
     <use xlink:href="#LiberationSans-74" transform="translate(161.132812 0)"/>
     <use xlink:href="#LiberationSans-74" transform="translate(188.916016 0)"/>
     <use xlink:href="#LiberationSans-65" transform="translate(216.699219 0)"/>
     <use xlink:href="#LiberationSans-64" transform="translate(272.314453 0)"/>
     <use xlink:href="#LiberationSans-20" transform="translate(327.929688 0)"/>
     <use xlink:href="#LiberationSans-28" transform="translate(355.712891 0)"/>
     <use xlink:href="#LiberationSans-43" transform="translate(389.013672 0)"/>
     <use xlink:href="#LiberationSans-4c" transform="translate(461.230469 0)"/>
     <use xlink:href="#LiberationSans-41" transform="translate(516.845703 0)"/>
     <use xlink:href="#LiberationSans-55" transform="translate(583.544922 0)"/>
     <use xlink:href="#LiberationSans-44" transform="translate(655.761719 0)"/>
     <use xlink:href="#LiberationSans-45" transform="translate(727.978516 0)"/>
     <use xlink:href="#LiberationSans-2e" transform="translate(794.677734 0)"/>
     <use xlink:href="#LiberationSans-6d" transform="translate(822.460938 0)"/>
     <use xlink:href="#LiberationSans-64" transform="translate(905.761719 0)"/>
     <use xlink:href="#LiberationSans-20" transform="translate(961.376953 0)"/>
     <use xlink:href="#LiberationSans-72" transform="translate(989.160156 0)"/>
     <use xlink:href="#LiberationSans-75" transform="translate(1022.460938 0)"/>
     <use xlink:href="#LiberationSans-6c" transform="translate(1078.076172 0)"/>
     <use xlink:href="#LiberationSans-65" transform="translate(1100.292969 0)"/>
     <use xlink:href="#LiberationSans-20" transform="translate(1155.908203 0)"/>
     <use xlink:href="#LiberationSans-31" transform="translate(1183.691406 0)"/>
     <use xlink:href="#LiberationSans-29" transform="translate(1239.306641 0)"/>
    </g>
   </g>
   <g id="text_15">
    <!-- Per-stage effort: AI-assisted vs manual baseline -->
    <g style="fill: #666666" transform="translate(151.816298 51.6) scale(0.1 -0.1)">
     <defs>
      <path id="LiberationSans-50" d="M 3931 3078 
Q 3931 2453 3523 2084 
Q 3116 1716 2416 1716 
L 1122 1716 
L 1122 0 
L 525 0 
L 525 4403 
L 2378 4403 
Q 3119 4403 3525 4056 
Q 3931 3709 3931 3078 
z
M 3331 3072 
Q 3331 3925 2306 3925 
L 1122 3925 
L 1122 2188 
L 2331 2188 
Q 3331 2188 3331 3072 
z
" transform="scale(0.015625)"/>
      <path id="LiberationSans-2d" d="M 284 1450 
L 284 1950 
L 1847 1950 
L 1847 1450 
L 284 1450 
z
" transform="scale(0.015625)"/>
      <path id="LiberationSans-49" d="M 591 0 
L 591 4403 
L 1188 4403 
L 1188 0 
L 591 0 
z
" transform="scale(0.015625)"/>
     </defs>
     <use xlink:href="#LiberationSans-50"/>
     <use xlink:href="#LiberationSans-65" transform="translate(66.699219 0)"/>
     <use xlink:href="#LiberationSans-72" transform="translate(122.314453 0)"/>
     <use xlink:href="#LiberationSans-2d" transform="translate(155.615234 0)"/>
     <use xlink:href="#LiberationSans-73" transform="translate(188.916016 0)"/>
     <use xlink:href="#LiberationSans-74" transform="translate(238.916016 0)"/>
     <use xlink:href="#LiberationSans-61" transform="translate(266.699219 0)"/>
     <use xlink:href="#LiberationSans-67" transform="translate(322.314453 0)"/>
     <use xlink:href="#LiberationSans-65" transform="translate(377.929688 0)"/>
     <use xlink:href="#LiberationSans-20" transform="translate(433.544922 0)"/>
     <use xlink:href="#LiberationSans-65" transform="translate(461.328125 0)"/>
     <use xlink:href="#LiberationSans-66" transform="translate(516.943359 0)"/>
     <use xlink:href="#LiberationSans-66" transform="translate(542.976562 0)"/>
     <use xlink:href="#LiberationSans-6f" transform="translate(570.759766 0)"/>
     <use xlink:href="#LiberationSans-72" transform="translate(626.375 0)"/>
     <use xlink:href="#LiberationSans-74" transform="translate(659.675781 0)"/>
     <use xlink:href="#LiberationSans-3a" transform="translate(687.458984 0)"/>
     <use xlink:href="#LiberationSans-20" transform="translate(715.242188 0)"/>
     <use xlink:href="#LiberationSans-41" transform="translate(737.525391 0)"/>
     <use xlink:href="#LiberationSans-49" transform="translate(804.224609 0)"/>
     <use xlink:href="#LiberationSans-2d" transform="translate(832.007812 0)"/>
     <use xlink:href="#LiberationSans-61" transform="translate(865.308594 0)"/>
     <use xlink:href="#LiberationSans-73" transform="translate(920.923828 0)"/>
     <use xlink:href="#LiberationSans-73" transform="translate(970.923828 0)"/>
     <use xlink:href="#LiberationSans-69" transform="translate(1020.923828 0)"/>
     <use xlink:href="#LiberationSans-73" transform="translate(1043.140625 0)"/>
     <use xlink:href="#LiberationSans-74" transform="translate(1093.140625 0)"/>
     <use xlink:href="#LiberationSans-65" transform="translate(1120.923828 0)"/>
     <use xlink:href="#LiberationSans-64" transform="translate(1176.539062 0)"/>
     <use xlink:href="#LiberationSans-20" transform="translate(1232.154297 0)"/>
     <use xlink:href="#LiberationSans-76" transform="translate(1259.9375 0)"/>
     <use xlink:href="#LiberationSans-73" transform="translate(1309.9375 0)"/>
     <use xlink:href="#LiberationSans-20" transform="translate(1359.9375 0)"/>
     <use xlink:href="#LiberationSans-6d" transform="translate(1387.720703 0)"/>
     <use xlink:href="#LiberationSans-61" transform="translate(1471.021484 0)"/>
     <use xlink:href="#LiberationSans-6e" transform="translate(1526.636719 0)"/>
     <use xlink:href="#LiberationSans-75" transform="translate(1582.251953 0)"/>
     <use xlink:href="#LiberationSans-61" transform="translate(1637.867188 0)"/>
     <use xlink:href="#LiberationSans-6c" transform="translate(1693.482422 0)"/>
     <use xlink:href="#LiberationSans-20" transform="translate(1715.699219 0)"/>
     <use xlink:href="#LiberationSans-62" transform="translate(1743.482422 0)"/>
     <use xlink:href="#LiberationSans-61" transform="translate(1799.097656 0)"/>
     <use xlink:href="#LiberationSans-73" transform="translate(1854.712891 0)"/>
     <use xlink:href="#LiberationSans-65" transform="translate(1904.712891 0)"/>
     <use xlink:href="#LiberationSans-6c" transform="translate(1960.328125 0)"/>
     <use xlink:href="#LiberationSans-69" transform="translate(1982.544922 0)"/>
     <use xlink:href="#LiberationSans-6e" transform="translate(2004.761719 0)"/>
     <use xlink:href="#LiberationSans-65" transform="translate(2060.376953 0)"/>
    </g>
   </g>
   <g id="LineCollection_1">
    <path d="M 89.388264 255.99403 
L 89.388264 177.18806 
" clip-path="url(#p3acac60ce8)" style="fill: none; stroke: #666666; stroke-width: 2"/>
    <path d="M 195.187637 283.576119 
L 195.187637 228.41194 
" clip-path="url(#p3acac60ce8)" style="fill: none; stroke: #666666; stroke-width: 2"/>
    <path d="M 300.98701 252.053731 
L 300.98701 165.367164 
" clip-path="url(#p3acac60ce8)" style="fill: none; stroke: #666666; stroke-width: 2"/>
    <path d="M 406.786383 322.979104 
L 406.786383 307.21791 
" clip-path="url(#p3acac60ce8)" style="fill: none; stroke: #666666; stroke-width: 2"/>
   </g>
   <g id="line2d_21">
    <defs>
     <path id="mf082c76f8d" d="M 3 0 
L -3 -0 
" style="stroke: #666666"/>
    </defs>
    <g clip-path="url(#p3acac60ce8)">
     <use xlink:href="#mf082c76f8d" x="89.388264" y="255.99403" style="fill: #6cb9dc; stroke: #666666"/>
     <use xlink:href="#mf082c76f8d" x="195.187637" y="283.576119" style="fill: #6cb9dc; stroke: #666666"/>
     <use xlink:href="#mf082c76f8d" x="300.98701" y="252.053731" style="fill: #6cb9dc; stroke: #666666"/>
     <use xlink:href="#mf082c76f8d" x="406.786383" y="322.979104" style="fill: #6cb9dc; stroke: #666666"/>
    </g>
   </g>
   <g id="line2d_22">
    <g clip-path="url(#p3acac60ce8)">
     <use xlink:href="#mf082c76f8d" x="89.388264" y="177.18806" style="fill: #6cb9dc; stroke: #666666"/>
     <use xlink:href="#mf082c76f8d" x="195.187637" y="228.41194" style="fill: #6cb9dc; stroke: #666666"/>
     <use xlink:href="#mf082c76f8d" x="300.98701" y="165.367164" style="fill: #6cb9dc; stroke: #666666"/>
     <use xlink:href="#mf082c76f8d" x="406.786383" y="307.21791" style="fill: #6cb9dc; stroke: #666666"/>
    </g>
   </g>
   <g id="LineCollection_2">
    <path d="M 127.476038 204.770149 
L 127.476038 70.8 
" clip-path="url(#p3acac60ce8)" style="fill: none; stroke: #666666; stroke-width: 2"/>
    <path d="M 233.275411 244.173134 
L 233.275411 149.60597 
" clip-path="url(#p3acac60ce8)" style="fill: none; stroke: #666666; stroke-width: 2"/>
    <path d="M 339.074784 244.173134 
L 339.074784 149.60597 
" clip-path="url(#p3acac60ce8)" style="fill: none; stroke: #666666; stroke-width: 2"/>
    <path d="M 444.874158 334.8 
L 444.874158 334.8 
" clip-path="url(#p3acac60ce8)" style="fill: none; stroke: #666666; stroke-width: 2"/>
   </g>
   <g id="line2d_23">
    <g clip-path="url(#p3acac60ce8)">
     <use xlink:href="#mf082c76f8d" x="127.476038" y="204.770149" style="fill: #6cb9dc; stroke: #666666"/>
     <use xlink:href="#mf082c76f8d" x="233.275411" y="244.173134" style="fill: #6cb9dc; stroke: #666666"/>
     <use xlink:href="#mf082c76f8d" x="339.074784" y="244.173134" style="fill: #6cb9dc; stroke: #666666"/>
     <use xlink:href="#mf082c76f8d" x="444.874158" y="334.8" style="fill: #6cb9dc; stroke: #666666"/>
    </g>
   </g>
   <g id="line2d_24">
    <g clip-path="url(#p3acac60ce8)">
     <use xlink:href="#mf082c76f8d" x="127.476038" y="70.8" style="fill: #6cb9dc; stroke: #666666"/>
     <use xlink:href="#mf082c76f8d" x="233.275411" y="149.60597" style="fill: #6cb9dc; stroke: #666666"/>
     <use xlink:href="#mf082c76f8d" x="339.074784" y="149.60597" style="fill: #6cb9dc; stroke: #666666"/>
     <use xlink:href="#mf082c76f8d" x="444.874158" y="334.8" style="fill: #6cb9dc; stroke: #666666"/>
    </g>
   </g>
   <g id="legend_1">
    <g id="patch_22">
     <path d="M 102.434784 70.5975 
L 118.434784 70.5975 
L 118.434784 64.9975 
L 102.434784 64.9975 
z
" style="fill: #00658b; stroke: #ffffff; stroke-width: 0.8; stroke-linejoin: miter"/>
    </g>
    <g id="text_16">
     <!-- Spider Farmer — AI -->
     <g transform="translate(124.834784 70.5975) scale(0.08 -0.08)">
      <defs>
       <path id="LiberationSans-53" d="M 3975 1216 
Q 3975 606 3498 271 
Q 3022 -63 2156 -63 
Q 547 -63 291 1056 
L 869 1172 
Q 969 775 1294 589 
Q 1619 403 2178 403 
Q 2756 403 3070 601 
Q 3384 800 3384 1184 
Q 3384 1400 3286 1534 
Q 3188 1669 3009 1756 
Q 2831 1844 2584 1903 
Q 2338 1963 2038 2031 
Q 1516 2147 1245 2262 
Q 975 2378 819 2520 
Q 663 2663 580 2853 
Q 497 3044 497 3291 
Q 497 3856 930 4162 
Q 1363 4469 2169 4469 
Q 2919 4469 3316 4239 
Q 3713 4009 3872 3456 
L 3284 3353 
Q 3188 3703 2916 3861 
Q 2644 4019 2163 4019 
Q 1634 4019 1356 3844 
Q 1078 3669 1078 3322 
Q 1078 3119 1186 2986 
Q 1294 2853 1497 2761 
Q 1700 2669 2306 2534 
Q 2509 2488 2711 2439 
Q 2913 2391 3097 2323 
Q 3281 2256 3442 2165 
Q 3603 2075 3722 1944 
Q 3841 1813 3908 1634 
Q 3975 1456 3975 1216 
z
" transform="scale(0.015625)"/>
      </defs>
      <use xlink:href="#LiberationSans-53"/>
      <use xlink:href="#LiberationSans-70" transform="translate(66.699219 0)"/>
      <use xlink:href="#LiberationSans-69" transform="translate(122.314453 0)"/>
      <use xlink:href="#LiberationSans-64" transform="translate(144.53125 0)"/>
      <use xlink:href="#LiberationSans-65" transform="translate(200.146484 0)"/>
      <use xlink:href="#LiberationSans-72" transform="translate(255.761719 0)"/>
      <use xlink:href="#LiberationSans-20" transform="translate(289.0625 0)"/>
      <use xlink:href="#LiberationSans-46" transform="translate(316.845703 0)"/>
      <use xlink:href="#LiberationSans-61" transform="translate(377.929688 0)"/>
      <use xlink:href="#LiberationSans-72" transform="translate(433.544922 0)"/>
      <use xlink:href="#LiberationSans-6d" transform="translate(466.845703 0)"/>
      <use xlink:href="#LiberationSans-65" transform="translate(550.146484 0)"/>
      <use xlink:href="#LiberationSans-72" transform="translate(605.761719 0)"/>
      <use xlink:href="#LiberationSans-20" transform="translate(639.0625 0)"/>
      <use xlink:href="#LiberationSans-2014" transform="translate(666.845703 0)"/>
      <use xlink:href="#LiberationSans-20" transform="translate(766.845703 0)"/>
      <use xlink:href="#LiberationSans-41" transform="translate(789.128906 0)"/>
      <use xlink:href="#LiberationSans-49" transform="translate(855.828125 0)"/>
     </g>
    </g>
    <g id="patch_23">
     <path d="M 102.434784 82.055 
L 118.434784 82.055 
L 118.434784 76.455 
L 102.434784 76.455 
z
" style="fill: #b1b1b1; stroke: #ffffff; stroke-width: 0.8; stroke-linejoin: miter"/>
    </g>
    <g id="text_17">
     <!-- Spider Farmer — manual (mid · range) -->
     <g transform="translate(124.834784 82.055) scale(0.08 -0.08)">
      <defs>
       <path id="LiberationSans-b7" d="M 760 1394 
L 760 2081 
L 1370 2081 
L 1370 1394 
L 760 1394 
z
" transform="scale(0.015625)"/>
      </defs>
      <use xlink:href="#LiberationSans-53"/>
      <use xlink:href="#LiberationSans-70" transform="translate(66.699219 0)"/>
      <use xlink:href="#LiberationSans-69" transform="translate(122.314453 0)"/>
      <use xlink:href="#LiberationSans-64" transform="translate(144.53125 0)"/>
      <use xlink:href="#LiberationSans-65" transform="translate(200.146484 0)"/>
      <use xlink:href="#LiberationSans-72" transform="translate(255.761719 0)"/>
      <use xlink:href="#LiberationSans-20" transform="translate(289.0625 0)"/>
      <use xlink:href="#LiberationSans-46" transform="translate(316.845703 0)"/>
      <use xlink:href="#LiberationSans-61" transform="translate(377.929688 0)"/>
      <use xlink:href="#LiberationSans-72" transform="translate(433.544922 0)"/>
      <use xlink:href="#LiberationSans-6d" transform="translate(466.845703 0)"/>
      <use xlink:href="#LiberationSans-65" transform="translate(550.146484 0)"/>
      <use xlink:href="#LiberationSans-72" transform="translate(605.761719 0)"/>
      <use xlink:href="#LiberationSans-20" transform="translate(639.0625 0)"/>
      <use xlink:href="#LiberationSans-2014" transform="translate(666.845703 0)"/>
      <use xlink:href="#LiberationSans-20" transform="translate(766.845703 0)"/>
      <use xlink:href="#LiberationSans-6d" transform="translate(794.628906 0)"/>
      <use xlink:href="#LiberationSans-61" transform="translate(877.929688 0)"/>
      <use xlink:href="#LiberationSans-6e" transform="translate(933.544922 0)"/>
      <use xlink:href="#LiberationSans-75" transform="translate(989.160156 0)"/>
      <use xlink:href="#LiberationSans-61" transform="translate(1044.775391 0)"/>
      <use xlink:href="#LiberationSans-6c" transform="translate(1100.390625 0)"/>
      <use xlink:href="#LiberationSans-20" transform="translate(1122.607422 0)"/>
      <use xlink:href="#LiberationSans-28" transform="translate(1150.390625 0)"/>
      <use xlink:href="#LiberationSans-6d" transform="translate(1183.691406 0)"/>
      <use xlink:href="#LiberationSans-69" transform="translate(1266.992188 0)"/>
      <use xlink:href="#LiberationSans-64" transform="translate(1289.208984 0)"/>
      <use xlink:href="#LiberationSans-20" transform="translate(1344.824219 0)"/>
      <use xlink:href="#LiberationSans-b7" transform="translate(1372.607422 0)"/>
      <use xlink:href="#LiberationSans-20" transform="translate(1405.908203 0)"/>
      <use xlink:href="#LiberationSans-72" transform="translate(1433.691406 0)"/>
      <use xlink:href="#LiberationSans-61" transform="translate(1466.992188 0)"/>
      <use xlink:href="#LiberationSans-6e" transform="translate(1522.607422 0)"/>
      <use xlink:href="#LiberationSans-67" transform="translate(1578.222656 0)"/>
      <use xlink:href="#LiberationSans-65" transform="translate(1633.837891 0)"/>
      <use xlink:href="#LiberationSans-29" transform="translate(1689.453125 0)"/>
     </g>
    </g>
    <g id="patch_24">
     <path d="M 278.644784 70.5975 
L 294.644784 70.5975 
L 294.644784 64.9975 
L 278.644784 64.9975 
z
" style="fill: #00658b; opacity: 0.55; stroke: #ffffff; stroke-width: 0.8; stroke-linejoin: miter"/>
    </g>
    <g id="text_18">
     <!-- EcoFlow PowerOcean — AI -->
     <g transform="translate(301.044784 70.5975) scale(0.08 -0.08)">
      <defs>
       <path id="LiberationSans-4f" d="M 4672 2222 
Q 4672 1531 4408 1012 
Q 4144 494 3650 215 
Q 3156 -63 2484 -63 
Q 1806 -63 1314 212 
Q 822 488 562 1008 
Q 303 1528 303 2222 
Q 303 3278 881 3873 
Q 1459 4469 2491 4469 
Q 3163 4469 3656 4201 
Q 4150 3934 4411 3425 
Q 4672 2916 4672 2222 
z
M 4063 2222 
Q 4063 3044 3652 3512 
Q 3241 3981 2491 3981 
Q 1734 3981 1321 3518 
Q 909 3056 909 2222 
Q 909 1394 1326 908 
Q 1744 422 2484 422 
Q 3247 422 3655 892 
Q 4063 1363 4063 2222 
z
" transform="scale(0.015625)"/>
      </defs>
      <use xlink:href="#LiberationSans-45"/>
      <use xlink:href="#LiberationSans-63" transform="translate(66.699219 0)"/>
      <use xlink:href="#LiberationSans-6f" transform="translate(116.699219 0)"/>
      <use xlink:href="#LiberationSans-46" transform="translate(172.314453 0)"/>
      <use xlink:href="#LiberationSans-6c" transform="translate(233.398438 0)"/>
      <use xlink:href="#LiberationSans-6f" transform="translate(255.615234 0)"/>
      <use xlink:href="#LiberationSans-77" transform="translate(311.230469 0)"/>
      <use xlink:href="#LiberationSans-20" transform="translate(383.447266 0)"/>
      <use xlink:href="#LiberationSans-50" transform="translate(411.230469 0)"/>
      <use xlink:href="#LiberationSans-6f" transform="translate(477.929688 0)"/>
      <use xlink:href="#LiberationSans-77" transform="translate(533.544922 0)"/>
      <use xlink:href="#LiberationSans-65" transform="translate(605.761719 0)"/>
      <use xlink:href="#LiberationSans-72" transform="translate(661.376953 0)"/>
      <use xlink:href="#LiberationSans-4f" transform="translate(694.677734 0)"/>
      <use xlink:href="#LiberationSans-63" transform="translate(772.460938 0)"/>
      <use xlink:href="#LiberationSans-65" transform="translate(822.460938 0)"/>
      <use xlink:href="#LiberationSans-61" transform="translate(878.076172 0)"/>
      <use xlink:href="#LiberationSans-6e" transform="translate(933.691406 0)"/>
      <use xlink:href="#LiberationSans-20" transform="translate(989.306641 0)"/>
      <use xlink:href="#LiberationSans-2014" transform="translate(1017.089844 0)"/>
      <use xlink:href="#LiberationSans-20" transform="translate(1117.089844 0)"/>
      <use xlink:href="#LiberationSans-41" transform="translate(1139.373047 0)"/>
      <use xlink:href="#LiberationSans-49" transform="translate(1206.072266 0)"/>
     </g>
    </g>
    <g id="patch_25">
     <path d="M 278.644784 82.055 
L 294.644784 82.055 
L 294.644784 76.455 
L 278.644784 76.455 
z
" style="fill: #b1b1b1; opacity: 0.55; stroke: #ffffff; stroke-width: 0.8; stroke-linejoin: miter"/>
    </g>
    <g id="text_19">
     <!-- EcoFlow PowerOcean — manual (mid · range) -->
     <g transform="translate(301.044784 82.055) scale(0.08 -0.08)">
      <use xlink:href="#LiberationSans-45"/>
      <use xlink:href="#LiberationSans-63" transform="translate(66.699219 0)"/>
      <use xlink:href="#LiberationSans-6f" transform="translate(116.699219 0)"/>
      <use xlink:href="#LiberationSans-46" transform="translate(172.314453 0)"/>
      <use xlink:href="#LiberationSans-6c" transform="translate(233.398438 0)"/>
      <use xlink:href="#LiberationSans-6f" transform="translate(255.615234 0)"/>
      <use xlink:href="#LiberationSans-77" transform="translate(311.230469 0)"/>
      <use xlink:href="#LiberationSans-20" transform="translate(383.447266 0)"/>
      <use xlink:href="#LiberationSans-50" transform="translate(411.230469 0)"/>
      <use xlink:href="#LiberationSans-6f" transform="translate(477.929688 0)"/>
      <use xlink:href="#LiberationSans-77" transform="translate(533.544922 0)"/>
      <use xlink:href="#LiberationSans-65" transform="translate(605.761719 0)"/>
      <use xlink:href="#LiberationSans-72" transform="translate(661.376953 0)"/>
      <use xlink:href="#LiberationSans-4f" transform="translate(694.677734 0)"/>
      <use xlink:href="#LiberationSans-63" transform="translate(772.460938 0)"/>
      <use xlink:href="#LiberationSans-65" transform="translate(822.460938 0)"/>
      <use xlink:href="#LiberationSans-61" transform="translate(878.076172 0)"/>
      <use xlink:href="#LiberationSans-6e" transform="translate(933.691406 0)"/>
      <use xlink:href="#LiberationSans-20" transform="translate(989.306641 0)"/>
      <use xlink:href="#LiberationSans-2014" transform="translate(1017.089844 0)"/>
      <use xlink:href="#LiberationSans-20" transform="translate(1117.089844 0)"/>
      <use xlink:href="#LiberationSans-6d" transform="translate(1144.873047 0)"/>
      <use xlink:href="#LiberationSans-61" transform="translate(1228.173828 0)"/>
      <use xlink:href="#LiberationSans-6e" transform="translate(1283.789062 0)"/>
      <use xlink:href="#LiberationSans-75" transform="translate(1339.404297 0)"/>
      <use xlink:href="#LiberationSans-61" transform="translate(1395.019531 0)"/>
      <use xlink:href="#LiberationSans-6c" transform="translate(1450.634766 0)"/>
      <use xlink:href="#LiberationSans-20" transform="translate(1472.851562 0)"/>
      <use xlink:href="#LiberationSans-28" transform="translate(1500.634766 0)"/>
      <use xlink:href="#LiberationSans-6d" transform="translate(1533.935547 0)"/>
      <use xlink:href="#LiberationSans-69" transform="translate(1617.236328 0)"/>
      <use xlink:href="#LiberationSans-64" transform="translate(1639.453125 0)"/>
      <use xlink:href="#LiberationSans-20" transform="translate(1695.068359 0)"/>
      <use xlink:href="#LiberationSans-b7" transform="translate(1722.851562 0)"/>
      <use xlink:href="#LiberationSans-20" transform="translate(1756.152344 0)"/>
      <use xlink:href="#LiberationSans-72" transform="translate(1783.935547 0)"/>
      <use xlink:href="#LiberationSans-61" transform="translate(1817.236328 0)"/>
      <use xlink:href="#LiberationSans-6e" transform="translate(1872.851562 0)"/>
      <use xlink:href="#LiberationSans-67" transform="translate(1928.466797 0)"/>
      <use xlink:href="#LiberationSans-65" transform="translate(1984.082031 0)"/>
      <use xlink:href="#LiberationSans-29" transform="translate(2039.697266 0)"/>
     </g>
    </g>
   </g>
  </g>
  <g id="axes_2">
   <g id="patch_26">
    <path d="M 566.433405 334.8 
L 710.74375 334.8 
L 710.74375 57.6 
L 566.433405 57.6 
z
" style="fill: #ffffff"/>
   </g>
   <g id="matplotlib.axis_3">
    <g id="xtick_5">
     <g id="line2d_25">
      <path d="M 566.433405 334.8 
L 566.433405 57.6 
" clip-path="url(#pe61205011a)" style="fill: none; stroke-dasharray: 1,1.65; stroke-dashoffset: 0; stroke: #cccccc; stroke-opacity: 0.4"/>
     </g>
     <g id="line2d_26">
      <g>
       <use xlink:href="#md2114f1360" x="566.433405" y="334.8" style="stroke: #000000; stroke-width: 1.25"/>
      </g>
     </g>
     <g id="text_20">
      <!-- 0 -->
      <g transform="translate(563.652936 351.546875) scale(0.1 -0.1)">
       <use xlink:href="#LiberationSans-30"/>
      </g>
     </g>
    </g>
    <g id="xtick_6">
     <g id="line2d_27">
      <path d="M 605.701526 334.8 
L 605.701526 57.6 
" clip-path="url(#pe61205011a)" style="fill: none; stroke-dasharray: 1,1.65; stroke-dashoffset: 0; stroke: #cccccc; stroke-opacity: 0.4"/>
     </g>
     <g id="line2d_28">
      <g>
       <use xlink:href="#md2114f1360" x="605.701526" y="334.8" style="stroke: #000000; stroke-width: 1.25"/>
      </g>
     </g>
     <g id="text_21">
      <!-- 5 -->
      <g transform="translate(602.921057 351.546875) scale(0.1 -0.1)">
       <use xlink:href="#LiberationSans-35"/>
      </g>
     </g>
    </g>
    <g id="xtick_7">
     <g id="line2d_29">
      <path d="M 644.969647 334.8 
L 644.969647 57.6 
" clip-path="url(#pe61205011a)" style="fill: none; stroke-dasharray: 1,1.65; stroke-dashoffset: 0; stroke: #cccccc; stroke-opacity: 0.4"/>
     </g>
     <g id="line2d_30">
      <g>
       <use xlink:href="#md2114f1360" x="644.969647" y="334.8" style="stroke: #000000; stroke-width: 1.25"/>
      </g>
     </g>
     <g id="text_22">
      <!-- 10 -->
      <g transform="translate(639.40871 351.546875) scale(0.1 -0.1)">
       <use xlink:href="#LiberationSans-31"/>
       <use xlink:href="#LiberationSans-30" transform="translate(55.615234 0)"/>
      </g>
     </g>
    </g>
    <g id="xtick_8">
     <g id="line2d_31">
      <path d="M 684.237768 334.8 
L 684.237768 57.6 
" clip-path="url(#pe61205011a)" style="fill: none; stroke-dasharray: 1,1.65; stroke-dashoffset: 0; stroke: #cccccc; stroke-opacity: 0.4"/>
     </g>
     <g id="line2d_32">
      <g>
       <use xlink:href="#md2114f1360" x="684.237768" y="334.8" style="stroke: #000000; stroke-width: 1.25"/>
      </g>
     </g>
     <g id="text_23">
      <!-- 15 -->
      <g transform="translate(678.676831 351.546875) scale(0.1 -0.1)">
       <use xlink:href="#LiberationSans-31"/>
       <use xlink:href="#LiberationSans-35" transform="translate(55.615234 0)"/>
      </g>
     </g>
    </g>
    <g id="text_24">
     <!-- Compression -->
     <g transform="translate(609.134671 364.86875) scale(0.1 -0.1)">
      <use xlink:href="#LiberationSans-43"/>
      <use xlink:href="#LiberationSans-6f" transform="translate(72.216797 0)"/>
      <use xlink:href="#LiberationSans-6d" transform="translate(127.832031 0)"/>
      <use xlink:href="#LiberationSans-70" transform="translate(211.132812 0)"/>
      <use xlink:href="#LiberationSans-72" transform="translate(266.748047 0)"/>
      <use xlink:href="#LiberationSans-65" transform="translate(300.048828 0)"/>
      <use xlink:href="#LiberationSans-73" transform="translate(355.664062 0)"/>
      <use xlink:href="#LiberationSans-73" transform="translate(405.664062 0)"/>
      <use xlink:href="#LiberationSans-69" transform="translate(455.664062 0)"/>
      <use xlink:href="#LiberationSans-6f" transform="translate(477.880859 0)"/>
      <use xlink:href="#LiberationSans-6e" transform="translate(533.496094 0)"/>
     </g>
     <!-- (manual / AI) -->
     <g transform="translate(610.244828 375.64) scale(0.1 -0.1)">
      <defs>
       <path id="LiberationSans-2f" d="M 0 -63 
L 1284 4638 
L 1778 4638 
L 506 -63 
L 0 -63 
z
" transform="scale(0.015625)"/>
      </defs>
      <use xlink:href="#LiberationSans-28"/>
      <use xlink:href="#LiberationSans-6d" transform="translate(33.300781 0)"/>
      <use xlink:href="#LiberationSans-61" transform="translate(116.601562 0)"/>
      <use xlink:href="#LiberationSans-6e" transform="translate(172.216797 0)"/>
      <use xlink:href="#LiberationSans-75" transform="translate(227.832031 0)"/>
      <use xlink:href="#LiberationSans-61" transform="translate(283.447266 0)"/>
      <use xlink:href="#LiberationSans-6c" transform="translate(339.0625 0)"/>
      <use xlink:href="#LiberationSans-20" transform="translate(361.279297 0)"/>
      <use xlink:href="#LiberationSans-2f" transform="translate(389.0625 0)"/>
      <use xlink:href="#LiberationSans-20" transform="translate(416.845703 0)"/>
      <use xlink:href="#LiberationSans-41" transform="translate(439.128906 0)"/>
      <use xlink:href="#LiberationSans-49" transform="translate(505.828125 0)"/>
      <use xlink:href="#LiberationSans-29" transform="translate(533.611328 0)"/>
     </g>
    </g>
   </g>
   <g id="matplotlib.axis_4">
    <g id="ytick_9">
     <g id="line2d_33">
      <g>
       <use xlink:href="#md7fa565b31" x="566.433405" y="85.023529" style="stroke: #000000; stroke-width: 1.25"/>
      </g>
     </g>
     <g id="text_25">
      <!-- Spider -->
      <g transform="translate(535.25489 84.245404) scale(0.075 -0.075)">
       <use xlink:href="#LiberationSans-53"/>
       <use xlink:href="#LiberationSans-70" transform="translate(66.699219 0)"/>
       <use xlink:href="#LiberationSans-69" transform="translate(122.314453 0)"/>
       <use xlink:href="#LiberationSans-64" transform="translate(144.53125 0)"/>
       <use xlink:href="#LiberationSans-65" transform="translate(200.146484 0)"/>
       <use xlink:href="#LiberationSans-72" transform="translate(255.761719 0)"/>
      </g>
      <!-- Discovery -->
      <g transform="translate(524.011921 92.323842) scale(0.075 -0.075)">
       <use xlink:href="#LiberationSans-44"/>
       <use xlink:href="#LiberationSans-69" transform="translate(72.216797 0)"/>
       <use xlink:href="#LiberationSans-73" transform="translate(94.433594 0)"/>
       <use xlink:href="#LiberationSans-63" transform="translate(144.433594 0)"/>
       <use xlink:href="#LiberationSans-6f" transform="translate(194.433594 0)"/>
       <use xlink:href="#LiberationSans-76" transform="translate(250.048828 0)"/>
       <use xlink:href="#LiberationSans-65" transform="translate(300.048828 0)"/>
       <use xlink:href="#LiberationSans-72" transform="translate(355.664062 0)"/>
       <use xlink:href="#LiberationSans-79" transform="translate(388.964844 0)"/>
      </g>
     </g>
    </g>
    <g id="ytick_10">
     <g id="line2d_34">
      <g>
       <use xlink:href="#md7fa565b31" x="566.433405" y="122.082353" style="stroke: #000000; stroke-width: 1.25"/>
      </g>
     </g>
     <g id="text_26">
      <!-- Spider -->
      <g transform="translate(535.25489 121.304228) scale(0.075 -0.075)">
       <use xlink:href="#LiberationSans-53"/>
       <use xlink:href="#LiberationSans-70" transform="translate(66.699219 0)"/>
       <use xlink:href="#LiberationSans-69" transform="translate(122.314453 0)"/>
       <use xlink:href="#LiberationSans-64" transform="translate(144.53125 0)"/>
       <use xlink:href="#LiberationSans-65" transform="translate(200.146484 0)"/>
       <use xlink:href="#LiberationSans-72" transform="translate(255.761719 0)"/>
      </g>
      <!-- Build -->
      <g transform="translate(540.256452 129.382665) scale(0.075 -0.075)">
       <use xlink:href="#LiberationSans-42"/>
       <use xlink:href="#LiberationSans-75" transform="translate(66.699219 0)"/>
       <use xlink:href="#LiberationSans-69" transform="translate(122.314453 0)"/>
       <use xlink:href="#LiberationSans-6c" transform="translate(144.53125 0)"/>
       <use xlink:href="#LiberationSans-64" transform="translate(166.748047 0)"/>
      </g>
     </g>
    </g>
    <g id="ytick_11">
     <g id="line2d_35">
      <g>
       <use xlink:href="#md7fa565b31" x="566.433405" y="159.141176" style="stroke: #000000; stroke-width: 1.25"/>
      </g>
     </g>
     <g id="text_27">
      <!-- Spider -->
      <g transform="translate(535.25489 158.363051) scale(0.075 -0.075)">
       <use xlink:href="#LiberationSans-53"/>
       <use xlink:href="#LiberationSans-70" transform="translate(66.699219 0)"/>
       <use xlink:href="#LiberationSans-69" transform="translate(122.314453 0)"/>
       <use xlink:href="#LiberationSans-64" transform="translate(144.53125 0)"/>
       <use xlink:href="#LiberationSans-65" transform="translate(200.146484 0)"/>
       <use xlink:href="#LiberationSans-72" transform="translate(255.761719 0)"/>
      </g>
      <!-- Debug -->
      <g transform="translate(534.834186 166.441489) scale(0.075 -0.075)">
       <use xlink:href="#LiberationSans-44"/>
       <use xlink:href="#LiberationSans-65" transform="translate(72.216797 0)"/>
       <use xlink:href="#LiberationSans-62" transform="translate(127.832031 0)"/>
       <use xlink:href="#LiberationSans-75" transform="translate(183.447266 0)"/>
       <use xlink:href="#LiberationSans-67" transform="translate(239.0625 0)"/>
      </g>
     </g>
    </g>
    <g id="ytick_12">
     <g id="line2d_36">
      <g>
       <use xlink:href="#md7fa565b31" x="566.433405" y="196.2" style="stroke: #000000; stroke-width: 1.25"/>
      </g>
     </g>
     <g id="text_28">
      <!-- Spider -->
      <g transform="translate(535.25489 195.421875) scale(0.075 -0.075)">
       <use xlink:href="#LiberationSans-53"/>
       <use xlink:href="#LiberationSans-70" transform="translate(66.699219 0)"/>
       <use xlink:href="#LiberationSans-69" transform="translate(122.314453 0)"/>
       <use xlink:href="#LiberationSans-64" transform="translate(144.53125 0)"/>
       <use xlink:href="#LiberationSans-65" transform="translate(200.146484 0)"/>
       <use xlink:href="#LiberationSans-72" transform="translate(255.761719 0)"/>
      </g>
      <!-- Validation -->
      <g transform="translate(524.547468 203.500312) scale(0.075 -0.075)">
       <use xlink:href="#LiberationSans-56"/>
       <use xlink:href="#LiberationSans-61" transform="translate(59.324219 0)"/>
       <use xlink:href="#LiberationSans-6c" transform="translate(114.939453 0)"/>
       <use xlink:href="#LiberationSans-69" transform="translate(137.15625 0)"/>
       <use xlink:href="#LiberationSans-64" transform="translate(159.373047 0)"/>
       <use xlink:href="#LiberationSans-61" transform="translate(214.988281 0)"/>
       <use xlink:href="#LiberationSans-74" transform="translate(270.603516 0)"/>
       <use xlink:href="#LiberationSans-69" transform="translate(298.386719 0)"/>
       <use xlink:href="#LiberationSans-6f" transform="translate(320.603516 0)"/>
       <use xlink:href="#LiberationSans-6e" transform="translate(376.21875 0)"/>
      </g>
     </g>
    </g>
    <g id="ytick_13">
     <g id="line2d_37">
      <g>
       <use xlink:href="#md7fa565b31" x="566.433405" y="233.258824" style="stroke: #000000; stroke-width: 1.25"/>
      </g>
     </g>
     <g id="text_29">
      <!-- EcoFlow -->
      <g transform="translate(528.175593 232.480699) scale(0.075 -0.075)">
       <use xlink:href="#LiberationSans-45"/>
       <use xlink:href="#LiberationSans-63" transform="translate(66.699219 0)"/>
       <use xlink:href="#LiberationSans-6f" transform="translate(116.699219 0)"/>
       <use xlink:href="#LiberationSans-46" transform="translate(172.314453 0)"/>
       <use xlink:href="#LiberationSans-6c" transform="translate(233.398438 0)"/>
       <use xlink:href="#LiberationSans-6f" transform="translate(255.615234 0)"/>
       <use xlink:href="#LiberationSans-77" transform="translate(311.230469 0)"/>
      </g>
      <!-- Discovery -->
      <g transform="translate(524.011921 240.559136) scale(0.075 -0.075)">
       <use xlink:href="#LiberationSans-44"/>
       <use xlink:href="#LiberationSans-69" transform="translate(72.216797 0)"/>
       <use xlink:href="#LiberationSans-73" transform="translate(94.433594 0)"/>
       <use xlink:href="#LiberationSans-63" transform="translate(144.433594 0)"/>
       <use xlink:href="#LiberationSans-6f" transform="translate(194.433594 0)"/>
       <use xlink:href="#LiberationSans-76" transform="translate(250.048828 0)"/>
       <use xlink:href="#LiberationSans-65" transform="translate(300.048828 0)"/>
       <use xlink:href="#LiberationSans-72" transform="translate(355.664062 0)"/>
       <use xlink:href="#LiberationSans-79" transform="translate(388.964844 0)"/>
      </g>
     </g>
    </g>
    <g id="ytick_14">
     <g id="line2d_38">
      <g>
       <use xlink:href="#md7fa565b31" x="566.433405" y="270.317647" style="stroke: #000000; stroke-width: 1.25"/>
      </g>
     </g>
     <g id="text_30">
      <!-- EcoFlow -->
      <g transform="translate(528.175593 269.539522) scale(0.075 -0.075)">
       <use xlink:href="#LiberationSans-45"/>
       <use xlink:href="#LiberationSans-63" transform="translate(66.699219 0)"/>
       <use xlink:href="#LiberationSans-6f" transform="translate(116.699219 0)"/>
       <use xlink:href="#LiberationSans-46" transform="translate(172.314453 0)"/>
       <use xlink:href="#LiberationSans-6c" transform="translate(233.398438 0)"/>
       <use xlink:href="#LiberationSans-6f" transform="translate(255.615234 0)"/>
       <use xlink:href="#LiberationSans-77" transform="translate(311.230469 0)"/>
      </g>
      <!-- Build -->
      <g transform="translate(540.256452 277.61796) scale(0.075 -0.075)">
       <use xlink:href="#LiberationSans-42"/>
       <use xlink:href="#LiberationSans-75" transform="translate(66.699219 0)"/>
       <use xlink:href="#LiberationSans-69" transform="translate(122.314453 0)"/>
       <use xlink:href="#LiberationSans-6c" transform="translate(144.53125 0)"/>
       <use xlink:href="#LiberationSans-64" transform="translate(166.748047 0)"/>
      </g>
     </g>
    </g>
    <g id="ytick_15">
     <g id="line2d_39">
      <g>
       <use xlink:href="#md7fa565b31" x="566.433405" y="307.376471" style="stroke: #000000; stroke-width: 1.25"/>
      </g>
     </g>
     <g id="text_31">
      <!-- EcoFlow -->
      <g transform="translate(528.175593 306.598346) scale(0.075 -0.075)">
       <use xlink:href="#LiberationSans-45"/>
       <use xlink:href="#LiberationSans-63" transform="translate(66.699219 0)"/>
       <use xlink:href="#LiberationSans-6f" transform="translate(116.699219 0)"/>
       <use xlink:href="#LiberationSans-46" transform="translate(172.314453 0)"/>
       <use xlink:href="#LiberationSans-6c" transform="translate(233.398438 0)"/>
       <use xlink:href="#LiberationSans-6f" transform="translate(255.615234 0)"/>
       <use xlink:href="#LiberationSans-77" transform="translate(311.230469 0)"/>
      </g>
      <!-- Debug -->
      <g transform="translate(534.834186 314.676783) scale(0.075 -0.075)">
       <use xlink:href="#LiberationSans-44"/>
       <use xlink:href="#LiberationSans-65" transform="translate(72.216797 0)"/>
       <use xlink:href="#LiberationSans-62" transform="translate(127.832031 0)"/>
       <use xlink:href="#LiberationSans-75" transform="translate(183.447266 0)"/>
       <use xlink:href="#LiberationSans-67" transform="translate(239.0625 0)"/>
      </g>
     </g>
    </g>
   </g>
   <g id="patch_27">
    <path d="M 566.433405 70.2 
L 684.237768 70.2 
L 684.237768 99.847059 
L 566.433405 99.847059 
z
" clip-path="url(#pe61205011a)" style="fill: #00658b; opacity: 0.85; stroke: #ffffff; stroke-width: 0.6; stroke-linejoin: miter"/>
   </g>
   <g id="patch_28">
    <path d="M 566.433405 107.258824 
L 618.7909 107.258824 
L 618.7909 136.905882 
L 566.433405 136.905882 
z
" clip-path="url(#pe61205011a)" style="fill: #00658b; opacity: 0.85; stroke: #ffffff; stroke-width: 0.6; stroke-linejoin: miter"/>
   </g>
   <g id="patch_29">
    <path d="M 566.433405 144.317647 
L 629.262399 144.317647 
L 629.262399 173.964706 
L 566.433405 173.964706 
z
" clip-path="url(#pe61205011a)" style="fill: #00658b; opacity: 0.85; stroke: #ffffff; stroke-width: 0.6; stroke-linejoin: miter"/>
   </g>
   <g id="patch_30">
    <path d="M 566.433405 181.376471 
L 592.612153 181.376471 
L 592.612153 211.023529 
L 566.433405 211.023529 
z
" clip-path="url(#pe61205011a)" style="fill: #00658b; opacity: 0.85; stroke: #ffffff; stroke-width: 0.6; stroke-linejoin: miter"/>
   </g>
   <g id="patch_31">
    <path d="M 566.433405 218.435294 
L 697.327142 218.435294 
L 697.327142 248.082353 
L 566.433405 248.082353 
z
" clip-path="url(#pe61205011a)" style="fill: #82a043; opacity: 0.85; stroke: #ffffff; stroke-width: 0.6; stroke-linejoin: miter"/>
   </g>
   <g id="patch_32">
    <path d="M 566.433405 255.494118 
L 703.871829 255.494118 
L 703.871829 285.141176 
L 566.433405 285.141176 
z
" clip-path="url(#pe61205011a)" style="fill: #82a043; opacity: 0.85; stroke: #ffffff; stroke-width: 0.6; stroke-linejoin: miter"/>
   </g>
   <g id="patch_33">
    <path d="M 566.433405 292.552941 
L 658.059021 292.552941 
L 658.059021 322.2 
L 566.433405 322.2 
z
" clip-path="url(#pe61205011a)" style="fill: #82a043; opacity: 0.85; stroke: #ffffff; stroke-width: 0.6; stroke-linejoin: miter"/>
   </g>
   <g id="patch_34">
    <path d="M 566.433405 334.8 
L 566.433405 57.6 
" style="fill: none; stroke: #262626; stroke-width: 1.25; stroke-linejoin: miter; stroke-linecap: square"/>
   </g>
   <g id="patch_35">
    <path d="M 566.433405 334.8 
L 710.74375 334.8 
" style="fill: none; stroke: #262626; stroke-width: 1.25; stroke-linejoin: miter; stroke-linecap: square"/>
   </g>
   <g id="text_32">
    <!-- 15× -->
    <g style="fill: #333333" transform="translate(687.379218 87.092279) scale(0.08 -0.08)">
     <defs>
      <path id="LiberationSans-d7" d="M 444 1031 
L 1550 2138 
L 450 3238 
L 775 3559 
L 1869 2456 
L 2963 3553 
L 3291 3225 
L 2197 2138 
L 3297 1038 
L 2978 709 
L 1875 1813 
L 763 703 
L 444 1031 
z
" transform="scale(0.015625)"/>
     </defs>
     <use xlink:href="#LiberationSans-31"/>
     <use xlink:href="#LiberationSans-35" transform="translate(55.615234 0)"/>
     <use xlink:href="#LiberationSans-d7" transform="translate(111.230469 0)"/>
    </g>
   </g>
   <g id="text_33">
    <!-- 7× -->
    <g style="fill: #333333" transform="translate(621.93235 124.151103) scale(0.08 -0.08)">
     <use xlink:href="#LiberationSans-37"/>
     <use xlink:href="#LiberationSans-d7" transform="translate(55.615234 0)"/>
    </g>
   </g>
   <g id="text_34">
    <!-- 8× -->
    <g style="fill: #333333" transform="translate(632.403849 161.209926) scale(0.08 -0.08)">
     <defs>
      <path id="LiberationSans-38" d="M 3281 1228 
Q 3281 619 2893 278 
Q 2506 -63 1781 -63 
Q 1075 -63 676 271 
Q 278 606 278 1222 
Q 278 1653 525 1947 
Q 772 2241 1156 2303 
L 1156 2316 
Q 797 2400 589 2681 
Q 381 2963 381 3341 
Q 381 3844 757 4156 
Q 1134 4469 1769 4469 
Q 2419 4469 2795 4162 
Q 3172 3856 3172 3334 
Q 3172 2956 2962 2675 
Q 2753 2394 2391 2322 
L 2391 2309 
Q 2813 2241 3047 1952 
Q 3281 1663 3281 1228 
z
M 2588 3303 
Q 2588 4050 1769 4050 
Q 1372 4050 1164 3862 
Q 956 3675 956 3303 
Q 956 2925 1170 2726 
Q 1384 2528 1775 2528 
Q 2172 2528 2380 2711 
Q 2588 2894 2588 3303 
z
M 2697 1281 
Q 2697 1691 2453 1898 
Q 2209 2106 1769 2106 
Q 1341 2106 1100 1882 
Q 859 1659 859 1269 
Q 859 359 1788 359 
Q 2247 359 2472 579 
Q 2697 800 2697 1281 
z
" transform="scale(0.015625)"/>
     </defs>
     <use xlink:href="#LiberationSans-38"/>
     <use xlink:href="#LiberationSans-d7" transform="translate(55.615234 0)"/>
    </g>
   </g>
   <g id="text_35">
    <!-- 3× -->
    <g style="fill: #333333" transform="translate(595.753602 198.26875) scale(0.08 -0.08)">
     <use xlink:href="#LiberationSans-33"/>
     <use xlink:href="#LiberationSans-d7" transform="translate(55.615234 0)"/>
    </g>
   </g>
   <g id="text_36">
    <!-- 17× -->
    <g style="fill: #333333" transform="translate(700.468592 235.327574) scale(0.08 -0.08)">
     <use xlink:href="#LiberationSans-31"/>
     <use xlink:href="#LiberationSans-37" transform="translate(55.615234 0)"/>
     <use xlink:href="#LiberationSans-d7" transform="translate(111.230469 0)"/>
    </g>
   </g>
   <g id="text_37">
    <!-- 18× -->
    <g style="fill: #333333" transform="translate(707.013279 272.386397) scale(0.08 -0.08)">
     <use xlink:href="#LiberationSans-31"/>
     <use xlink:href="#LiberationSans-38" transform="translate(55.615234 0)"/>
     <use xlink:href="#LiberationSans-d7" transform="translate(111.230469 0)"/>
    </g>
   </g>
   <g id="text_38">
    <!-- 12× -->
    <g style="fill: #333333" transform="translate(661.200471 309.445221) scale(0.08 -0.08)">
     <use xlink:href="#LiberationSans-31"/>
     <use xlink:href="#LiberationSans-32" transform="translate(55.615234 0)"/>
     <use xlink:href="#LiberationSans-d7" transform="translate(111.230469 0)"/>
    </g>
   </g>
   <g id="text_39">
    <!-- Asymmetric collapse -->
    <g style="fill: #666666" transform="translate(592.745609 51.6) scale(0.1 -0.1)">
     <use xlink:href="#LiberationSans-41"/>
     <use xlink:href="#LiberationSans-73" transform="translate(66.699219 0)"/>
     <use xlink:href="#LiberationSans-79" transform="translate(116.699219 0)"/>
     <use xlink:href="#LiberationSans-6d" transform="translate(166.699219 0)"/>
     <use xlink:href="#LiberationSans-6d" transform="translate(250 0)"/>
     <use xlink:href="#LiberationSans-65" transform="translate(333.300781 0)"/>
     <use xlink:href="#LiberationSans-74" transform="translate(388.916016 0)"/>
     <use xlink:href="#LiberationSans-72" transform="translate(416.699219 0)"/>
     <use xlink:href="#LiberationSans-69" transform="translate(450 0)"/>
     <use xlink:href="#LiberationSans-63" transform="translate(472.216797 0)"/>
     <use xlink:href="#LiberationSans-20" transform="translate(522.216797 0)"/>
     <use xlink:href="#LiberationSans-63" transform="translate(550 0)"/>
     <use xlink:href="#LiberationSans-6f" transform="translate(600 0)"/>
     <use xlink:href="#LiberationSans-6c" transform="translate(655.615234 0)"/>
     <use xlink:href="#LiberationSans-6c" transform="translate(677.832031 0)"/>
     <use xlink:href="#LiberationSans-61" transform="translate(700.048828 0)"/>
     <use xlink:href="#LiberationSans-70" transform="translate(755.664062 0)"/>
     <use xlink:href="#LiberationSans-73" transform="translate(811.279297 0)"/>
     <use xlink:href="#LiberationSans-65" transform="translate(861.279297 0)"/>
    </g>
   </g>
  </g>
  <g id="text_40">
   <!-- Figure 10 — Stage-by-stage effort gap (sources: §3.7, §4.7) -->
   <g style="fill: #666666" transform="translate(219.423828 15.171562) scale(0.11 -0.11)">
    <defs>
     <path id="LiberationSans-a7" d="M 1838 4638 
Q 2378 4638 2711 4430 
Q 3044 4222 3128 3825 
L 2625 3763 
Q 2541 4231 1838 4231 
Q 1447 4231 1245 4107 
Q 1044 3984 1044 3763 
Q 1044 3613 1137 3503 
Q 1231 3394 1404 3312 
Q 1578 3231 1984 3134 
Q 2444 3025 2687 2895 
Q 2931 2766 3065 2581 
Q 3200 2397 3200 2144 
Q 3200 1834 3014 1600 
Q 2828 1366 2516 1291 
Q 2866 1141 3023 939 
Q 3181 738 3181 453 
Q 3181 -9 2820 -273 
Q 2459 -538 1803 -538 
Q 1150 -538 808 -330 
Q 466 -122 359 313 
L 863 409 
Q 925 128 1137 0 
Q 1350 -128 1803 -128 
Q 2228 -128 2454 9 
Q 2681 147 2681 403 
Q 2681 581 2578 701 
Q 2475 822 2283 912 
Q 2091 1003 1619 1119 
Q 1013 1259 745 1503 
Q 478 1747 478 2097 
Q 478 2375 670 2606 
Q 863 2838 1191 2931 
Q 891 3031 717 3240 
Q 544 3450 544 3719 
Q 544 4153 873 4395 
Q 1203 4638 1838 4638 
z
M 2706 2072 
Q 2706 2297 2489 2459 
Q 2272 2622 1722 2750 
Q 1381 2731 1179 2565 
Q 978 2400 978 2138 
Q 978 1984 1070 1870 
Q 1163 1756 1336 1672 
Q 1509 1588 1913 1484 
Q 2284 1491 2495 1648 
Q 2706 1806 2706 2072 
z
" transform="scale(0.015625)"/>
     <path id="LiberationSans-2c" d="M 1203 684 
L 1203 159 
Q 1203 -172 1143 -394 
Q 1084 -616 959 -819 
L 575 -819 
Q 869 -394 869 0 
L 594 0 
L 594 684 
L 1203 684 
z
" transform="scale(0.015625)"/>
    </defs>
    <use xlink:href="#LiberationSans-46"/>
    <use xlink:href="#LiberationSans-69" transform="translate(61.083984 0)"/>
    <use xlink:href="#LiberationSans-67" transform="translate(83.300781 0)"/>
    <use xlink:href="#LiberationSans-75" transform="translate(138.916016 0)"/>
    <use xlink:href="#LiberationSans-72" transform="translate(194.53125 0)"/>
    <use xlink:href="#LiberationSans-65" transform="translate(227.832031 0)"/>
    <use xlink:href="#LiberationSans-20" transform="translate(283.447266 0)"/>
    <use xlink:href="#LiberationSans-31" transform="translate(311.230469 0)"/>
    <use xlink:href="#LiberationSans-30" transform="translate(366.845703 0)"/>
    <use xlink:href="#LiberationSans-20" transform="translate(422.460938 0)"/>
    <use xlink:href="#LiberationSans-2014" transform="translate(450.244141 0)"/>
    <use xlink:href="#LiberationSans-20" transform="translate(550.244141 0)"/>
    <use xlink:href="#LiberationSans-53" transform="translate(578.027344 0)"/>
    <use xlink:href="#LiberationSans-74" transform="translate(644.726562 0)"/>
    <use xlink:href="#LiberationSans-61" transform="translate(672.509766 0)"/>
    <use xlink:href="#LiberationSans-67" transform="translate(728.125 0)"/>
    <use xlink:href="#LiberationSans-65" transform="translate(783.740234 0)"/>
    <use xlink:href="#LiberationSans-2d" transform="translate(839.355469 0)"/>
    <use xlink:href="#LiberationSans-62" transform="translate(872.65625 0)"/>
    <use xlink:href="#LiberationSans-79" transform="translate(928.271484 0)"/>
    <use xlink:href="#LiberationSans-2d" transform="translate(978.271484 0)"/>
    <use xlink:href="#LiberationSans-73" transform="translate(1011.572266 0)"/>
    <use xlink:href="#LiberationSans-74" transform="translate(1061.572266 0)"/>
    <use xlink:href="#LiberationSans-61" transform="translate(1089.355469 0)"/>
    <use xlink:href="#LiberationSans-67" transform="translate(1144.970703 0)"/>
    <use xlink:href="#LiberationSans-65" transform="translate(1200.585938 0)"/>
    <use xlink:href="#LiberationSans-20" transform="translate(1256.201172 0)"/>
    <use xlink:href="#LiberationSans-65" transform="translate(1283.984375 0)"/>
    <use xlink:href="#LiberationSans-66" transform="translate(1339.599609 0)"/>
    <use xlink:href="#LiberationSans-66" transform="translate(1365.632812 0)"/>
    <use xlink:href="#LiberationSans-6f" transform="translate(1393.416016 0)"/>
    <use xlink:href="#LiberationSans-72" transform="translate(1449.03125 0)"/>
    <use xlink:href="#LiberationSans-74" transform="translate(1482.332031 0)"/>
    <use xlink:href="#LiberationSans-20" transform="translate(1510.115234 0)"/>
    <use xlink:href="#LiberationSans-67" transform="translate(1537.898438 0)"/>
    <use xlink:href="#LiberationSans-61" transform="translate(1593.513672 0)"/>
    <use xlink:href="#LiberationSans-70" transform="translate(1649.128906 0)"/>
    <use xlink:href="#LiberationSans-20" transform="translate(1704.744141 0)"/>
    <use xlink:href="#LiberationSans-28" transform="translate(1732.527344 0)"/>
    <use xlink:href="#LiberationSans-73" transform="translate(1765.828125 0)"/>
    <use xlink:href="#LiberationSans-6f" transform="translate(1815.828125 0)"/>
    <use xlink:href="#LiberationSans-75" transform="translate(1871.443359 0)"/>
    <use xlink:href="#LiberationSans-72" transform="translate(1927.058594 0)"/>
    <use xlink:href="#LiberationSans-63" transform="translate(1960.359375 0)"/>
    <use xlink:href="#LiberationSans-65" transform="translate(2010.359375 0)"/>
    <use xlink:href="#LiberationSans-73" transform="translate(2065.974609 0)"/>
    <use xlink:href="#LiberationSans-3a" transform="translate(2115.974609 0)"/>
    <use xlink:href="#LiberationSans-20" transform="translate(2143.757812 0)"/>
    <use xlink:href="#LiberationSans-a7" transform="translate(2171.541016 0)"/>
    <use xlink:href="#LiberationSans-33" transform="translate(2227.15625 0)"/>
    <use xlink:href="#LiberationSans-2e" transform="translate(2282.771484 0)"/>
    <use xlink:href="#LiberationSans-37" transform="translate(2310.554688 0)"/>
    <use xlink:href="#LiberationSans-2c" transform="translate(2366.169922 0)"/>
    <use xlink:href="#LiberationSans-20" transform="translate(2393.953125 0)"/>
    <use xlink:href="#LiberationSans-a7" transform="translate(2421.736328 0)"/>
    <use xlink:href="#LiberationSans-34" transform="translate(2477.351562 0)"/>
    <use xlink:href="#LiberationSans-2e" transform="translate(2532.966797 0)"/>
    <use xlink:href="#LiberationSans-37" transform="translate(2560.75 0)"/>
    <use xlink:href="#LiberationSans-29" transform="translate(2616.365234 0)"/>
   </g>
  </g>
 </g>
 <defs>
  <clipPath id="p3acac60ce8">
   <rect x="41.14375" y="57.6" width="432.931034" height="277.2"/>
  </clipPath>
  <clipPath id="pe61205011a">
   <rect x="566.433405" y="57.6" width="144.310345" height="277.2"/>
  </clipPath>
 </defs>
</svg>
