<?xml version="1.0" encoding="utf-8" standalone="no"?>
<!DOCTYPE svg PUBLIC "-//W3C//DTD SVG 1.1//EN"
  "http://www.w3.org/Graphics/SVG/1.1/DTD/svg11.dtd">
<svg xmlns:xlink="http://www.w3.org/1999/xlink" width="730.89379pt" height="375.54375pt" viewBox="0 0 730.89379 375.54375" xmlns="http://www.w3.org/2000/svg" version="1.1">
 <metadata>
  <rdf:RDF xmlns:dc="http://purl.org/dc/elements/1.1/" xmlns:cc="http://creativecommons.org/ns#" xmlns:rdf="http://www.w3.org/1999/02/22-rdf-syntax-ns#">
   <cc:Work>
    <dc:type rdf:resource="http://purl.org/dc/dcmitype/StillImage"/>
    <dc:date>2026-05-01T22:53:35.302085</dc:date>
    <dc:format>image/svg+xml</dc:format>
    <dc:creator>
     <cc:Agent>
      <dc:title>Matplotlib v3.10.9, https://matplotlib.org/</dc:title>
     </cc:Agent>
    </dc:creator>
   </cc:Work>
  </rdf:RDF>
 </metadata>
 <defs>
  <style type="text/css">*{stroke-linejoin: round; stroke-linecap: butt}</style>
 </defs>
 <g id="figure_1">
  <g id="patch_1">
   <path d="M 0 375.54375 
L 730.89379 375.54375 
L 730.89379 0 
L 0 0 
z
" style="fill: #ffffff"/>
  </g>
  <g id="axes_1">
   <g id="patch_2">
    <path d="M 51.704688 331.2 
L 438.553427 331.2 
L 438.553427 54 
L 51.704688 54 
z
" style="fill: #ffffff"/>
   </g>
   <g id="matplotlib.axis_1">
    <g id="xtick_1">
     <g id="line2d_1">
      <defs>
       <path id="md376efa723" d="M 0 0 
L 0 6 
" style="stroke: #000000; stroke-width: 1.25"/>
      </defs>
      <g>
       <use xlink:href="#md376efa723" x="71.291965" y="336.2" style="stroke: #000000; stroke-width: 1.25"/>
      </g>
     </g>
     <g id="text_1">
      <!-- 0 -->
      <g transform="translate(68.511497 352.946875) scale(0.1 -0.1)">
       <defs>
        <path id="LiberationSans-30" d="M 3309 2203 
Q 3309 1100 2920 518 
Q 2531 -63 1772 -63 
Q 1013 -63 631 515 
Q 250 1094 250 2203 
Q 250 3338 620 3903 
Q 991 4469 1791 4469 
Q 2569 4469 2939 3897 
Q 3309 3325 3309 2203 
z
M 2738 2203 
Q 2738 3156 2517 3584 
Q 2297 4013 1791 4013 
Q 1272 4013 1045 3591 
Q 819 3169 819 2203 
Q 819 1266 1048 831 
Q 1278 397 1778 397 
Q 2275 397 2506 840 
Q 2738 1284 2738 2203 
z
" transform="scale(0.015625)"/>
       </defs>
       <use xlink:href="#LiberationSans-30"/>
      </g>
     </g>
    </g>
    <g id="xtick_2">
     <g id="line2d_2">
      <g>
       <use xlink:href="#md376efa723" x="120.26016" y="336.2" style="stroke: #000000; stroke-width: 1.25"/>
      </g>
     </g>
     <g id="text_2">
      <!-- 1 -->
      <g transform="translate(117.479692 352.946875) scale(0.1 -0.1)">
       <defs>
        <path id="LiberationSans-31" d="M 488 0 
L 488 478 
L 1609 478 
L 1609 3866 
L 616 3156 
L 616 3688 
L 1656 4403 
L 2175 4403 
L 2175 478 
L 3247 478 
L 3247 0 
L 488 0 
z
" transform="scale(0.015625)"/>
       </defs>
       <use xlink:href="#LiberationSans-31"/>
      </g>
     </g>
    </g>
    <g id="xtick_3">
     <g id="line2d_3">
      <g>
       <use xlink:href="#md376efa723" x="169.228355" y="336.2" style="stroke: #000000; stroke-width: 1.25"/>
      </g>
     </g>
     <g id="text_3">
      <!-- 2 -->
      <g transform="translate(166.447886 352.946875) scale(0.1 -0.1)">
       <defs>
        <path id="LiberationSans-32" d="M 322 0 
L 322 397 
Q 481 763 711 1042 
Q 941 1322 1194 1548 
Q 1447 1775 1695 1969 
Q 1944 2163 2144 2356 
Q 2344 2550 2467 2762 
Q 2591 2975 2591 3244 
Q 2591 3606 2378 3806 
Q 2166 4006 1788 4006 
Q 1428 4006 1195 3811 
Q 963 3616 922 3263 
L 347 3316 
Q 409 3844 795 4156 
Q 1181 4469 1788 4469 
Q 2453 4469 2811 4155 
Q 3169 3841 3169 3263 
Q 3169 3006 3051 2753 
Q 2934 2500 2703 2247 
Q 2472 1994 1819 1463 
Q 1459 1169 1246 933 
Q 1034 697 941 478 
L 3238 478 
L 3238 0 
L 322 0 
z
" transform="scale(0.015625)"/>
       </defs>
       <use xlink:href="#LiberationSans-32"/>
      </g>
     </g>
    </g>
    <g id="xtick_4">
     <g id="line2d_4">
      <g>
       <use xlink:href="#md376efa723" x="218.19655" y="336.2" style="stroke: #000000; stroke-width: 1.25"/>
      </g>
     </g>
     <g id="text_4">
      <!-- 3 -->
      <g transform="translate(215.416081 352.946875) scale(0.1 -0.1)">
       <defs>
        <path id="LiberationSans-33" d="M 3278 1216 
Q 3278 606 2890 271 
Q 2503 -63 1784 -63 
Q 1116 -63 717 239 
Q 319 541 244 1131 
L 825 1184 
Q 938 403 1784 403 
Q 2209 403 2451 612 
Q 2694 822 2694 1234 
Q 2694 1594 2417 1795 
Q 2141 1997 1619 1997 
L 1300 1997 
L 1300 2484 
L 1606 2484 
Q 2069 2484 2323 2686 
Q 2578 2888 2578 3244 
Q 2578 3597 2370 3801 
Q 2163 4006 1753 4006 
Q 1381 4006 1151 3815 
Q 922 3625 884 3278 
L 319 3322 
Q 381 3863 767 4166 
Q 1153 4469 1759 4469 
Q 2422 4469 2789 4161 
Q 3156 3853 3156 3303 
Q 3156 2881 2920 2617 
Q 2684 2353 2234 2259 
L 2234 2247 
Q 2728 2194 3003 1916 
Q 3278 1638 3278 1216 
z
" transform="scale(0.015625)"/>
       </defs>
       <use xlink:href="#LiberationSans-33"/>
      </g>
     </g>
    </g>
    <g id="xtick_5">
     <g id="line2d_5">
      <g>
       <use xlink:href="#md376efa723" x="267.164745" y="336.2" style="stroke: #000000; stroke-width: 1.25"/>
      </g>
     </g>
     <g id="text_5">
      <!-- 4 -->
      <g transform="translate(264.384276 352.946875) scale(0.1 -0.1)">
       <defs>
        <path id="LiberationSans-34" d="M 2753 997 
L 2753 0 
L 2222 0 
L 2222 997 
L 147 997 
L 147 1434 
L 2163 4403 
L 2753 4403 
L 2753 1441 
L 3372 1441 
L 3372 997 
L 2753 997 
z
M 2222 3769 
Q 2216 3750 2134 3603 
Q 2053 3456 2013 3397 
L 884 1734 
L 716 1503 
L 666 1441 
L 2222 1441 
L 2222 3769 
z
" transform="scale(0.015625)"/>
       </defs>
       <use xlink:href="#LiberationSans-34"/>
      </g>
     </g>
    </g>
    <g id="xtick_6">
     <g id="line2d_6">
      <g>
       <use xlink:href="#md376efa723" x="316.13294" y="336.2" style="stroke: #000000; stroke-width: 1.25"/>
      </g>
     </g>
     <g id="text_6">
      <!-- 5 -->
      <g transform="translate(313.352471 352.946875) scale(0.1 -0.1)">
       <defs>
        <path id="LiberationSans-35" d="M 3291 1434 
Q 3291 738 2877 337 
Q 2463 -63 1728 -63 
Q 1113 -63 734 206 
Q 356 475 256 984 
L 825 1050 
Q 1003 397 1741 397 
Q 2194 397 2450 670 
Q 2706 944 2706 1422 
Q 2706 1838 2448 2094 
Q 2191 2350 1753 2350 
Q 1525 2350 1328 2278 
Q 1131 2206 934 2034 
L 384 2034 
L 531 4403 
L 3034 4403 
L 3034 3925 
L 1044 3925 
L 959 2528 
Q 1325 2809 1869 2809 
Q 2519 2809 2905 2428 
Q 3291 2047 3291 1434 
z
" transform="scale(0.015625)"/>
       </defs>
       <use xlink:href="#LiberationSans-35"/>
      </g>
     </g>
    </g>
    <g id="xtick_7">
     <g id="line2d_7">
      <g>
       <use xlink:href="#md376efa723" x="365.101135" y="336.2" style="stroke: #000000; stroke-width: 1.25"/>
      </g>
     </g>
     <g id="text_7">
      <!-- 6 -->
      <g transform="translate(362.320666 352.946875) scale(0.1 -0.1)">
       <defs>
        <path id="LiberationSans-36" d="M 3278 1441 
Q 3278 744 2900 340 
Q 2522 -63 1856 -63 
Q 1113 -63 719 490 
Q 325 1044 325 2100 
Q 325 3244 734 3856 
Q 1144 4469 1900 4469 
Q 2897 4469 3156 3572 
L 2619 3475 
Q 2453 4013 1894 4013 
Q 1413 4013 1148 3564 
Q 884 3116 884 2266 
Q 1038 2550 1316 2698 
Q 1594 2847 1953 2847 
Q 2563 2847 2920 2465 
Q 3278 2084 3278 1441 
z
M 2706 1416 
Q 2706 1894 2472 2153 
Q 2238 2413 1819 2413 
Q 1425 2413 1183 2183 
Q 941 1953 941 1550 
Q 941 1041 1192 716 
Q 1444 391 1838 391 
Q 2244 391 2475 664 
Q 2706 938 2706 1416 
z
" transform="scale(0.015625)"/>
       </defs>
       <use xlink:href="#LiberationSans-36"/>
      </g>
     </g>
    </g>
    <g id="xtick_8">
     <g id="line2d_8">
      <g>
       <use xlink:href="#md376efa723" x="414.06933" y="336.2" style="stroke: #000000; stroke-width: 1.25"/>
      </g>
     </g>
     <g id="text_8">
      <!-- 7 -->
      <g transform="translate(411.288861 352.946875) scale(0.1 -0.1)">
       <defs>
        <path id="LiberationSans-37" d="M 3238 3947 
Q 2563 2916 2284 2331 
Q 2006 1747 1867 1178 
Q 1728 609 1728 0 
L 1141 0 
Q 1141 844 1498 1776 
Q 1856 2709 2694 3925 
L 328 3925 
L 328 4403 
L 3238 4403 
L 3238 3947 
z
" transform="scale(0.015625)"/>
       </defs>
       <use xlink:href="#LiberationSans-37"/>
      </g>
     </g>
    </g>
    <g id="text_9">
     <!-- Workflow phase -->
     <g transform="translate(209.64937 366.26875) scale(0.1 -0.1)">
      <defs>
       <path id="LiberationSans-57" d="M 4722 0 
L 4009 0 
L 3247 2797 
Q 3172 3059 3028 3738 
Q 2947 3375 2890 3131 
Q 2834 2888 2038 0 
L 1325 0 
L 28 4403 
L 650 4403 
L 1441 1606 
Q 1581 1081 1700 525 
Q 1775 869 1873 1275 
Q 1972 1681 2741 4403 
L 3313 4403 
L 4078 1663 
Q 4253 991 4353 525 
L 4381 634 
Q 4466 994 4519 1220 
Q 4572 1447 5397 4403 
L 6019 4403 
L 4722 0 
z
" transform="scale(0.015625)"/>
       <path id="LiberationSans-6f" d="M 3291 1694 
Q 3291 806 2900 371 
Q 2509 -63 1766 -63 
Q 1025 -63 647 389 
Q 269 841 269 1694 
Q 269 3444 1784 3444 
Q 2559 3444 2925 3017 
Q 3291 2591 3291 1694 
z
M 2700 1694 
Q 2700 2394 2492 2711 
Q 2284 3028 1794 3028 
Q 1300 3028 1079 2704 
Q 859 2381 859 1694 
Q 859 1025 1076 689 
Q 1294 353 1759 353 
Q 2266 353 2483 678 
Q 2700 1003 2700 1694 
z
" transform="scale(0.015625)"/>
       <path id="LiberationSans-72" d="M 444 0 
L 444 2594 
Q 444 2950 425 3381 
L 956 3381 
Q 981 2806 981 2691 
L 994 2691 
Q 1128 3125 1303 3284 
Q 1478 3444 1797 3444 
Q 1909 3444 2025 3413 
L 2025 2897 
Q 1913 2928 1725 2928 
Q 1375 2928 1190 2626 
Q 1006 2325 1006 1763 
L 1006 0 
L 444 0 
z
" transform="scale(0.015625)"/>
       <path id="LiberationSans-6b" d="M 2550 0 
L 1406 1544 
L 994 1203 
L 994 0 
L 431 0 
L 431 4638 
L 994 4638 
L 994 1741 
L 2478 3381 
L 3138 3381 
L 1766 1928 
L 3209 0 
L 2550 0 
z
" transform="scale(0.015625)"/>
       <path id="LiberationSans-66" d="M 1128 2972 
L 1128 0 
L 566 0 
L 566 2972 
L 91 2972 
L 91 3381 
L 566 3381 
L 566 3763 
Q 566 4225 769 4428 
Q 972 4631 1391 4631 
Q 1625 4631 1788 4594 
L 1788 4166 
Q 1647 4191 1538 4191 
Q 1322 4191 1225 4081 
Q 1128 3972 1128 3684 
L 1128 3381 
L 1788 3381 
L 1788 2972 
L 1128 2972 
z
" transform="scale(0.015625)"/>
       <path id="LiberationSans-6c" d="M 431 0 
L 431 4638 
L 994 4638 
L 994 0 
L 431 0 
z
" transform="scale(0.015625)"/>
       <path id="LiberationSans-77" d="M 3669 0 
L 3016 0 
L 2425 2391 
L 2313 2919 
Q 2284 2778 2225 2514 
Q 2166 2250 1588 0 
L 938 0 
L -9 3381 
L 547 3381 
L 1119 1084 
Q 1141 1009 1253 466 
L 1306 697 
L 2013 3381 
L 2616 3381 
L 3206 1059 
L 3350 466 
L 3447 900 
L 4088 3381 
L 4638 3381 
L 3669 0 
z
" transform="scale(0.015625)"/>
       <path id="LiberationSans-20" transform="scale(0.015625)"/>
       <path id="LiberationSans-70" d="M 3291 1706 
Q 3291 -63 2047 -63 
Q 1266 -63 997 525 
L 981 525 
Q 994 500 994 -6 
L 994 -1328 
L 431 -1328 
L 431 2691 
Q 431 3213 413 3381 
L 956 3381 
Q 959 3369 965 3292 
Q 972 3216 980 3056 
Q 988 2897 988 2838 
L 1000 2838 
Q 1150 3150 1397 3295 
Q 1644 3441 2047 3441 
Q 2672 3441 2981 3022 
Q 3291 2603 3291 1706 
z
M 2700 1694 
Q 2700 2400 2509 2703 
Q 2319 3006 1903 3006 
Q 1569 3006 1380 2865 
Q 1191 2725 1092 2426 
Q 994 2128 994 1650 
Q 994 984 1206 668 
Q 1419 353 1897 353 
Q 2316 353 2508 661 
Q 2700 969 2700 1694 
z
" transform="scale(0.015625)"/>
       <path id="LiberationSans-68" d="M 991 2803 
Q 1172 3134 1426 3289 
Q 1681 3444 2072 3444 
Q 2622 3444 2883 3170 
Q 3144 2897 3144 2253 
L 3144 0 
L 2578 0 
L 2578 2144 
Q 2578 2500 2512 2673 
Q 2447 2847 2297 2928 
Q 2147 3009 1881 3009 
Q 1484 3009 1245 2734 
Q 1006 2459 1006 1994 
L 1006 0 
L 444 0 
L 444 4638 
L 1006 4638 
L 1006 3431 
Q 1006 3241 995 3037 
Q 984 2834 981 2803 
L 991 2803 
z
" transform="scale(0.015625)"/>
       <path id="LiberationSans-61" d="M 1294 -63 
Q 784 -63 528 206 
Q 272 475 272 944 
Q 272 1469 617 1750 
Q 963 2031 1731 2050 
L 2491 2063 
L 2491 2247 
Q 2491 2659 2316 2837 
Q 2141 3016 1766 3016 
Q 1388 3016 1216 2887 
Q 1044 2759 1009 2478 
L 422 2531 
Q 566 3444 1778 3444 
Q 2416 3444 2737 3151 
Q 3059 2859 3059 2306 
L 3059 850 
Q 3059 600 3125 473 
Q 3191 347 3375 347 
Q 3456 347 3559 369 
L 3559 19 
Q 3347 -31 3125 -31 
Q 2813 -31 2670 133 
Q 2528 297 2509 647 
L 2491 647 
Q 2275 259 1989 98 
Q 1703 -63 1294 -63 
z
M 1422 359 
Q 1731 359 1972 500 
Q 2213 641 2352 886 
Q 2491 1131 2491 1391 
L 2491 1669 
L 1875 1656 
Q 1478 1650 1273 1575 
Q 1069 1500 959 1344 
Q 850 1188 850 934 
Q 850 659 998 509 
Q 1147 359 1422 359 
z
" transform="scale(0.015625)"/>
       <path id="LiberationSans-73" d="M 2969 934 
Q 2969 456 2608 196 
Q 2247 -63 1597 -63 
Q 966 -63 623 145 
Q 281 353 178 794 
L 675 891 
Q 747 619 972 492 
Q 1197 366 1597 366 
Q 2025 366 2223 497 
Q 2422 628 2422 891 
Q 2422 1091 2284 1216 
Q 2147 1341 1841 1422 
L 1438 1528 
Q 953 1653 748 1773 
Q 544 1894 428 2066 
Q 313 2238 313 2488 
Q 313 2950 642 3192 
Q 972 3434 1603 3434 
Q 2163 3434 2492 3237 
Q 2822 3041 2909 2606 
L 2403 2544 
Q 2356 2769 2151 2889 
Q 1947 3009 1603 3009 
Q 1222 3009 1040 2893 
Q 859 2778 859 2544 
Q 859 2400 934 2306 
Q 1009 2213 1156 2147 
Q 1303 2081 1775 1966 
Q 2222 1853 2419 1758 
Q 2616 1663 2730 1547 
Q 2844 1431 2906 1279 
Q 2969 1128 2969 934 
z
" transform="scale(0.015625)"/>
       <path id="LiberationSans-65" d="M 863 1572 
Q 863 991 1103 675 
Q 1344 359 1806 359 
Q 2172 359 2392 506 
Q 2613 653 2691 878 
L 3184 738 
Q 2881 -63 1806 -63 
Q 1056 -63 664 384 
Q 272 831 272 1713 
Q 272 2550 664 2997 
Q 1056 3444 1784 3444 
Q 3275 3444 3275 1647 
L 3275 1572 
L 863 1572 
z
M 2694 2003 
Q 2647 2538 2422 2783 
Q 2197 3028 1775 3028 
Q 1366 3028 1127 2754 
Q 888 2481 869 2003 
L 2694 2003 
z
" transform="scale(0.015625)"/>
      </defs>
      <use xlink:href="#LiberationSans-57"/>
      <use xlink:href="#LiberationSans-6f" transform="translate(92.634766 0)"/>
      <use xlink:href="#LiberationSans-72" transform="translate(148.25 0)"/>
      <use xlink:href="#LiberationSans-6b" transform="translate(181.550781 0)"/>
      <use xlink:href="#LiberationSans-66" transform="translate(231.550781 0)"/>
      <use xlink:href="#LiberationSans-6c" transform="translate(259.333984 0)"/>
      <use xlink:href="#LiberationSans-6f" transform="translate(281.550781 0)"/>
      <use xlink:href="#LiberationSans-77" transform="translate(337.166016 0)"/>
      <use xlink:href="#LiberationSans-20" transform="translate(409.382812 0)"/>
      <use xlink:href="#LiberationSans-70" transform="translate(437.166016 0)"/>
      <use xlink:href="#LiberationSans-68" transform="translate(492.78125 0)"/>
      <use xlink:href="#LiberationSans-61" transform="translate(548.396484 0)"/>
      <use xlink:href="#LiberationSans-73" transform="translate(604.011719 0)"/>
      <use xlink:href="#LiberationSans-65" transform="translate(654.011719 0)"/>
     </g>
    </g>
   </g>
   <g id="matplotlib.axis_2">
    <g id="ytick_1">
     <g id="line2d_9">
      <defs>
       <path id="m996b5f52bc" d="M 0 0 
L -6 0 
" style="stroke: #000000; stroke-width: 1.25"/>
      </defs>
      <g>
       <use xlink:href="#m996b5f52bc" x="46.704688" y="318.6" style="stroke: #000000; stroke-width: 1.25"/>
      </g>
     </g>
     <g id="text_10">
      <!-- 0 -->
      <g transform="translate(31.64375 322.223437) scale(0.1 -0.1)">
       <use xlink:href="#LiberationSans-30"/>
      </g>
     </g>
    </g>
    <g id="ytick_2">
     <g id="line2d_10">
      <g>
       <use xlink:href="#m996b5f52bc" x="46.704688" y="276.6" style="stroke: #000000; stroke-width: 1.25"/>
      </g>
     </g>
     <g id="text_11">
      <!-- 20 -->
      <g transform="translate(26.082813 280.223437) scale(0.1 -0.1)">
       <use xlink:href="#LiberationSans-32"/>
       <use xlink:href="#LiberationSans-30" transform="translate(55.615234 0)"/>
      </g>
     </g>
    </g>
    <g id="ytick_3">
     <g id="line2d_11">
      <g>
       <use xlink:href="#m996b5f52bc" x="46.704688" y="234.6" style="stroke: #000000; stroke-width: 1.25"/>
      </g>
     </g>
     <g id="text_12">
      <!-- 40 -->
      <g transform="translate(26.082813 238.223437) scale(0.1 -0.1)">
       <use xlink:href="#LiberationSans-34"/>
       <use xlink:href="#LiberationSans-30" transform="translate(55.615234 0)"/>
      </g>
     </g>
    </g>
    <g id="ytick_4">
     <g id="line2d_12">
      <g>
       <use xlink:href="#m996b5f52bc" x="46.704688" y="192.6" style="stroke: #000000; stroke-width: 1.25"/>
      </g>
     </g>
     <g id="text_13">
      <!-- 60 -->
      <g transform="translate(26.082813 196.223437) scale(0.1 -0.1)">
       <use xlink:href="#LiberationSans-36"/>
       <use xlink:href="#LiberationSans-30" transform="translate(55.615234 0)"/>
      </g>
     </g>
    </g>
    <g id="ytick_5">
     <g id="line2d_13">
      <g>
       <use xlink:href="#m996b5f52bc" x="46.704688" y="150.6" style="stroke: #000000; stroke-width: 1.25"/>
      </g>
     </g>
     <g id="text_14">
      <!-- 80 -->
      <g transform="translate(26.082813 154.223437) scale(0.1 -0.1)">
       <defs>
        <path id="LiberationSans-38" d="M 3281 1228 
Q 3281 619 2893 278 
Q 2506 -63 1781 -63 
Q 1075 -63 676 271 
Q 278 606 278 1222 
Q 278 1653 525 1947 
Q 772 2241 1156 2303 
L 1156 2316 
Q 797 2400 589 2681 
Q 381 2963 381 3341 
Q 381 3844 757 4156 
Q 1134 4469 1769 4469 
Q 2419 4469 2795 4162 
Q 3172 3856 3172 3334 
Q 3172 2956 2962 2675 
Q 2753 2394 2391 2322 
L 2391 2309 
Q 2813 2241 3047 1952 
Q 3281 1663 3281 1228 
z
M 2588 3303 
Q 2588 4050 1769 4050 
Q 1372 4050 1164 3862 
Q 956 3675 956 3303 
Q 956 2925 1170 2726 
Q 1384 2528 1775 2528 
Q 2172 2528 2380 2711 
Q 2588 2894 2588 3303 
z
M 2697 1281 
Q 2697 1691 2453 1898 
Q 2209 2106 1769 2106 
Q 1341 2106 1100 1882 
Q 859 1659 859 1269 
Q 859 359 1788 359 
Q 2247 359 2472 579 
Q 2697 800 2697 1281 
z
" transform="scale(0.015625)"/>
       </defs>
       <use xlink:href="#LiberationSans-38"/>
       <use xlink:href="#LiberationSans-30" transform="translate(55.615234 0)"/>
      </g>
     </g>
    </g>
    <g id="ytick_6">
     <g id="line2d_14">
      <g>
       <use xlink:href="#m996b5f52bc" x="46.704688" y="108.6" style="stroke: #000000; stroke-width: 1.25"/>
      </g>
     </g>
     <g id="text_15">
      <!-- 100 -->
      <g transform="translate(20.521875 112.223437) scale(0.1 -0.1)">
       <use xlink:href="#LiberationSans-31"/>
       <use xlink:href="#LiberationSans-30" transform="translate(55.615234 0)"/>
       <use xlink:href="#LiberationSans-30" transform="translate(111.230469 0)"/>
      </g>
     </g>
    </g>
    <g id="ytick_7">
     <g id="line2d_15">
      <g>
       <use xlink:href="#m996b5f52bc" x="46.704688" y="66.6" style="stroke: #000000; stroke-width: 1.25"/>
      </g>
     </g>
     <g id="text_16">
      <!-- 120 -->
      <g transform="translate(20.521875 70.223437) scale(0.1 -0.1)">
       <use xlink:href="#LiberationSans-31"/>
       <use xlink:href="#LiberationSans-32" transform="translate(55.615234 0)"/>
       <use xlink:href="#LiberationSans-30" transform="translate(111.230469 0)"/>
      </g>
     </g>
    </g>
    <g id="ytick_8">
     <g id="line2d_16">
      <defs>
       <path id="mae9d690ded" d="M 0 0 
L -4 0 
" style="stroke: #000000"/>
      </defs>
      <g>
       <use xlink:href="#mae9d690ded" x="46.704688" y="329.1" style="stroke: #000000"/>
      </g>
     </g>
    </g>
    <g id="ytick_9">
     <g id="line2d_17">
      <g>
       <use xlink:href="#mae9d690ded" x="46.704688" y="308.1" style="stroke: #000000"/>
      </g>
     </g>
    </g>
    <g id="ytick_10">
     <g id="line2d_18">
      <g>
       <use xlink:href="#mae9d690ded" x="46.704688" y="297.6" style="stroke: #000000"/>
      </g>
     </g>
    </g>
    <g id="ytick_11">
     <g id="line2d_19">
      <g>
       <use xlink:href="#mae9d690ded" x="46.704688" y="287.1" style="stroke: #000000"/>
      </g>
     </g>
    </g>
    <g id="ytick_12">
     <g id="line2d_20">
      <g>
       <use xlink:href="#mae9d690ded" x="46.704688" y="266.1" style="stroke: #000000"/>
      </g>
     </g>
    </g>
    <g id="ytick_13">
     <g id="line2d_21">
      <g>
       <use xlink:href="#mae9d690ded" x="46.704688" y="255.6" style="stroke: #000000"/>
      </g>
     </g>
    </g>
    <g id="ytick_14">
     <g id="line2d_22">
      <g>
       <use xlink:href="#mae9d690ded" x="46.704688" y="245.1" style="stroke: #000000"/>
      </g>
     </g>
    </g>
    <g id="ytick_15">
     <g id="line2d_23">
      <g>
       <use xlink:href="#mae9d690ded" x="46.704688" y="224.1" style="stroke: #000000"/>
      </g>
     </g>
    </g>
    <g id="ytick_16">
     <g id="line2d_24">
      <g>
       <use xlink:href="#mae9d690ded" x="46.704688" y="213.6" style="stroke: #000000"/>
      </g>
     </g>
    </g>
    <g id="ytick_17">
     <g id="line2d_25">
      <g>
       <use xlink:href="#mae9d690ded" x="46.704688" y="203.1" style="stroke: #000000"/>
      </g>
     </g>
    </g>
    <g id="ytick_18">
     <g id="line2d_26">
      <g>
       <use xlink:href="#mae9d690ded" x="46.704688" y="182.1" style="stroke: #000000"/>
      </g>
     </g>
    </g>
    <g id="ytick_19">
     <g id="line2d_27">
      <g>
       <use xlink:href="#mae9d690ded" x="46.704688" y="171.6" style="stroke: #000000"/>
      </g>
     </g>
    </g>
    <g id="ytick_20">
     <g id="line2d_28">
      <g>
       <use xlink:href="#mae9d690ded" x="46.704688" y="161.1" style="stroke: #000000"/>
      </g>
     </g>
    </g>
    <g id="ytick_21">
     <g id="line2d_29">
      <g>
       <use xlink:href="#mae9d690ded" x="46.704688" y="140.1" style="stroke: #000000"/>
      </g>
     </g>
    </g>
    <g id="ytick_22">
     <g id="line2d_30">
      <g>
       <use xlink:href="#mae9d690ded" x="46.704688" y="129.6" style="stroke: #000000"/>
      </g>
     </g>
    </g>
    <g id="ytick_23">
     <g id="line2d_31">
      <g>
       <use xlink:href="#mae9d690ded" x="46.704688" y="119.1" style="stroke: #000000"/>
      </g>
     </g>
    </g>
    <g id="ytick_24">
     <g id="line2d_32">
      <g>
       <use xlink:href="#mae9d690ded" x="46.704688" y="98.1" style="stroke: #000000"/>
      </g>
     </g>
    </g>
    <g id="ytick_25">
     <g id="line2d_33">
      <g>
       <use xlink:href="#mae9d690ded" x="46.704688" y="87.6" style="stroke: #000000"/>
      </g>
     </g>
    </g>
    <g id="ytick_26">
     <g id="line2d_34">
      <g>
       <use xlink:href="#mae9d690ded" x="46.704688" y="77.1" style="stroke: #000000"/>
      </g>
     </g>
    </g>
    <g id="ytick_27">
     <g id="line2d_35">
      <g>
       <use xlink:href="#mae9d690ded" x="46.704688" y="56.1" style="stroke: #000000"/>
      </g>
     </g>
    </g>
    <g id="text_17">
     <!-- Cumulative effort (h) -->
     <g transform="translate(14.446875 237.802344) rotate(-90) scale(0.1 -0.1)">
      <defs>
       <path id="LiberationSans-43" d="M 2475 3981 
Q 1744 3981 1337 3511 
Q 931 3041 931 2222 
Q 931 1413 1354 920 
Q 1778 428 2500 428 
Q 3425 428 3891 1344 
L 4378 1100 
Q 4106 531 3614 234 
Q 3122 -63 2472 -63 
Q 1806 -63 1320 214 
Q 834 491 579 1005 
Q 325 1519 325 2222 
Q 325 3275 894 3872 
Q 1463 4469 2469 4469 
Q 3172 4469 3644 4194 
Q 4116 3919 4338 3378 
L 3772 3191 
Q 3619 3575 3280 3778 
Q 2941 3981 2475 3981 
z
" transform="scale(0.015625)"/>
       <path id="LiberationSans-75" d="M 981 3381 
L 981 1238 
Q 981 903 1047 718 
Q 1113 534 1256 453 
Q 1400 372 1678 372 
Q 2084 372 2318 650 
Q 2553 928 2553 1422 
L 2553 3381 
L 3116 3381 
L 3116 722 
Q 3116 131 3134 0 
L 2603 0 
Q 2600 16 2597 84 
Q 2594 153 2589 242 
Q 2584 331 2578 578 
L 2569 578 
Q 2375 228 2120 82 
Q 1866 -63 1488 -63 
Q 931 -63 673 214 
Q 416 491 416 1128 
L 416 3381 
L 981 3381 
z
" transform="scale(0.015625)"/>
       <path id="LiberationSans-6d" d="M 2400 0 
L 2400 2144 
Q 2400 2634 2265 2821 
Q 2131 3009 1781 3009 
Q 1422 3009 1212 2734 
Q 1003 2459 1003 1959 
L 1003 0 
L 444 0 
L 444 2659 
Q 444 3250 425 3381 
L 956 3381 
Q 959 3366 962 3297 
Q 966 3228 970 3139 
Q 975 3050 981 2803 
L 991 2803 
Q 1172 3163 1406 3303 
Q 1641 3444 1978 3444 
Q 2363 3444 2586 3291 
Q 2809 3138 2897 2803 
L 2906 2803 
Q 3081 3144 3329 3294 
Q 3578 3444 3931 3444 
Q 4444 3444 4676 3166 
Q 4909 2888 4909 2253 
L 4909 0 
L 4353 0 
L 4353 2144 
Q 4353 2634 4218 2821 
Q 4084 3009 3734 3009 
Q 3366 3009 3161 2736 
Q 2956 2463 2956 1959 
L 2956 0 
L 2400 0 
z
" transform="scale(0.015625)"/>
       <path id="LiberationSans-74" d="M 1731 25 
Q 1453 -50 1163 -50 
Q 488 -50 488 716 
L 488 2972 
L 97 2972 
L 97 3381 
L 509 3381 
L 675 4138 
L 1050 4138 
L 1050 3381 
L 1675 3381 
L 1675 2972 
L 1050 2972 
L 1050 838 
Q 1050 594 1129 495 
Q 1209 397 1406 397 
Q 1519 397 1731 441 
L 1731 25 
z
" transform="scale(0.015625)"/>
       <path id="LiberationSans-69" d="M 428 4100 
L 428 4638 
L 991 4638 
L 991 4100 
L 428 4100 
z
M 428 0 
L 428 3381 
L 991 3381 
L 991 0 
L 428 0 
z
" transform="scale(0.015625)"/>
       <path id="LiberationSans-76" d="M 1916 0 
L 1250 0 
L 22 3381 
L 622 3381 
L 1366 1181 
Q 1406 1056 1581 441 
L 1691 806 
L 1813 1175 
L 2581 3381 
L 3178 3381 
L 1916 0 
z
" transform="scale(0.015625)"/>
       <path id="LiberationSans-28" d="M 397 1663 
Q 397 2566 680 3284 
Q 963 4003 1550 4638 
L 2094 4638 
Q 1509 3988 1236 3256 
Q 963 2525 963 1656 
Q 963 791 1233 62 
Q 1503 -666 2094 -1325 
L 1550 -1325 
Q 959 -688 678 32 
Q 397 753 397 1650 
L 397 1663 
z
" transform="scale(0.015625)"/>
       <path id="LiberationSans-29" d="M 1734 1650 
Q 1734 747 1451 28 
Q 1169 -691 581 -1325 
L 38 -1325 
Q 625 -669 897 57 
Q 1169 784 1169 1656 
Q 1169 2528 895 3256 
Q 622 3984 38 4638 
L 581 4638 
Q 1172 4000 1453 3279 
Q 1734 2559 1734 1663 
L 1734 1650 
z
" transform="scale(0.015625)"/>
      </defs>
      <use xlink:href="#LiberationSans-43"/>
      <use xlink:href="#LiberationSans-75" transform="translate(72.216797 0)"/>
      <use xlink:href="#LiberationSans-6d" transform="translate(127.832031 0)"/>
      <use xlink:href="#LiberationSans-75" transform="translate(211.132812 0)"/>
      <use xlink:href="#LiberationSans-6c" transform="translate(266.748047 0)"/>
      <use xlink:href="#LiberationSans-61" transform="translate(288.964844 0)"/>
      <use xlink:href="#LiberationSans-74" transform="translate(344.580078 0)"/>
      <use xlink:href="#LiberationSans-69" transform="translate(372.363281 0)"/>
      <use xlink:href="#LiberationSans-76" transform="translate(394.580078 0)"/>
      <use xlink:href="#LiberationSans-65" transform="translate(444.580078 0)"/>
      <use xlink:href="#LiberationSans-20" transform="translate(500.195312 0)"/>
      <use xlink:href="#LiberationSans-65" transform="translate(527.978516 0)"/>
      <use xlink:href="#LiberationSans-66" transform="translate(583.59375 0)"/>
      <use xlink:href="#LiberationSans-66" transform="translate(609.626953 0)"/>
      <use xlink:href="#LiberationSans-6f" transform="translate(637.410156 0)"/>
      <use xlink:href="#LiberationSans-72" transform="translate(693.025391 0)"/>
      <use xlink:href="#LiberationSans-74" transform="translate(726.326172 0)"/>
      <use xlink:href="#LiberationSans-20" transform="translate(754.109375 0)"/>
      <use xlink:href="#LiberationSans-28" transform="translate(781.892578 0)"/>
      <use xlink:href="#LiberationSans-68" transform="translate(815.193359 0)"/>
      <use xlink:href="#LiberationSans-29" transform="translate(870.808594 0)"/>
     </g>
    </g>
   </g>
   <g id="FillBetweenPolyCollection_1">
    <defs>
     <path id="m841f342bf9" d="M 71.291965 -56.94375 
L 71.291965 -56.94375 
L 120.26016 -98.94375 
L 169.228355 -126.24375 
L 218.19655 -147.24375 
L 267.164745 -164.04375 
L 316.13294 -176.64375 
L 365.101135 -180.84375 
L 414.06933 -182.94375 
L 414.06933 -308.94375 
L 414.06933 -308.94375 
L 365.101135 -302.64375 
L 316.13294 -294.24375 
L 267.164745 -273.24375 
L 218.19655 -239.64375 
L 169.228355 -197.64375 
L 120.26016 -140.94375 
L 71.291965 -56.94375 
z
" style="stroke: #b1b1b1; stroke-opacity: 0.15"/>
    </defs>
    <g clip-path="url(#p60e20a1785)">
     <use xlink:href="#m841f342bf9" x="0" y="375.54375" style="fill: #b1b1b1; fill-opacity: 0.15; stroke: #b1b1b1; stroke-opacity: 0.15"/>
    </g>
   </g>
   <g id="FillBetweenPolyCollection_2">
    <defs>
     <path id="m3116a494c1" d="M 71.291965 -56.94375 
L 71.291965 -56.94375 
L 120.26016 -61.14375 
L 169.228355 -67.44375 
L 218.19655 -69.54375 
L 267.164745 -73.74375 
L 316.13294 -75.84375 
L 365.101135 -77.94375 
L 414.06933 -78.99375 
L 414.06933 -245.94375 
L 414.06933 -245.94375 
L 365.101135 -241.74375 
L 316.13294 -235.44375 
L 267.164745 -218.64375 
L 218.19655 -193.44375 
L 169.228355 -161.94375 
L 120.26016 -119.94375 
L 71.291965 -56.94375 
z
" style="stroke: #a7d3ec; stroke-opacity: 0.55"/>
    </defs>
    <g clip-path="url(#p60e20a1785)">
     <use xlink:href="#m3116a494c1" x="0" y="375.54375" style="fill: #a7d3ec; fill-opacity: 0.55; stroke: #a7d3ec; stroke-opacity: 0.55"/>
    </g>
   </g>
   <g id="patch_3">
    <path d="M 46.704688 331.2 
L 46.704688 54 
" style="fill: none; stroke: #262626; stroke-width: 1.25; stroke-linejoin: miter; stroke-linecap: square"/>
   </g>
   <g id="patch_4">
    <path d="M 51.704688 336.2 
L 438.553427 336.2 
" style="fill: none; stroke: #262626; stroke-width: 1.25; stroke-linejoin: miter; stroke-linecap: square"/>
   </g>
   <g id="line2d_36">
    <path d="M 71.291965 318.6 
L 120.26016 255.6 
L 169.228355 213.6 
L 218.19655 182.1 
L 267.164745 156.9 
L 316.13294 140.1 
L 365.101135 133.8 
L 414.06933 129.6 
" clip-path="url(#p60e20a1785)" style="fill: none; stroke: #b1b1b1; stroke-width: 2.2; stroke-linecap: round"/>
    <defs>
     <path id="m4303a8aad6" d="M 0 2.5 
C 0.663008 2.5 1.29895 2.236584 1.767767 1.767767 
C 2.236584 1.29895 2.5 0.663008 2.5 0 
C 2.5 -0.663008 2.236584 -1.29895 1.767767 -1.767767 
C 1.29895 -2.236584 0.663008 -2.5 0 -2.5 
C -0.663008 -2.5 -1.29895 -2.236584 -1.767767 -1.767767 
C -2.236584 -1.29895 -2.5 -0.663008 -2.5 0 
C -2.5 0.663008 -2.236584 1.29895 -1.767767 1.767767 
C -1.29895 2.236584 -0.663008 2.5 0 2.5 
z
" style="stroke: #b1b1b1"/>
    </defs>
    <g clip-path="url(#p60e20a1785)">
     <use xlink:href="#m4303a8aad6" x="71.291965" y="318.6" style="fill: #b1b1b1; stroke: #b1b1b1"/>
     <use xlink:href="#m4303a8aad6" x="120.26016" y="255.6" style="fill: #b1b1b1; stroke: #b1b1b1"/>
     <use xlink:href="#m4303a8aad6" x="169.228355" y="213.6" style="fill: #b1b1b1; stroke: #b1b1b1"/>
     <use xlink:href="#m4303a8aad6" x="218.19655" y="182.1" style="fill: #b1b1b1; stroke: #b1b1b1"/>
     <use xlink:href="#m4303a8aad6" x="267.164745" y="156.9" style="fill: #b1b1b1; stroke: #b1b1b1"/>
     <use xlink:href="#m4303a8aad6" x="316.13294" y="140.1" style="fill: #b1b1b1; stroke: #b1b1b1"/>
     <use xlink:href="#m4303a8aad6" x="365.101135" y="133.8" style="fill: #b1b1b1; stroke: #b1b1b1"/>
     <use xlink:href="#m4303a8aad6" x="414.06933" y="129.6" style="fill: #b1b1b1; stroke: #b1b1b1"/>
    </g>
   </g>
   <g id="text_18">
    <!-- Discovery -->
    <g style="fill: #444444" transform="translate(106.16131 305.545809) rotate(-25) scale(0.075 -0.075)">
     <defs>
      <path id="LiberationSans-44" d="M 4316 2247 
Q 4316 1566 4050 1055 
Q 3784 544 3296 272 
Q 2809 0 2172 0 
L 525 0 
L 525 4403 
L 1981 4403 
Q 3100 4403 3708 3842 
Q 4316 3281 4316 2247 
z
M 3716 2247 
Q 3716 3066 3267 3495 
Q 2819 3925 1969 3925 
L 1122 3925 
L 1122 478 
L 2103 478 
Q 2588 478 2955 690 
Q 3322 903 3519 1303 
Q 3716 1703 3716 2247 
z
" transform="scale(0.015625)"/>
      <path id="LiberationSans-63" d="M 859 1706 
Q 859 1031 1071 706 
Q 1284 381 1713 381 
Q 2013 381 2214 543 
Q 2416 706 2463 1044 
L 3031 1006 
Q 2966 519 2616 228 
Q 2266 -63 1728 -63 
Q 1019 -63 645 385 
Q 272 834 272 1694 
Q 272 2547 647 2995 
Q 1022 3444 1722 3444 
Q 2241 3444 2583 3175 
Q 2925 2906 3013 2434 
L 2434 2391 
Q 2391 2672 2212 2837 
Q 2034 3003 1706 3003 
Q 1259 3003 1059 2706 
Q 859 2409 859 1706 
z
" transform="scale(0.015625)"/>
      <path id="LiberationSans-79" d="M 597 -1328 
Q 366 -1328 209 -1294 
L 209 -872 
Q 328 -891 472 -891 
Q 997 -891 1303 -119 
L 1356 16 
L 16 3381 
L 616 3381 
L 1328 1513 
Q 1344 1469 1366 1408 
Q 1388 1347 1506 1000 
Q 1625 653 1634 613 
L 1853 1228 
L 2594 3381 
L 3188 3381 
L 1888 0 
Q 1678 -541 1497 -805 
Q 1316 -1069 1095 -1198 
Q 875 -1328 597 -1328 
z
" transform="scale(0.015625)"/>
     </defs>
     <use xlink:href="#LiberationSans-44"/>
     <use xlink:href="#LiberationSans-69" transform="translate(72.216797 0)"/>
     <use xlink:href="#LiberationSans-73" transform="translate(94.433594 0)"/>
     <use xlink:href="#LiberationSans-63" transform="translate(144.433594 0)"/>
     <use xlink:href="#LiberationSans-6f" transform="translate(194.433594 0)"/>
     <use xlink:href="#LiberationSans-76" transform="translate(250.048828 0)"/>
     <use xlink:href="#LiberationSans-65" transform="translate(300.048828 0)"/>
     <use xlink:href="#LiberationSans-72" transform="translate(355.664062 0)"/>
     <use xlink:href="#LiberationSans-79" transform="translate(388.964844 0)"/>
    </g>
   </g>
   <g id="text_19">
    <!-- Build -->
    <g style="fill: #444444" transform="translate(162.490777 299.245809) rotate(-25) scale(0.075 -0.075)">
     <defs>
      <path id="LiberationSans-42" d="M 3931 1241 
Q 3931 653 3503 326 
Q 3075 0 2313 0 
L 525 0 
L 525 4403 
L 2125 4403 
Q 3675 4403 3675 3334 
Q 3675 2944 3456 2678 
Q 3238 2413 2838 2322 
Q 3363 2259 3647 1970 
Q 3931 1681 3931 1241 
z
M 3075 3263 
Q 3075 3619 2831 3772 
Q 2588 3925 2125 3925 
L 1122 3925 
L 1122 2531 
L 2125 2531 
Q 2603 2531 2839 2711 
Q 3075 2891 3075 3263 
z
M 3328 1288 
Q 3328 2066 2234 2066 
L 1122 2066 
L 1122 478 
L 2281 478 
Q 2828 478 3078 681 
Q 3328 884 3328 1288 
z
" transform="scale(0.015625)"/>
      <path id="LiberationSans-64" d="M 2566 544 
Q 2409 219 2151 78 
Q 1894 -63 1513 -63 
Q 872 -63 570 368 
Q 269 800 269 1675 
Q 269 3444 1513 3444 
Q 1897 3444 2153 3303 
Q 2409 3163 2566 2856 
L 2572 2856 
L 2566 3234 
L 2566 4638 
L 3128 4638 
L 3128 697 
Q 3128 169 3147 0 
L 2609 0 
Q 2600 50 2589 231 
Q 2578 413 2578 544 
L 2566 544 
z
M 859 1694 
Q 859 984 1046 678 
Q 1234 372 1656 372 
Q 2134 372 2350 703 
Q 2566 1034 2566 1731 
Q 2566 2403 2350 2715 
Q 2134 3028 1663 3028 
Q 1238 3028 1048 2714 
Q 859 2400 859 1694 
z
" transform="scale(0.015625)"/>
     </defs>
     <use xlink:href="#LiberationSans-42"/>
     <use xlink:href="#LiberationSans-75" transform="translate(66.699219 0)"/>
     <use xlink:href="#LiberationSans-69" transform="translate(122.314453 0)"/>
     <use xlink:href="#LiberationSans-6c" transform="translate(144.53125 0)"/>
     <use xlink:href="#LiberationSans-64" transform="translate(166.748047 0)"/>
    </g>
   </g>
   <g id="text_20">
    <!-- Debug: decrypt -->
    <g style="fill: #444444" transform="translate(195.969075 297.145809) rotate(-25) scale(0.075 -0.075)">
     <defs>
      <path id="LiberationSans-62" d="M 3291 1706 
Q 3291 -63 2047 -63 
Q 1663 -63 1408 76 
Q 1153 216 994 525 
L 988 525 
Q 988 428 975 229 
Q 963 31 956 0 
L 413 0 
Q 431 169 431 697 
L 431 4638 
L 994 4638 
L 994 3316 
Q 994 3113 981 2838 
L 994 2838 
Q 1150 3163 1408 3303 
Q 1666 3444 2047 3444 
Q 2688 3444 2989 3012 
Q 3291 2581 3291 1706 
z
M 2700 1688 
Q 2700 2397 2512 2703 
Q 2325 3009 1903 3009 
Q 1428 3009 1211 2684 
Q 994 2359 994 1653 
Q 994 988 1206 670 
Q 1419 353 1897 353 
Q 2322 353 2511 667 
Q 2700 981 2700 1688 
z
" transform="scale(0.015625)"/>
      <path id="LiberationSans-67" d="M 1713 -1328 
Q 1159 -1328 831 -1111 
Q 503 -894 409 -494 
L 975 -413 
Q 1031 -647 1223 -773 
Q 1416 -900 1728 -900 
Q 2569 -900 2569 84 
L 2569 628 
L 2563 628 
Q 2403 303 2125 139 
Q 1847 -25 1475 -25 
Q 853 -25 561 387 
Q 269 800 269 1684 
Q 269 2581 583 3007 
Q 897 3434 1538 3434 
Q 1897 3434 2161 3270 
Q 2425 3106 2569 2803 
L 2575 2803 
Q 2575 2897 2587 3128 
Q 2600 3359 2613 3381 
L 3147 3381 
Q 3128 3213 3128 2681 
L 3128 97 
Q 3128 -1328 1713 -1328 
z
M 2569 1691 
Q 2569 2103 2456 2401 
Q 2344 2700 2139 2858 
Q 1934 3016 1675 3016 
Q 1244 3016 1047 2703 
Q 850 2391 850 1691 
Q 850 997 1034 694 
Q 1219 391 1666 391 
Q 1931 391 2137 547 
Q 2344 703 2456 995 
Q 2569 1288 2569 1691 
z
" transform="scale(0.015625)"/>
      <path id="LiberationSans-3a" d="M 584 2734 
L 584 3381 
L 1194 3381 
L 1194 2734 
L 584 2734 
z
M 584 0 
L 584 647 
L 1194 647 
L 1194 0 
L 584 0 
z
" transform="scale(0.015625)"/>
     </defs>
     <use xlink:href="#LiberationSans-44"/>
     <use xlink:href="#LiberationSans-65" transform="translate(72.216797 0)"/>
     <use xlink:href="#LiberationSans-62" transform="translate(127.832031 0)"/>
     <use xlink:href="#LiberationSans-75" transform="translate(183.447266 0)"/>
     <use xlink:href="#LiberationSans-67" transform="translate(239.0625 0)"/>
     <use xlink:href="#LiberationSans-3a" transform="translate(294.677734 0)"/>
     <use xlink:href="#LiberationSans-20" transform="translate(322.460938 0)"/>
     <use xlink:href="#LiberationSans-64" transform="translate(350.244141 0)"/>
     <use xlink:href="#LiberationSans-65" transform="translate(405.859375 0)"/>
     <use xlink:href="#LiberationSans-63" transform="translate(461.474609 0)"/>
     <use xlink:href="#LiberationSans-72" transform="translate(511.474609 0)"/>
     <use xlink:href="#LiberationSans-79" transform="translate(544.775391 0)"/>
     <use xlink:href="#LiberationSans-70" transform="translate(594.775391 0)"/>
     <use xlink:href="#LiberationSans-74" transform="translate(650.390625 0)"/>
    </g>
   </g>
   <g id="text_21">
    <!-- Debug: key -->
    <g style="fill: #444444" transform="translate(250.793044 292.945809) rotate(-25) scale(0.075 -0.075)">
     <use xlink:href="#LiberationSans-44"/>
     <use xlink:href="#LiberationSans-65" transform="translate(72.216797 0)"/>
     <use xlink:href="#LiberationSans-62" transform="translate(127.832031 0)"/>
     <use xlink:href="#LiberationSans-75" transform="translate(183.447266 0)"/>
     <use xlink:href="#LiberationSans-67" transform="translate(239.0625 0)"/>
     <use xlink:href="#LiberationSans-3a" transform="translate(294.677734 0)"/>
     <use xlink:href="#LiberationSans-20" transform="translate(322.460938 0)"/>
     <use xlink:href="#LiberationSans-6b" transform="translate(350.244141 0)"/>
     <use xlink:href="#LiberationSans-65" transform="translate(400.244141 0)"/>
     <use xlink:href="#LiberationSans-79" transform="translate(455.859375 0)"/>
    </g>
   </g>
   <g id="text_22">
    <!-- Debug: race -->
    <g style="fill: #444444" transform="translate(298.43895 290.845809) rotate(-25) scale(0.075 -0.075)">
     <use xlink:href="#LiberationSans-44"/>
     <use xlink:href="#LiberationSans-65" transform="translate(72.216797 0)"/>
     <use xlink:href="#LiberationSans-62" transform="translate(127.832031 0)"/>
     <use xlink:href="#LiberationSans-75" transform="translate(183.447266 0)"/>
     <use xlink:href="#LiberationSans-67" transform="translate(239.0625 0)"/>
     <use xlink:href="#LiberationSans-3a" transform="translate(294.677734 0)"/>
     <use xlink:href="#LiberationSans-20" transform="translate(322.460938 0)"/>
     <use xlink:href="#LiberationSans-72" transform="translate(350.244141 0)"/>
     <use xlink:href="#LiberationSans-61" transform="translate(383.544922 0)"/>
     <use xlink:href="#LiberationSans-63" transform="translate(439.160156 0)"/>
     <use xlink:href="#LiberationSans-65" transform="translate(489.160156 0)"/>
    </g>
   </g>
   <g id="text_23">
    <!-- Dataset -->
    <g style="fill: #444444" transform="translate(354.208702 288.745809) rotate(-25) scale(0.075 -0.075)">
     <use xlink:href="#LiberationSans-44"/>
     <use xlink:href="#LiberationSans-61" transform="translate(72.216797 0)"/>
     <use xlink:href="#LiberationSans-74" transform="translate(127.832031 0)"/>
     <use xlink:href="#LiberationSans-61" transform="translate(155.615234 0)"/>
     <use xlink:href="#LiberationSans-73" transform="translate(211.230469 0)"/>
     <use xlink:href="#LiberationSans-65" transform="translate(261.230469 0)"/>
     <use xlink:href="#LiberationSans-74" transform="translate(316.845703 0)"/>
    </g>
   </g>
   <g id="text_24">
    <!-- Asset -->
    <g style="fill: #444444" transform="translate(406.389156 287.695809) rotate(-25) scale(0.075 -0.075)">
     <defs>
      <path id="LiberationSans-41" d="M 3647 0 
L 3144 1288 
L 1138 1288 
L 631 0 
L 13 0 
L 1809 4403 
L 2488 4403 
L 4256 0 
L 3647 0 
z
M 2141 3953 
L 2113 3866 
Q 2034 3606 1881 3200 
L 1319 1753 
L 2966 1753 
L 2400 3206 
Q 2313 3422 2225 3694 
L 2141 3953 
z
" transform="scale(0.015625)"/>
     </defs>
     <use xlink:href="#LiberationSans-41"/>
     <use xlink:href="#LiberationSans-73" transform="translate(66.699219 0)"/>
     <use xlink:href="#LiberationSans-73" transform="translate(116.699219 0)"/>
     <use xlink:href="#LiberationSans-65" transform="translate(166.699219 0)"/>
     <use xlink:href="#LiberationSans-74" transform="translate(222.314453 0)"/>
    </g>
   </g>
   <g id="patch_5">
    <path d="M 417.986785 293.096804 
Q 417.986785 213.075608 417.986785 133.054412 
" style="fill: none; stroke: #444444; stroke-width: 1.3; stroke-linecap: round"/>
    <path d="M 419.986785 289.096804 
L 417.986785 293.096804 
L 415.986785 289.096804 
" style="fill: none; stroke: #444444; stroke-width: 1.3; stroke-linecap: round"/>
    <path d="M 415.986785 137.054412 
L 417.986785 133.054412 
L 419.986785 137.054412 
" style="fill: none; stroke: #444444; stroke-width: 1.3; stroke-linecap: round"/>
   </g>
   <g id="text_25">
    <!-- 9× -->
    <g style="fill: #444444" transform="translate(424.842332 210.83525) scale(0.08 -0.08)">
     <defs>
      <path id="LiberationSans-39" d="M 3256 2291 
Q 3256 1156 2842 546 
Q 2428 -63 1663 -63 
Q 1147 -63 836 154 
Q 525 372 391 856 
L 928 941 
Q 1097 391 1672 391 
Q 2156 391 2422 841 
Q 2688 1291 2700 2125 
Q 2575 1844 2272 1673 
Q 1969 1503 1606 1503 
Q 1013 1503 656 1909 
Q 300 2316 300 2988 
Q 300 3678 687 4073 
Q 1075 4469 1766 4469 
Q 2500 4469 2878 3925 
Q 3256 3381 3256 2291 
z
M 2644 2834 
Q 2644 3366 2400 3689 
Q 2156 4013 1747 4013 
Q 1341 4013 1106 3736 
Q 872 3459 872 2988 
Q 872 2506 1106 2226 
Q 1341 1947 1741 1947 
Q 1984 1947 2193 2058 
Q 2403 2169 2523 2372 
Q 2644 2575 2644 2834 
z
" transform="scale(0.015625)"/>
      <path id="LiberationSans-d7" d="M 444 1031 
L 1550 2138 
L 450 3238 
L 775 3559 
L 1869 2456 
L 2963 3553 
L 3291 3225 
L 2197 2138 
L 3297 1038 
L 2978 709 
L 1875 1813 
L 763 703 
L 444 1031 
z
" transform="scale(0.015625)"/>
     </defs>
     <use xlink:href="#LiberationSans-39"/>
     <use xlink:href="#LiberationSans-d7" transform="translate(55.615234 0)"/>
    </g>
    <!-- reduction -->
    <g style="fill: #444444" transform="translate(424.842332 219.45225) scale(0.08 -0.08)">
     <defs>
      <path id="LiberationSans-6e" d="M 2578 0 
L 2578 2144 
Q 2578 2478 2512 2662 
Q 2447 2847 2303 2928 
Q 2159 3009 1881 3009 
Q 1475 3009 1240 2731 
Q 1006 2453 1006 1959 
L 1006 0 
L 444 0 
L 444 2659 
Q 444 3250 425 3381 
L 956 3381 
Q 959 3366 962 3297 
Q 966 3228 970 3139 
Q 975 3050 981 2803 
L 991 2803 
Q 1184 3153 1439 3298 
Q 1694 3444 2072 3444 
Q 2628 3444 2886 3167 
Q 3144 2891 3144 2253 
L 3144 0 
L 2578 0 
z
" transform="scale(0.015625)"/>
     </defs>
     <use xlink:href="#LiberationSans-72"/>
     <use xlink:href="#LiberationSans-65" transform="translate(33.300781 0)"/>
     <use xlink:href="#LiberationSans-64" transform="translate(88.916016 0)"/>
     <use xlink:href="#LiberationSans-75" transform="translate(144.53125 0)"/>
     <use xlink:href="#LiberationSans-63" transform="translate(200.146484 0)"/>
     <use xlink:href="#LiberationSans-74" transform="translate(250.146484 0)"/>
     <use xlink:href="#LiberationSans-69" transform="translate(277.929688 0)"/>
     <use xlink:href="#LiberationSans-6f" transform="translate(300.146484 0)"/>
     <use xlink:href="#LiberationSans-6e" transform="translate(355.761719 0)"/>
    </g>
   </g>
   <g id="text_26">
    <!-- Case A · Spider Farmer — cumulative effort trajectory -->
    <g style="fill: #666666" transform="translate(138.42562 46) scale(0.09 -0.09)">
     <defs>
      <path id="LiberationSans-b7" d="M 760 1394 
L 760 2081 
L 1370 2081 
L 1370 1394 
L 760 1394 
z
" transform="scale(0.015625)"/>
      <path id="LiberationSans-53" d="M 3975 1216 
Q 3975 606 3498 271 
Q 3022 -63 2156 -63 
Q 547 -63 291 1056 
L 869 1172 
Q 969 775 1294 589 
Q 1619 403 2178 403 
Q 2756 403 3070 601 
Q 3384 800 3384 1184 
Q 3384 1400 3286 1534 
Q 3188 1669 3009 1756 
Q 2831 1844 2584 1903 
Q 2338 1963 2038 2031 
Q 1516 2147 1245 2262 
Q 975 2378 819 2520 
Q 663 2663 580 2853 
Q 497 3044 497 3291 
Q 497 3856 930 4162 
Q 1363 4469 2169 4469 
Q 2919 4469 3316 4239 
Q 3713 4009 3872 3456 
L 3284 3353 
Q 3188 3703 2916 3861 
Q 2644 4019 2163 4019 
Q 1634 4019 1356 3844 
Q 1078 3669 1078 3322 
Q 1078 3119 1186 2986 
Q 1294 2853 1497 2761 
Q 1700 2669 2306 2534 
Q 2509 2488 2711 2439 
Q 2913 2391 3097 2323 
Q 3281 2256 3442 2165 
Q 3603 2075 3722 1944 
Q 3841 1813 3908 1634 
Q 3975 1456 3975 1216 
z
" transform="scale(0.015625)"/>
      <path id="LiberationSans-46" d="M 1122 3916 
L 1122 2278 
L 3578 2278 
L 3578 1784 
L 1122 1784 
L 1122 0 
L 525 0 
L 525 4403 
L 3653 4403 
L 3653 3916 
L 1122 3916 
z
" transform="scale(0.015625)"/>
      <path id="LiberationSans-2014" d="M 0 1409 
L 0 1838 
L 6400 1838 
L 6400 1409 
L 0 1409 
z
" transform="scale(0.015625)"/>
      <path id="LiberationSans-6a" d="M 428 4100 
L 428 4638 
L 991 4638 
L 991 4100 
L 428 4100 
z
M 991 -419 
Q 991 -897 803 -1112 
Q 616 -1328 241 -1328 
Q 0 -1328 -156 -1300 
L -156 -866 
L 38 -884 
Q 253 -884 340 -771 
Q 428 -659 428 -334 
L 428 3381 
L 991 3381 
L 991 -419 
z
" transform="scale(0.015625)"/>
     </defs>
     <use xlink:href="#LiberationSans-43"/>
     <use xlink:href="#LiberationSans-61" transform="translate(72.216797 0)"/>
     <use xlink:href="#LiberationSans-73" transform="translate(127.832031 0)"/>
     <use xlink:href="#LiberationSans-65" transform="translate(177.832031 0)"/>
     <use xlink:href="#LiberationSans-20" transform="translate(233.447266 0)"/>
     <use xlink:href="#LiberationSans-41" transform="translate(255.730469 0)"/>
     <use xlink:href="#LiberationSans-20" transform="translate(316.929688 0)"/>
     <use xlink:href="#LiberationSans-b7" transform="translate(344.712891 0)"/>
     <use xlink:href="#LiberationSans-20" transform="translate(378.013672 0)"/>
     <use xlink:href="#LiberationSans-53" transform="translate(405.796875 0)"/>
     <use xlink:href="#LiberationSans-70" transform="translate(472.496094 0)"/>
     <use xlink:href="#LiberationSans-69" transform="translate(528.111328 0)"/>
     <use xlink:href="#LiberationSans-64" transform="translate(550.328125 0)"/>
     <use xlink:href="#LiberationSans-65" transform="translate(605.943359 0)"/>
     <use xlink:href="#LiberationSans-72" transform="translate(661.558594 0)"/>
     <use xlink:href="#LiberationSans-20" transform="translate(694.859375 0)"/>
     <use xlink:href="#LiberationSans-46" transform="translate(722.642578 0)"/>
     <use xlink:href="#LiberationSans-61" transform="translate(783.726562 0)"/>
     <use xlink:href="#LiberationSans-72" transform="translate(839.341797 0)"/>
     <use xlink:href="#LiberationSans-6d" transform="translate(872.642578 0)"/>
     <use xlink:href="#LiberationSans-65" transform="translate(955.943359 0)"/>
     <use xlink:href="#LiberationSans-72" transform="translate(1011.558594 0)"/>
     <use xlink:href="#LiberationSans-20" transform="translate(1044.859375 0)"/>
     <use xlink:href="#LiberationSans-2014" transform="translate(1072.642578 0)"/>
     <use xlink:href="#LiberationSans-20" transform="translate(1172.642578 0)"/>
     <use xlink:href="#LiberationSans-63" transform="translate(1200.425781 0)"/>
     <use xlink:href="#LiberationSans-75" transform="translate(1250.425781 0)"/>
     <use xlink:href="#LiberationSans-6d" transform="translate(1306.041016 0)"/>
     <use xlink:href="#LiberationSans-75" transform="translate(1389.341797 0)"/>
     <use xlink:href="#LiberationSans-6c" transform="translate(1444.957031 0)"/>
     <use xlink:href="#LiberationSans-61" transform="translate(1467.173828 0)"/>
     <use xlink:href="#LiberationSans-74" transform="translate(1522.789062 0)"/>
     <use xlink:href="#LiberationSans-69" transform="translate(1550.572266 0)"/>
     <use xlink:href="#LiberationSans-76" transform="translate(1572.789062 0)"/>
     <use xlink:href="#LiberationSans-65" transform="translate(1622.789062 0)"/>
     <use xlink:href="#LiberationSans-20" transform="translate(1678.404297 0)"/>
     <use xlink:href="#LiberationSans-65" transform="translate(1706.1875 0)"/>
     <use xlink:href="#LiberationSans-66" transform="translate(1761.802734 0)"/>
     <use xlink:href="#LiberationSans-66" transform="translate(1787.835938 0)"/>
     <use xlink:href="#LiberationSans-6f" transform="translate(1815.619141 0)"/>
     <use xlink:href="#LiberationSans-72" transform="translate(1871.234375 0)"/>
     <use xlink:href="#LiberationSans-74" transform="translate(1904.535156 0)"/>
     <use xlink:href="#LiberationSans-20" transform="translate(1932.318359 0)"/>
     <use xlink:href="#LiberationSans-74" transform="translate(1960.101562 0)"/>
     <use xlink:href="#LiberationSans-72" transform="translate(1987.884766 0)"/>
     <use xlink:href="#LiberationSans-61" transform="translate(2021.185547 0)"/>
     <use xlink:href="#LiberationSans-6a" transform="translate(2076.800781 0)"/>
     <use xlink:href="#LiberationSans-65" transform="translate(2099.017578 0)"/>
     <use xlink:href="#LiberationSans-63" transform="translate(2154.632812 0)"/>
     <use xlink:href="#LiberationSans-74" transform="translate(2204.632812 0)"/>
     <use xlink:href="#LiberationSans-6f" transform="translate(2232.416016 0)"/>
     <use xlink:href="#LiberationSans-72" transform="translate(2288.03125 0)"/>
     <use xlink:href="#LiberationSans-79" transform="translate(2321.332031 0)"/>
    </g>
   </g>
   <g id="line2d_37">
    <path d="M 71.291965 318.6 
L 120.26016 314.4 
L 169.228355 308.1 
L 218.19655 306 
L 267.164745 301.8 
L 316.13294 299.7 
L 365.101135 297.6 
L 414.06933 296.55 
" clip-path="url(#p60e20a1785)" style="fill: none; stroke: #00658b; stroke-width: 2.4; stroke-linecap: round"/>
    <defs>
     <path id="m46acb73c35" d="M 0 2.5 
C 0.663008 2.5 1.29895 2.236584 1.767767 1.767767 
C 2.236584 1.29895 2.5 0.663008 2.5 0 
C 2.5 -0.663008 2.236584 -1.29895 1.767767 -1.767767 
C 1.29895 -2.236584 0.663008 -2.5 0 -2.5 
C -0.663008 -2.5 -1.29895 -2.236584 -1.767767 -1.767767 
C -2.236584 -1.29895 -2.5 -0.663008 -2.5 0 
C -2.5 0.663008 -2.236584 1.29895 -1.767767 1.767767 
C -1.29895 2.236584 -0.663008 2.5 0 2.5 
z
" style="stroke: #00658b"/>
    </defs>
    <g clip-path="url(#p60e20a1785)">
     <use xlink:href="#m46acb73c35" x="71.291965" y="318.6" style="fill: #00658b; stroke: #00658b"/>
     <use xlink:href="#m46acb73c35" x="120.26016" y="314.4" style="fill: #00658b; stroke: #00658b"/>
     <use xlink:href="#m46acb73c35" x="169.228355" y="308.1" style="fill: #00658b; stroke: #00658b"/>
     <use xlink:href="#m46acb73c35" x="218.19655" y="306" style="fill: #00658b; stroke: #00658b"/>
     <use xlink:href="#m46acb73c35" x="267.164745" y="301.8" style="fill: #00658b; stroke: #00658b"/>
     <use xlink:href="#m46acb73c35" x="316.13294" y="299.7" style="fill: #00658b; stroke: #00658b"/>
     <use xlink:href="#m46acb73c35" x="365.101135" y="297.6" style="fill: #00658b; stroke: #00658b"/>
     <use xlink:href="#m46acb73c35" x="414.06933" y="296.55" style="fill: #00658b; stroke: #00658b"/>
    </g>
   </g>
   <g id="legend_1">
    <g id="patch_6">
     <path d="M 59.354688 67.809844 
L 76.354688 67.809844 
L 76.354688 61.859844 
L 59.354688 61.859844 
z
" style="fill: #a7d3ec; fill-opacity: 0.55; stroke: #a7d3ec; stroke-opacity: 0.55; stroke-linejoin: miter"/>
    </g>
    <g id="text_27">
     <!-- Effort gap -->
     <g transform="translate(83.154688 67.809844) scale(0.085 -0.085)">
      <defs>
       <path id="LiberationSans-45" d="M 525 0 
L 525 4403 
L 3866 4403 
L 3866 3916 
L 1122 3916 
L 1122 2503 
L 3678 2503 
L 3678 2022 
L 1122 2022 
L 1122 488 
L 3994 488 
L 3994 0 
L 525 0 
z
" transform="scale(0.015625)"/>
      </defs>
      <use xlink:href="#LiberationSans-45"/>
      <use xlink:href="#LiberationSans-66" transform="translate(66.699219 0)"/>
      <use xlink:href="#LiberationSans-66" transform="translate(92.732422 0)"/>
      <use xlink:href="#LiberationSans-6f" transform="translate(120.515625 0)"/>
      <use xlink:href="#LiberationSans-72" transform="translate(176.130859 0)"/>
      <use xlink:href="#LiberationSans-74" transform="translate(209.431641 0)"/>
      <use xlink:href="#LiberationSans-20" transform="translate(237.214844 0)"/>
      <use xlink:href="#LiberationSans-67" transform="translate(264.998047 0)"/>
      <use xlink:href="#LiberationSans-61" transform="translate(320.613281 0)"/>
      <use xlink:href="#LiberationSans-70" transform="translate(376.228516 0)"/>
     </g>
    </g>
    <g id="line2d_38">
     <path d="M 59.354688 77.008437 
L 67.854688 77.008437 
L 76.354688 77.008437 
" style="fill: none; stroke: #b1b1b1; stroke-width: 2.2; stroke-linecap: round"/>
     <g>
      <use xlink:href="#m4303a8aad6" x="67.854688" y="77.008437" style="fill: #b1b1b1; stroke: #b1b1b1"/>
     </g>
    </g>
    <g id="text_28">
     <!-- Manual baseline (est.) -->
     <g transform="translate(83.154688 79.983437) scale(0.085 -0.085)">
      <defs>
       <path id="LiberationSans-4d" d="M 4269 0 
L 4269 2938 
Q 4269 3425 4297 3875 
Q 4144 3316 4022 3000 
L 2884 0 
L 2466 0 
L 1313 3000 
L 1138 3531 
L 1034 3875 
L 1044 3528 
L 1056 2938 
L 1056 0 
L 525 0 
L 525 4403 
L 1309 4403 
L 2481 1350 
Q 2544 1166 2601 955 
Q 2659 744 2678 650 
Q 2703 775 2783 1029 
Q 2863 1284 2891 1350 
L 4041 4403 
L 4806 4403 
L 4806 0 
L 4269 0 
z
" transform="scale(0.015625)"/>
       <path id="LiberationSans-2e" d="M 584 0 
L 584 684 
L 1194 684 
L 1194 0 
L 584 0 
z
" transform="scale(0.015625)"/>
      </defs>
      <use xlink:href="#LiberationSans-4d"/>
      <use xlink:href="#LiberationSans-61" transform="translate(83.300781 0)"/>
      <use xlink:href="#LiberationSans-6e" transform="translate(138.916016 0)"/>
      <use xlink:href="#LiberationSans-75" transform="translate(194.53125 0)"/>
      <use xlink:href="#LiberationSans-61" transform="translate(250.146484 0)"/>
      <use xlink:href="#LiberationSans-6c" transform="translate(305.761719 0)"/>
      <use xlink:href="#LiberationSans-20" transform="translate(327.978516 0)"/>
      <use xlink:href="#LiberationSans-62" transform="translate(355.761719 0)"/>
      <use xlink:href="#LiberationSans-61" transform="translate(411.376953 0)"/>
      <use xlink:href="#LiberationSans-73" transform="translate(466.992188 0)"/>
      <use xlink:href="#LiberationSans-65" transform="translate(516.992188 0)"/>
      <use xlink:href="#LiberationSans-6c" transform="translate(572.607422 0)"/>
      <use xlink:href="#LiberationSans-69" transform="translate(594.824219 0)"/>
      <use xlink:href="#LiberationSans-6e" transform="translate(617.041016 0)"/>
      <use xlink:href="#LiberationSans-65" transform="translate(672.65625 0)"/>
      <use xlink:href="#LiberationSans-20" transform="translate(728.271484 0)"/>
      <use xlink:href="#LiberationSans-28" transform="translate(756.054688 0)"/>
      <use xlink:href="#LiberationSans-65" transform="translate(789.355469 0)"/>
      <use xlink:href="#LiberationSans-73" transform="translate(844.970703 0)"/>
      <use xlink:href="#LiberationSans-74" transform="translate(894.970703 0)"/>
      <use xlink:href="#LiberationSans-2e" transform="translate(922.753906 0)"/>
      <use xlink:href="#LiberationSans-29" transform="translate(950.537109 0)"/>
     </g>
    </g>
    <g id="line2d_39">
     <path d="M 59.354688 89.182031 
L 67.854688 89.182031 
L 76.354688 89.182031 
" style="fill: none; stroke: #00658b; stroke-width: 2.4; stroke-linecap: round"/>
     <g>
      <use xlink:href="#m46acb73c35" x="67.854688" y="89.182031" style="fill: #00658b; stroke: #00658b"/>
     </g>
    </g>
    <g id="text_29">
     <!-- AI-assisted (actual) -->
     <g transform="translate(83.154688 92.157031) scale(0.085 -0.085)">
      <defs>
       <path id="LiberationSans-49" d="M 591 0 
L 591 4403 
L 1188 4403 
L 1188 0 
L 591 0 
z
" transform="scale(0.015625)"/>
       <path id="LiberationSans-2d" d="M 284 1450 
L 284 1950 
L 1847 1950 
L 1847 1450 
L 284 1450 
z
" transform="scale(0.015625)"/>
      </defs>
      <use xlink:href="#LiberationSans-41"/>
      <use xlink:href="#LiberationSans-49" transform="translate(66.699219 0)"/>
      <use xlink:href="#LiberationSans-2d" transform="translate(94.482422 0)"/>
      <use xlink:href="#LiberationSans-61" transform="translate(127.783203 0)"/>
      <use xlink:href="#LiberationSans-73" transform="translate(183.398438 0)"/>
      <use xlink:href="#LiberationSans-73" transform="translate(233.398438 0)"/>
      <use xlink:href="#LiberationSans-69" transform="translate(283.398438 0)"/>
      <use xlink:href="#LiberationSans-73" transform="translate(305.615234 0)"/>
      <use xlink:href="#LiberationSans-74" transform="translate(355.615234 0)"/>
      <use xlink:href="#LiberationSans-65" transform="translate(383.398438 0)"/>
      <use xlink:href="#LiberationSans-64" transform="translate(439.013672 0)"/>
      <use xlink:href="#LiberationSans-20" transform="translate(494.628906 0)"/>
      <use xlink:href="#LiberationSans-28" transform="translate(522.412109 0)"/>
      <use xlink:href="#LiberationSans-61" transform="translate(555.712891 0)"/>
      <use xlink:href="#LiberationSans-63" transform="translate(611.328125 0)"/>
      <use xlink:href="#LiberationSans-74" transform="translate(661.328125 0)"/>
      <use xlink:href="#LiberationSans-75" transform="translate(689.111328 0)"/>
      <use xlink:href="#LiberationSans-61" transform="translate(744.726562 0)"/>
      <use xlink:href="#LiberationSans-6c" transform="translate(800.341797 0)"/>
      <use xlink:href="#LiberationSans-29" transform="translate(822.558594 0)"/>
     </g>
    </g>
   </g>
  </g>
  <g id="axes_2">
   <g id="patch_7">
    <path d="M 545.464351 331.2 
L 721.304688 331.2 
L 721.304688 54 
L 545.464351 54 
z
" style="fill: #ffffff"/>
   </g>
   <g id="matplotlib.axis_3">
    <g id="xtick_9">
     <g id="line2d_40">
      <g>
       <use xlink:href="#md376efa723" x="570.696343" y="336.2" style="stroke: #000000; stroke-width: 1.25"/>
      </g>
     </g>
     <g id="text_30">
      <!-- Spider -->
      <g transform="translate(556.243999 352.946875) scale(0.1 -0.1)">
       <use xlink:href="#LiberationSans-53"/>
       <use xlink:href="#LiberationSans-70" transform="translate(66.699219 0)"/>
       <use xlink:href="#LiberationSans-69" transform="translate(122.314453 0)"/>
       <use xlink:href="#LiberationSans-64" transform="translate(144.53125 0)"/>
       <use xlink:href="#LiberationSans-65" transform="translate(200.146484 0)"/>
       <use xlink:href="#LiberationSans-72" transform="translate(255.761719 0)"/>
      </g>
      <!-- Farmer -->
      <g transform="translate(554.586968 363.718125) scale(0.1 -0.1)">
       <use xlink:href="#LiberationSans-46"/>
       <use xlink:href="#LiberationSans-61" transform="translate(61.083984 0)"/>
       <use xlink:href="#LiberationSans-72" transform="translate(116.699219 0)"/>
       <use xlink:href="#LiberationSans-6d" transform="translate(150 0)"/>
       <use xlink:href="#LiberationSans-65" transform="translate(233.300781 0)"/>
       <use xlink:href="#LiberationSans-72" transform="translate(288.916016 0)"/>
      </g>
     </g>
    </g>
    <g id="xtick_10">
     <g id="line2d_41">
      <g>
       <use xlink:href="#md376efa723" x="633.384519" y="336.2" style="stroke: #000000; stroke-width: 1.25"/>
      </g>
     </g>
     <g id="text_31">
      <!-- EcoFlow -->
      <g transform="translate(614.212644 352.946875) scale(0.1 -0.1)">
       <use xlink:href="#LiberationSans-45"/>
       <use xlink:href="#LiberationSans-63" transform="translate(66.699219 0)"/>
       <use xlink:href="#LiberationSans-6f" transform="translate(116.699219 0)"/>
       <use xlink:href="#LiberationSans-46" transform="translate(172.314453 0)"/>
       <use xlink:href="#LiberationSans-6c" transform="translate(233.398438 0)"/>
       <use xlink:href="#LiberationSans-6f" transform="translate(255.615234 0)"/>
       <use xlink:href="#LiberationSans-77" transform="translate(311.230469 0)"/>
      </g>
      <!-- PowerOcean -->
      <g transform="translate(604.482176 363.718125) scale(0.1 -0.1)">
       <defs>
        <path id="LiberationSans-50" d="M 3931 3078 
Q 3931 2453 3523 2084 
Q 3116 1716 2416 1716 
L 1122 1716 
L 1122 0 
L 525 0 
L 525 4403 
L 2378 4403 
Q 3119 4403 3525 4056 
Q 3931 3709 3931 3078 
z
M 3331 3072 
Q 3331 3925 2306 3925 
L 1122 3925 
L 1122 2188 
L 2331 2188 
Q 3331 2188 3331 3072 
z
" transform="scale(0.015625)"/>
        <path id="LiberationSans-4f" d="M 4672 2222 
Q 4672 1531 4408 1012 
Q 4144 494 3650 215 
Q 3156 -63 2484 -63 
Q 1806 -63 1314 212 
Q 822 488 562 1008 
Q 303 1528 303 2222 
Q 303 3278 881 3873 
Q 1459 4469 2491 4469 
Q 3163 4469 3656 4201 
Q 4150 3934 4411 3425 
Q 4672 2916 4672 2222 
z
M 4063 2222 
Q 4063 3044 3652 3512 
Q 3241 3981 2491 3981 
Q 1734 3981 1321 3518 
Q 909 3056 909 2222 
Q 909 1394 1326 908 
Q 1744 422 2484 422 
Q 3247 422 3655 892 
Q 4063 1363 4063 2222 
z
" transform="scale(0.015625)"/>
       </defs>
       <use xlink:href="#LiberationSans-50"/>
       <use xlink:href="#LiberationSans-6f" transform="translate(66.699219 0)"/>
       <use xlink:href="#LiberationSans-77" transform="translate(122.314453 0)"/>
       <use xlink:href="#LiberationSans-65" transform="translate(194.53125 0)"/>
       <use xlink:href="#LiberationSans-72" transform="translate(250.146484 0)"/>
       <use xlink:href="#LiberationSans-4f" transform="translate(283.447266 0)"/>
       <use xlink:href="#LiberationSans-63" transform="translate(361.230469 0)"/>
       <use xlink:href="#LiberationSans-65" transform="translate(411.230469 0)"/>
       <use xlink:href="#LiberationSans-61" transform="translate(466.845703 0)"/>
       <use xlink:href="#LiberationSans-6e" transform="translate(522.460938 0)"/>
      </g>
     </g>
    </g>
    <g id="xtick_11">
     <g id="line2d_42">
      <g>
       <use xlink:href="#md376efa723" x="696.072696" y="336.2" style="stroke: #000000; stroke-width: 1.25"/>
      </g>
     </g>
     <g id="text_32">
      <!-- Meta- -->
      <g transform="translate(683.293009 352.946875) scale(0.1 -0.1)">
       <use xlink:href="#LiberationSans-4d"/>
       <use xlink:href="#LiberationSans-65" transform="translate(83.300781 0)"/>
       <use xlink:href="#LiberationSans-74" transform="translate(138.916016 0)"/>
       <use xlink:href="#LiberationSans-61" transform="translate(166.699219 0)"/>
       <use xlink:href="#LiberationSans-2d" transform="translate(222.314453 0)"/>
      </g>
      <!-- process -->
      <g transform="translate(678.566446 363.718125) scale(0.1 -0.1)">
       <use xlink:href="#LiberationSans-70"/>
       <use xlink:href="#LiberationSans-72" transform="translate(55.615234 0)"/>
       <use xlink:href="#LiberationSans-6f" transform="translate(88.916016 0)"/>
       <use xlink:href="#LiberationSans-63" transform="translate(144.53125 0)"/>
       <use xlink:href="#LiberationSans-65" transform="translate(194.53125 0)"/>
       <use xlink:href="#LiberationSans-73" transform="translate(250.146484 0)"/>
       <use xlink:href="#LiberationSans-73" transform="translate(300.146484 0)"/>
      </g>
     </g>
    </g>
   </g>
   <g id="matplotlib.axis_4">
    <g id="ytick_28">
     <g id="line2d_43">
      <g>
       <use xlink:href="#m996b5f52bc" x="540.464351" y="331.2" style="stroke: #000000; stroke-width: 1.25"/>
      </g>
     </g>
     <g id="text_33">
      <!-- 0.0 -->
      <g transform="translate(517.064351 334.823438) scale(0.1 -0.1)">
       <use xlink:href="#LiberationSans-30"/>
       <use xlink:href="#LiberationSans-2e" transform="translate(55.615234 0)"/>
       <use xlink:href="#LiberationSans-30" transform="translate(83.398438 0)"/>
      </g>
     </g>
    </g>
    <g id="ytick_29">
     <g id="line2d_44">
      <g>
       <use xlink:href="#m996b5f52bc" x="540.464351" y="296.55" style="stroke: #000000; stroke-width: 1.25"/>
      </g>
     </g>
     <g id="text_34">
      <!-- 2.5 -->
      <g transform="translate(517.064351 300.173437) scale(0.1 -0.1)">
       <use xlink:href="#LiberationSans-32"/>
       <use xlink:href="#LiberationSans-2e" transform="translate(55.615234 0)"/>
       <use xlink:href="#LiberationSans-35" transform="translate(83.398438 0)"/>
      </g>
     </g>
    </g>
    <g id="ytick_30">
     <g id="line2d_45">
      <g>
       <use xlink:href="#m996b5f52bc" x="540.464351" y="261.9" style="stroke: #000000; stroke-width: 1.25"/>
      </g>
     </g>
     <g id="text_35">
      <!-- 5.0 -->
      <g transform="translate(517.064351 265.523438) scale(0.1 -0.1)">
       <use xlink:href="#LiberationSans-35"/>
       <use xlink:href="#LiberationSans-2e" transform="translate(55.615234 0)"/>
       <use xlink:href="#LiberationSans-30" transform="translate(83.398438 0)"/>
      </g>
     </g>
    </g>
    <g id="ytick_31">
     <g id="line2d_46">
      <g>
       <use xlink:href="#m996b5f52bc" x="540.464351" y="227.25" style="stroke: #000000; stroke-width: 1.25"/>
      </g>
     </g>
     <g id="text_36">
      <!-- 7.5 -->
      <g transform="translate(517.064351 230.873437) scale(0.1 -0.1)">
       <use xlink:href="#LiberationSans-37"/>
       <use xlink:href="#LiberationSans-2e" transform="translate(55.615234 0)"/>
       <use xlink:href="#LiberationSans-35" transform="translate(83.398438 0)"/>
      </g>
     </g>
    </g>
    <g id="ytick_32">
     <g id="line2d_47">
      <g>
       <use xlink:href="#m996b5f52bc" x="540.464351" y="192.6" style="stroke: #000000; stroke-width: 1.25"/>
      </g>
     </g>
     <g id="text_37">
      <!-- 10.0 -->
      <g transform="translate(511.503414 196.223437) scale(0.1 -0.1)">
       <use xlink:href="#LiberationSans-31"/>
       <use xlink:href="#LiberationSans-30" transform="translate(55.615234 0)"/>
       <use xlink:href="#LiberationSans-2e" transform="translate(111.230469 0)"/>
       <use xlink:href="#LiberationSans-30" transform="translate(139.013672 0)"/>
      </g>
     </g>
    </g>
    <g id="ytick_33">
     <g id="line2d_48">
      <g>
       <use xlink:href="#m996b5f52bc" x="540.464351" y="157.95" style="stroke: #000000; stroke-width: 1.25"/>
      </g>
     </g>
     <g id="text_38">
      <!-- 12.5 -->
      <g transform="translate(511.503414 161.573437) scale(0.1 -0.1)">
       <use xlink:href="#LiberationSans-31"/>
       <use xlink:href="#LiberationSans-32" transform="translate(55.615234 0)"/>
       <use xlink:href="#LiberationSans-2e" transform="translate(111.230469 0)"/>
       <use xlink:href="#LiberationSans-35" transform="translate(139.013672 0)"/>
      </g>
     </g>
    </g>
    <g id="ytick_34">
     <g id="line2d_49">
      <g>
       <use xlink:href="#m996b5f52bc" x="540.464351" y="123.3" style="stroke: #000000; stroke-width: 1.25"/>
      </g>
     </g>
     <g id="text_39">
      <!-- 15.0 -->
      <g transform="translate(511.503414 126.923437) scale(0.1 -0.1)">
       <use xlink:href="#LiberationSans-31"/>
       <use xlink:href="#LiberationSans-35" transform="translate(55.615234 0)"/>
       <use xlink:href="#LiberationSans-2e" transform="translate(111.230469 0)"/>
       <use xlink:href="#LiberationSans-30" transform="translate(139.013672 0)"/>
      </g>
     </g>
    </g>
    <g id="ytick_35">
     <g id="line2d_50">
      <g>
       <use xlink:href="#m996b5f52bc" x="540.464351" y="88.65" style="stroke: #000000; stroke-width: 1.25"/>
      </g>
     </g>
     <g id="text_40">
      <!-- 17.5 -->
      <g transform="translate(511.503414 92.273437) scale(0.1 -0.1)">
       <use xlink:href="#LiberationSans-31"/>
       <use xlink:href="#LiberationSans-37" transform="translate(55.615234 0)"/>
       <use xlink:href="#LiberationSans-2e" transform="translate(111.230469 0)"/>
       <use xlink:href="#LiberationSans-35" transform="translate(139.013672 0)"/>
      </g>
     </g>
    </g>
    <g id="ytick_36">
     <g id="line2d_51">
      <g>
       <use xlink:href="#m996b5f52bc" x="540.464351" y="54" style="stroke: #000000; stroke-width: 1.25"/>
      </g>
     </g>
     <g id="text_41">
      <!-- 20.0 -->
      <g transform="translate(511.503414 57.623437) scale(0.1 -0.1)">
       <use xlink:href="#LiberationSans-32"/>
       <use xlink:href="#LiberationSans-30" transform="translate(55.615234 0)"/>
       <use xlink:href="#LiberationSans-2e" transform="translate(111.230469 0)"/>
       <use xlink:href="#LiberationSans-30" transform="translate(139.013672 0)"/>
      </g>
     </g>
    </g>
    <g id="ytick_37">
     <g id="line2d_52">
      <g>
       <use xlink:href="#mae9d690ded" x="540.464351" y="317.34" style="stroke: #000000"/>
      </g>
     </g>
    </g>
    <g id="ytick_38">
     <g id="line2d_53">
      <g>
       <use xlink:href="#mae9d690ded" x="540.464351" y="303.48" style="stroke: #000000"/>
      </g>
     </g>
    </g>
    <g id="ytick_39">
     <g id="line2d_54">
      <g>
       <use xlink:href="#mae9d690ded" x="540.464351" y="289.62" style="stroke: #000000"/>
      </g>
     </g>
    </g>
    <g id="ytick_40">
     <g id="line2d_55">
      <g>
       <use xlink:href="#mae9d690ded" x="540.464351" y="275.76" style="stroke: #000000"/>
      </g>
     </g>
    </g>
    <g id="ytick_41">
     <g id="line2d_56">
      <g>
       <use xlink:href="#mae9d690ded" x="540.464351" y="248.04" style="stroke: #000000"/>
      </g>
     </g>
    </g>
    <g id="ytick_42">
     <g id="line2d_57">
      <g>
       <use xlink:href="#mae9d690ded" x="540.464351" y="234.18" style="stroke: #000000"/>
      </g>
     </g>
    </g>
    <g id="ytick_43">
     <g id="line2d_58">
      <g>
       <use xlink:href="#mae9d690ded" x="540.464351" y="220.32" style="stroke: #000000"/>
      </g>
     </g>
    </g>
    <g id="ytick_44">
     <g id="line2d_59">
      <g>
       <use xlink:href="#mae9d690ded" x="540.464351" y="206.46" style="stroke: #000000"/>
      </g>
     </g>
    </g>
    <g id="ytick_45">
     <g id="line2d_60">
      <g>
       <use xlink:href="#mae9d690ded" x="540.464351" y="178.74" style="stroke: #000000"/>
      </g>
     </g>
    </g>
    <g id="ytick_46">
     <g id="line2d_61">
      <g>
       <use xlink:href="#mae9d690ded" x="540.464351" y="164.88" style="stroke: #000000"/>
      </g>
     </g>
    </g>
    <g id="ytick_47">
     <g id="line2d_62">
      <g>
       <use xlink:href="#mae9d690ded" x="540.464351" y="151.02" style="stroke: #000000"/>
      </g>
     </g>
    </g>
    <g id="ytick_48">
     <g id="line2d_63">
      <g>
       <use xlink:href="#mae9d690ded" x="540.464351" y="137.16" style="stroke: #000000"/>
      </g>
     </g>
    </g>
    <g id="ytick_49">
     <g id="line2d_64">
      <g>
       <use xlink:href="#mae9d690ded" x="540.464351" y="109.44" style="stroke: #000000"/>
      </g>
     </g>
    </g>
    <g id="ytick_50">
     <g id="line2d_65">
      <g>
       <use xlink:href="#mae9d690ded" x="540.464351" y="95.58" style="stroke: #000000"/>
      </g>
     </g>
    </g>
    <g id="ytick_51">
     <g id="line2d_66">
      <g>
       <use xlink:href="#mae9d690ded" x="540.464351" y="81.72" style="stroke: #000000"/>
      </g>
     </g>
    </g>
    <g id="ytick_52">
     <g id="line2d_67">
      <g>
       <use xlink:href="#mae9d690ded" x="540.464351" y="67.86" style="stroke: #000000"/>
      </g>
     </g>
    </g>
    <g id="text_42">
     <!-- Effort-gap metric [AI h / manual h, %] -->
     <g transform="translate(505.428414 274.485156) rotate(-90) scale(0.1 -0.1)">
      <defs>
       <path id="LiberationSans-5b" d="M 456 -1328 
L 456 4638 
L 1728 4638 
L 1728 4234 
L 1000 4234 
L 1000 -925 
L 1728 -925 
L 1728 -1328 
L 456 -1328 
z
" transform="scale(0.015625)"/>
       <path id="LiberationSans-2f" d="M 0 -63 
L 1284 4638 
L 1778 4638 
L 506 -63 
L 0 -63 
z
" transform="scale(0.015625)"/>
       <path id="LiberationSans-2c" d="M 1203 684 
L 1203 159 
Q 1203 -172 1143 -394 
Q 1084 -616 959 -819 
L 575 -819 
Q 869 -394 869 0 
L 594 0 
L 594 684 
L 1203 684 
z
" transform="scale(0.015625)"/>
       <path id="LiberationSans-25" d="M 5463 1356 
Q 5463 684 5209 323 
Q 4956 -38 4463 -38 
Q 3975 -38 3726 314 
Q 3478 666 3478 1356 
Q 3478 2069 3717 2417 
Q 3956 2766 4475 2766 
Q 4988 2766 5225 2408 
Q 5463 2050 5463 1356 
z
M 1647 0 
L 1163 0 
L 4044 4403 
L 4534 4403 
L 1647 0 
z
M 1231 4441 
Q 1728 4441 1968 4091 
Q 2209 3741 2209 3047 
Q 2209 2369 1961 2003 
Q 1713 1638 1219 1638 
Q 725 1638 476 2000 
Q 228 2363 228 3047 
Q 228 3744 468 4092 
Q 709 4441 1231 4441 
z
M 5000 1356 
Q 5000 1916 4879 2167 
Q 4759 2419 4475 2419 
Q 4191 2419 4064 2172 
Q 3938 1925 3938 1356 
Q 3938 822 4061 564 
Q 4184 306 4469 306 
Q 4744 306 4872 567 
Q 5000 828 5000 1356 
z
M 1750 3047 
Q 1750 3597 1631 3850 
Q 1513 4103 1231 4103 
Q 938 4103 813 3854 
Q 688 3606 688 3047 
Q 688 2506 813 2248 
Q 938 1991 1225 1991 
Q 1497 1991 1623 2253 
Q 1750 2516 1750 3047 
z
" transform="scale(0.015625)"/>
       <path id="LiberationSans-5d" d="M 50 -1328 
L 50 -925 
L 778 -925 
L 778 4234 
L 50 4234 
L 50 4638 
L 1322 4638 
L 1322 -1328 
L 50 -1328 
z
" transform="scale(0.015625)"/>
      </defs>
      <use xlink:href="#LiberationSans-45"/>
      <use xlink:href="#LiberationSans-66" transform="translate(66.699219 0)"/>
      <use xlink:href="#LiberationSans-66" transform="translate(92.732422 0)"/>
      <use xlink:href="#LiberationSans-6f" transform="translate(120.515625 0)"/>
      <use xlink:href="#LiberationSans-72" transform="translate(176.130859 0)"/>
      <use xlink:href="#LiberationSans-74" transform="translate(209.431641 0)"/>
      <use xlink:href="#LiberationSans-2d" transform="translate(237.214844 0)"/>
      <use xlink:href="#LiberationSans-67" transform="translate(270.515625 0)"/>
      <use xlink:href="#LiberationSans-61" transform="translate(326.130859 0)"/>
      <use xlink:href="#LiberationSans-70" transform="translate(381.746094 0)"/>
      <use xlink:href="#LiberationSans-20" transform="translate(437.361328 0)"/>
      <use xlink:href="#LiberationSans-6d" transform="translate(465.144531 0)"/>
      <use xlink:href="#LiberationSans-65" transform="translate(548.445312 0)"/>
      <use xlink:href="#LiberationSans-74" transform="translate(604.060547 0)"/>
      <use xlink:href="#LiberationSans-72" transform="translate(631.84375 0)"/>
      <use xlink:href="#LiberationSans-69" transform="translate(665.144531 0)"/>
      <use xlink:href="#LiberationSans-63" transform="translate(687.361328 0)"/>
      <use xlink:href="#LiberationSans-20" transform="translate(737.361328 0)"/>
      <use xlink:href="#LiberationSans-5b" transform="translate(765.144531 0)"/>
      <use xlink:href="#LiberationSans-41" transform="translate(792.927734 0)"/>
      <use xlink:href="#LiberationSans-49" transform="translate(859.626953 0)"/>
      <use xlink:href="#LiberationSans-20" transform="translate(887.410156 0)"/>
      <use xlink:href="#LiberationSans-68" transform="translate(915.193359 0)"/>
      <use xlink:href="#LiberationSans-20" transform="translate(970.808594 0)"/>
      <use xlink:href="#LiberationSans-2f" transform="translate(998.591797 0)"/>
      <use xlink:href="#LiberationSans-20" transform="translate(1026.375 0)"/>
      <use xlink:href="#LiberationSans-6d" transform="translate(1054.158203 0)"/>
      <use xlink:href="#LiberationSans-61" transform="translate(1137.458984 0)"/>
      <use xlink:href="#LiberationSans-6e" transform="translate(1193.074219 0)"/>
      <use xlink:href="#LiberationSans-75" transform="translate(1248.689453 0)"/>
      <use xlink:href="#LiberationSans-61" transform="translate(1304.304688 0)"/>
      <use xlink:href="#LiberationSans-6c" transform="translate(1359.919922 0)"/>
      <use xlink:href="#LiberationSans-20" transform="translate(1382.136719 0)"/>
      <use xlink:href="#LiberationSans-68" transform="translate(1409.919922 0)"/>
      <use xlink:href="#LiberationSans-2c" transform="translate(1465.535156 0)"/>
      <use xlink:href="#LiberationSans-20" transform="translate(1493.318359 0)"/>
      <use xlink:href="#LiberationSans-25" transform="translate(1521.101562 0)"/>
      <use xlink:href="#LiberationSans-5d" transform="translate(1610.017578 0)"/>
     </g>
    </g>
   </g>
   <g id="patch_8">
    <path d="M 540.464351 331.2 
L 540.464351 54 
" style="fill: none; stroke: #262626; stroke-width: 1.25; stroke-linejoin: miter; stroke-linecap: square"/>
   </g>
   <g id="patch_9">
    <path d="M 545.464351 336.2 
L 721.304688 336.2 
" style="fill: none; stroke: #262626; stroke-width: 1.25; stroke-linejoin: miter; stroke-linecap: square"/>
   </g>
   <g id="patch_10">
    <path d="M 553.457094 331.2 
L 587.935591 331.2 
L 587.935591 164.88 
L 553.457094 164.88 
z
" clip-path="url(#p7d99f40433)" style="fill: #00658b; opacity: 0.88; stroke: #ffffff; stroke-linejoin: miter"/>
   </g>
   <g id="patch_11">
    <path d="M 616.145271 331.2 
L 650.623768 331.2 
L 650.623768 234.18 
L 616.145271 234.18 
z
" clip-path="url(#p7d99f40433)" style="fill: #82a043; opacity: 0.88; stroke: #ffffff; stroke-linejoin: miter"/>
   </g>
   <g id="patch_12">
    <path d="M 678.833448 331.2 
L 713.311945 331.2 
L 713.311945 261.9 
L 678.833448 261.9 
z
" clip-path="url(#p7d99f40433)" style="fill: #d2ae3d; opacity: 0.88; stroke: #ffffff; stroke-linejoin: miter"/>
   </g>
   <g id="text_43">
    <!-- 12 % -->
    <g style="fill: #444444" transform="translate(562.149272 151.087312) scale(0.075 -0.075)">
     <use xlink:href="#LiberationSans-31"/>
     <use xlink:href="#LiberationSans-32" transform="translate(55.615234 0)"/>
     <use xlink:href="#LiberationSans-20" transform="translate(111.230469 0)"/>
     <use xlink:href="#LiberationSans-25" transform="translate(139.013672 0)"/>
    </g>
    <!-- (10.5 h / ~90 h) -->
    <g style="fill: #444444" transform="translate(545.1606 159.16575) scale(0.075 -0.075)">
     <defs>
      <path id="LiberationSans-7e" d="M 2638 1728 
Q 2422 1728 2195 1797 
Q 1969 1866 1741 1947 
Q 1338 2088 1063 2088 
Q 853 2088 672 2023 
Q 491 1959 288 1813 
L 288 2259 
Q 634 2522 1109 2522 
Q 1272 2522 1470 2481 
Q 1669 2441 2075 2297 
Q 2172 2259 2359 2207 
Q 2547 2156 2688 2156 
Q 3094 2156 3450 2444 
L 3450 1978 
Q 3269 1847 3086 1787 
Q 2903 1728 2638 1728 
z
" transform="scale(0.015625)"/>
     </defs>
     <use xlink:href="#LiberationSans-28"/>
     <use xlink:href="#LiberationSans-31" transform="translate(33.300781 0)"/>
     <use xlink:href="#LiberationSans-30" transform="translate(88.916016 0)"/>
     <use xlink:href="#LiberationSans-2e" transform="translate(144.53125 0)"/>
     <use xlink:href="#LiberationSans-35" transform="translate(172.314453 0)"/>
     <use xlink:href="#LiberationSans-20" transform="translate(227.929688 0)"/>
     <use xlink:href="#LiberationSans-68" transform="translate(255.712891 0)"/>
     <use xlink:href="#LiberationSans-20" transform="translate(311.328125 0)"/>
     <use xlink:href="#LiberationSans-2f" transform="translate(339.111328 0)"/>
     <use xlink:href="#LiberationSans-20" transform="translate(366.894531 0)"/>
     <use xlink:href="#LiberationSans-7e" transform="translate(394.677734 0)"/>
     <use xlink:href="#LiberationSans-39" transform="translate(453.076172 0)"/>
     <use xlink:href="#LiberationSans-30" transform="translate(508.691406 0)"/>
     <use xlink:href="#LiberationSans-20" transform="translate(564.306641 0)"/>
     <use xlink:href="#LiberationSans-68" transform="translate(592.089844 0)"/>
     <use xlink:href="#LiberationSans-29" transform="translate(647.705078 0)"/>
    </g>
   </g>
   <g id="text_44">
    <!-- 7 % -->
    <g style="fill: #444444" transform="translate(626.922801 220.387312) scale(0.075 -0.075)">
     <use xlink:href="#LiberationSans-37"/>
     <use xlink:href="#LiberationSans-20" transform="translate(55.615234 0)"/>
     <use xlink:href="#LiberationSans-25" transform="translate(83.398438 0)"/>
    </g>
    <!-- (8.0 h / ~120 h) -->
    <g style="fill: #444444" transform="translate(607.848777 228.46575) scale(0.075 -0.075)">
     <use xlink:href="#LiberationSans-28"/>
     <use xlink:href="#LiberationSans-38" transform="translate(33.300781 0)"/>
     <use xlink:href="#LiberationSans-2e" transform="translate(88.916016 0)"/>
     <use xlink:href="#LiberationSans-30" transform="translate(116.699219 0)"/>
     <use xlink:href="#LiberationSans-20" transform="translate(172.314453 0)"/>
     <use xlink:href="#LiberationSans-68" transform="translate(200.097656 0)"/>
     <use xlink:href="#LiberationSans-20" transform="translate(255.712891 0)"/>
     <use xlink:href="#LiberationSans-2f" transform="translate(283.496094 0)"/>
     <use xlink:href="#LiberationSans-20" transform="translate(311.279297 0)"/>
     <use xlink:href="#LiberationSans-7e" transform="translate(339.0625 0)"/>
     <use xlink:href="#LiberationSans-31" transform="translate(397.460938 0)"/>
     <use xlink:href="#LiberationSans-32" transform="translate(453.076172 0)"/>
     <use xlink:href="#LiberationSans-30" transform="translate(508.691406 0)"/>
     <use xlink:href="#LiberationSans-20" transform="translate(564.306641 0)"/>
     <use xlink:href="#LiberationSans-68" transform="translate(592.089844 0)"/>
     <use xlink:href="#LiberationSans-29" transform="translate(647.705078 0)"/>
    </g>
   </g>
   <g id="text_45">
    <!-- 5 % -->
    <g style="fill: #444444" transform="translate(689.610978 248.107312) scale(0.075 -0.075)">
     <use xlink:href="#LiberationSans-35"/>
     <use xlink:href="#LiberationSans-20" transform="translate(55.615234 0)"/>
     <use xlink:href="#LiberationSans-25" transform="translate(83.398438 0)"/>
    </g>
    <!-- (15.5 h / ~300 h) -->
    <g style="fill: #444444" transform="translate(668.451603 256.18575) scale(0.075 -0.075)">
     <use xlink:href="#LiberationSans-28"/>
     <use xlink:href="#LiberationSans-31" transform="translate(33.300781 0)"/>
     <use xlink:href="#LiberationSans-35" transform="translate(88.916016 0)"/>
     <use xlink:href="#LiberationSans-2e" transform="translate(144.53125 0)"/>
     <use xlink:href="#LiberationSans-35" transform="translate(172.314453 0)"/>
     <use xlink:href="#LiberationSans-20" transform="translate(227.929688 0)"/>
     <use xlink:href="#LiberationSans-68" transform="translate(255.712891 0)"/>
     <use xlink:href="#LiberationSans-20" transform="translate(311.328125 0)"/>
     <use xlink:href="#LiberationSans-2f" transform="translate(339.111328 0)"/>
     <use xlink:href="#LiberationSans-20" transform="translate(366.894531 0)"/>
     <use xlink:href="#LiberationSans-7e" transform="translate(394.677734 0)"/>
     <use xlink:href="#LiberationSans-33" transform="translate(453.076172 0)"/>
     <use xlink:href="#LiberationSans-30" transform="translate(508.691406 0)"/>
     <use xlink:href="#LiberationSans-30" transform="translate(564.306641 0)"/>
     <use xlink:href="#LiberationSans-20" transform="translate(619.921875 0)"/>
     <use xlink:href="#LiberationSans-68" transform="translate(647.705078 0)"/>
     <use xlink:href="#LiberationSans-29" transform="translate(703.320312 0)"/>
    </g>
   </g>
   <g id="text_46">
    <!-- Effort-gap metric — all cases -->
    <g style="fill: #666666" transform="translate(575.698035 46) scale(0.09 -0.09)">
     <use xlink:href="#LiberationSans-45"/>
     <use xlink:href="#LiberationSans-66" transform="translate(66.699219 0)"/>
     <use xlink:href="#LiberationSans-66" transform="translate(92.732422 0)"/>
     <use xlink:href="#LiberationSans-6f" transform="translate(120.515625 0)"/>
     <use xlink:href="#LiberationSans-72" transform="translate(176.130859 0)"/>
     <use xlink:href="#LiberationSans-74" transform="translate(209.431641 0)"/>
     <use xlink:href="#LiberationSans-2d" transform="translate(237.214844 0)"/>
     <use xlink:href="#LiberationSans-67" transform="translate(270.515625 0)"/>
     <use xlink:href="#LiberationSans-61" transform="translate(326.130859 0)"/>
     <use xlink:href="#LiberationSans-70" transform="translate(381.746094 0)"/>
     <use xlink:href="#LiberationSans-20" transform="translate(437.361328 0)"/>
     <use xlink:href="#LiberationSans-6d" transform="translate(465.144531 0)"/>
     <use xlink:href="#LiberationSans-65" transform="translate(548.445312 0)"/>
     <use xlink:href="#LiberationSans-74" transform="translate(604.060547 0)"/>
     <use xlink:href="#LiberationSans-72" transform="translate(631.84375 0)"/>
     <use xlink:href="#LiberationSans-69" transform="translate(665.144531 0)"/>
     <use xlink:href="#LiberationSans-63" transform="translate(687.361328 0)"/>
     <use xlink:href="#LiberationSans-20" transform="translate(737.361328 0)"/>
     <use xlink:href="#LiberationSans-2014" transform="translate(765.144531 0)"/>
     <use xlink:href="#LiberationSans-20" transform="translate(865.144531 0)"/>
     <use xlink:href="#LiberationSans-61" transform="translate(892.927734 0)"/>
     <use xlink:href="#LiberationSans-6c" transform="translate(948.542969 0)"/>
     <use xlink:href="#LiberationSans-6c" transform="translate(970.759766 0)"/>
     <use xlink:href="#LiberationSans-20" transform="translate(992.976562 0)"/>
     <use xlink:href="#LiberationSans-63" transform="translate(1020.759766 0)"/>
     <use xlink:href="#LiberationSans-61" transform="translate(1070.759766 0)"/>
     <use xlink:href="#LiberationSans-73" transform="translate(1126.375 0)"/>
     <use xlink:href="#LiberationSans-65" transform="translate(1176.375 0)"/>
     <use xlink:href="#LiberationSans-73" transform="translate(1231.990234 0)"/>
    </g>
   </g>
  </g>
  <g id="text_47">
   <!-- Figure 1 — The effort gap -->
   <g style="fill: #666666" transform="translate(318.633594 14.446875) scale(0.1 -0.1)">
    <defs>
     <path id="LiberationSans-54" d="M 2250 3916 
L 2250 0 
L 1656 0 
L 1656 3916 
L 144 3916 
L 144 4403 
L 3763 4403 
L 3763 3916 
L 2250 3916 
z
" transform="scale(0.015625)"/>
    </defs>
    <use xlink:href="#LiberationSans-46"/>
    <use xlink:href="#LiberationSans-69" transform="translate(61.083984 0)"/>
    <use xlink:href="#LiberationSans-67" transform="translate(83.300781 0)"/>
    <use xlink:href="#LiberationSans-75" transform="translate(138.916016 0)"/>
    <use xlink:href="#LiberationSans-72" transform="translate(194.53125 0)"/>
    <use xlink:href="#LiberationSans-65" transform="translate(227.832031 0)"/>
    <use xlink:href="#LiberationSans-20" transform="translate(283.447266 0)"/>
    <use xlink:href="#LiberationSans-31" transform="translate(311.230469 0)"/>
    <use xlink:href="#LiberationSans-20" transform="translate(366.845703 0)"/>
    <use xlink:href="#LiberationSans-2014" transform="translate(394.628906 0)"/>
    <use xlink:href="#LiberationSans-20" transform="translate(494.628906 0)"/>
    <use xlink:href="#LiberationSans-54" transform="translate(520.662109 0)"/>
    <use xlink:href="#LiberationSans-68" transform="translate(581.746094 0)"/>
    <use xlink:href="#LiberationSans-65" transform="translate(637.361328 0)"/>
    <use xlink:href="#LiberationSans-20" transform="translate(692.976562 0)"/>
    <use xlink:href="#LiberationSans-65" transform="translate(720.759766 0)"/>
    <use xlink:href="#LiberationSans-66" transform="translate(776.375 0)"/>
    <use xlink:href="#LiberationSans-66" transform="translate(802.408203 0)"/>
    <use xlink:href="#LiberationSans-6f" transform="translate(830.191406 0)"/>
    <use xlink:href="#LiberationSans-72" transform="translate(885.806641 0)"/>
    <use xlink:href="#LiberationSans-74" transform="translate(919.107422 0)"/>
    <use xlink:href="#LiberationSans-20" transform="translate(946.890625 0)"/>
    <use xlink:href="#LiberationSans-67" transform="translate(974.673828 0)"/>
    <use xlink:href="#LiberationSans-61" transform="translate(1030.289062 0)"/>
    <use xlink:href="#LiberationSans-70" transform="translate(1085.904297 0)"/>
   </g>
  </g>
 </g>
 <defs>
  <clipPath id="p60e20a1785">
   <rect x="51.704688" y="54" width="386.848739" height="277.2"/>
  </clipPath>
  <clipPath id="p7d99f40433">
   <rect x="545.464351" y="54" width="175.840336" height="277.2"/>
  </clipPath>
 </defs>
</svg>
