<?xml version="1.0" encoding="UTF-8"?>
<svg viewBox="0 0 480 320" preserveAspectRatio="xMidYMid meet" xmlns="http://www.w3.org/2000/svg">
  <defs>
    <style type="text/css"><![CDATA[
      .lbl-title { font: 600 13px sans-serif; fill: #000; }
      .lbl-bold  { font: 600 11px sans-serif; fill: #000; }
      .lbl       { font: 11px sans-serif; fill: #000; }
      .lbl-sm    { font: 9px sans-serif; fill: #333; }
      .hairline  { stroke: #999; stroke-width: 0.6; fill: none; }
      .rule      { stroke: #000; stroke-width: 0.7; fill: none; }
      .accent-stroke { stroke: #00658b; stroke-width: 1.2; fill: none; }
    ]]></style>
  </defs>
  <rect width="100%" height="100%" fill="white"/>

        <text x="32" y="40" class="lbl-title">Auditing AI-assisted research: a four-stage pipeline</text>

        
        <g font-family="inherit">
          
          <rect x="44" y="80" width="92" height="160" fill="#fff" stroke="#000" stroke-width="0.8"></rect>
          <text x="90" y="100" class="lbl-bold" text-anchor="middle">1 · Acquire</text>
          <line x1="56" y1="108" x2="124" y2="108" class="hairline"></line>
          <text x="56" y="124" class="lbl-sm">APKs</text>
          <text x="56" y="138" class="lbl-sm">firmware</text>
          <text x="56" y="152" class="lbl-sm">packet captures</text>
          <text x="56" y="166" class="lbl-sm">vendor docs</text>
          <text x="56" y="180" class="lbl-sm">prompt logs</text>

          
          <rect x="148" y="80" width="92" height="160" fill="#d1e8fa" stroke="#00658b" stroke-width="1"></rect>
          <text x="194" y="100" class="lbl-bold" text-anchor="middle" fill="#00658b">2 · Analyse</text>
          <line x1="160" y1="108" x2="228" y2="108" stroke="#00658b" stroke-width="0.6"></line>
          <text x="160" y="124" class="lbl-sm">decompile</text>
          <text x="160" y="138" class="lbl-sm">cross-reference</text>
          <text x="160" y="152" class="lbl-sm">LLM Q&amp;A loops</text>
          <text x="160" y="166" class="lbl-sm">protocol diagrams</text>
          <text x="160" y="180" class="lbl-sm">draft client code</text>

          
          <rect x="252" y="80" width="92" height="160" fill="#fff" stroke="#000" stroke-width="0.8"></rect>
          <text x="298" y="100" class="lbl-bold" text-anchor="middle">3 · Audit</text>
          <line x1="264" y1="108" x2="332" y2="108" class="hairline"></line>
          <text x="264" y="124" class="lbl-sm">artifact diff</text>
          <text x="264" y="138" class="lbl-sm">doc comparison</text>
          <text x="264" y="152" class="lbl-sm">commit history</text>
          <text x="264" y="166" class="lbl-sm">transcript review</text>
          <text x="264" y="180" class="lbl-sm">provenance</text>

          
          <rect x="356" y="80" width="92" height="160" fill="#fff" stroke="#000" stroke-width="0.8"></rect>
          <text x="402" y="100" class="lbl-bold" text-anchor="middle">4 · Validate</text>
          <line x1="368" y1="108" x2="436" y2="108" class="hairline"></line>
          <text x="368" y="124" class="lbl-sm">reproduce</text>
          <text x="368" y="138" class="lbl-sm">log failures</text>
          <text x="368" y="152" class="lbl-sm">replay packets</text>
          <text x="368" y="166" class="lbl-sm">device round-trip</text>
          <text x="368" y="180" class="lbl-sm">disclose</text>
        </g>

        
        <g stroke="#000" stroke-width="0.7" fill="none">
          <line x1="136" y1="160" x2="148" y2="160"></line>
          <line x1="240" y1="160" x2="252" y2="160"></line>
          <line x1="344" y1="160" x2="356" y2="160"></line>
        </g>
        <polygon points="148,160 142,157 142,163" fill="#000"></polygon>
        <polygon points="252,160 246,157 246,163" fill="#000"></polygon>
        <polygon points="356,160 350,157 350,163" fill="#000"></polygon>

        
        <path d="M 402 240 C 402 280, 194 280, 194 240" class="rule" stroke-dasharray="3 3" fill="none"></path>
        <polygon points="194,240 191,247 197,247" fill="#000"></polygon>
        <text x="298" y="278" class="lbl-sm" text-anchor="middle">iterate · refine prompts · re-audit</text>
      </svg>