<?xml version="1.0" encoding="utf-8" standalone="no"?>
<!DOCTYPE svg PUBLIC "-//W3C//DTD SVG 1.1//EN"
  "http://www.w3.org/Graphics/SVG/1.1/DTD/svg11.dtd">
<svg xmlns:xlink="http://www.w3.org/1999/xlink" width="479.746873pt" height="498.399858pt" viewBox="0 0 479.746873 498.399858" xmlns="http://www.w3.org/2000/svg" version="1.1">
 <metadata>
  <rdf:RDF xmlns:dc="http://purl.org/dc/elements/1.1/" xmlns:cc="http://creativecommons.org/ns#" xmlns:rdf="http://www.w3.org/1999/02/22-rdf-syntax-ns#">
   <cc:Work>
    <dc:type rdf:resource="http://purl.org/dc/dcmitype/StillImage"/>
    <dc:date>2026-05-04T11:43:30.988460</dc:date>
    <dc:format>image/svg+xml</dc:format>
    <dc:creator>
     <cc:Agent>
      <dc:title>Matplotlib v3.10.9, https://matplotlib.org/</dc:title>
     </cc:Agent>
    </dc:creator>
   </cc:Work>
  </rdf:RDF>
 </metadata>
 <defs>
  <style type="text/css">*{stroke-linejoin: round; stroke-linecap: butt}</style>
 </defs>
 <g id="figure_1">
  <g id="patch_1">
   <path d="M 0 498.399858 
L 479.746873 498.399858 
L 479.746873 0 
L 0 0 
z
" style="fill: #ffffff"/>
  </g>
  <g id="axes_1">
   <g id="patch_2">
    <path d="M 43.392656 424.55185 
L 440.048256 424.55185 
L 440.048256 27.89625 
L 43.392656 27.89625 
z
" style="fill: #ffffff"/>
   </g>
   <g id="patch_3">
    <path d="M 45.375934 224.240772 
L 239.737178 224.240772 
L 239.737178 29.879528 
L 45.375934 29.879528 
z
" clip-path="url(#p83ff7190de)" style="fill: #e8f4fb; stroke: #cfcfcf; stroke-width: 0.6; stroke-linejoin: miter"/>
   </g>
   <g id="patch_4">
    <path d="M 243.703734 224.240772 
L 438.064978 224.240772 
L 438.064978 29.879528 
L 243.703734 29.879528 
z
" clip-path="url(#p83ff7190de)" style="fill: #fbd9dc; stroke: #cfcfcf; stroke-width: 0.6; stroke-linejoin: miter"/>
   </g>
   <g id="patch_5">
    <path d="M 45.375934 422.568572 
L 239.737178 422.568572 
L 239.737178 228.207328 
L 45.375934 228.207328 
z
" clip-path="url(#p83ff7190de)" style="fill: #f4f4f4; stroke: #cfcfcf; stroke-width: 0.6; stroke-linejoin: miter"/>
   </g>
   <g id="patch_6">
    <path d="M 243.703734 422.568572 
L 438.064978 422.568572 
L 438.064978 228.207328 
L 243.703734 228.207328 
z
" clip-path="url(#p83ff7190de)" style="fill: #e6eaaf; stroke: #cfcfcf; stroke-width: 0.6; stroke-linejoin: miter"/>
   </g>
   <g id="matplotlib.axis_1">
    <g id="xtick_1">
     <g id="line2d_1"/>
    </g>
    <g id="xtick_2">
     <g id="line2d_2"/>
     <g id="text_1">
      <!-- low -->
      <g transform="translate(135.054213 435.298725) scale(0.1 -0.1)">
       <defs>
        <path id="LiberationSans-6c" d="M 431 0 
L 431 4638 
L 994 4638 
L 994 0 
L 431 0 
z
" transform="scale(0.015625)"/>
        <path id="LiberationSans-6f" d="M 3291 1694 
Q 3291 806 2900 371 
Q 2509 -63 1766 -63 
Q 1025 -63 647 389 
Q 269 841 269 1694 
Q 269 3444 1784 3444 
Q 2559 3444 2925 3017 
Q 3291 2591 3291 1694 
z
M 2700 1694 
Q 2700 2394 2492 2711 
Q 2284 3028 1794 3028 
Q 1300 3028 1079 2704 
Q 859 2381 859 1694 
Q 859 1025 1076 689 
Q 1294 353 1759 353 
Q 2266 353 2483 678 
Q 2700 1003 2700 1694 
z
" transform="scale(0.015625)"/>
        <path id="LiberationSans-77" d="M 3669 0 
L 3016 0 
L 2425 2391 
L 2313 2919 
Q 2284 2778 2225 2514 
Q 2166 2250 1588 0 
L 938 0 
L -9 3381 
L 547 3381 
L 1119 1084 
Q 1141 1009 1253 466 
L 1306 697 
L 2013 3381 
L 2616 3381 
L 3206 1059 
L 3350 466 
L 3447 900 
L 4088 3381 
L 4638 3381 
L 3669 0 
z
" transform="scale(0.015625)"/>
       </defs>
       <use xlink:href="#LiberationSans-6c"/>
       <use xlink:href="#LiberationSans-6f" transform="translate(22.216797 0)"/>
       <use xlink:href="#LiberationSans-77" transform="translate(77.832031 0)"/>
      </g>
     </g>
    </g>
    <g id="xtick_3">
     <g id="line2d_3"/>
    </g>
    <g id="xtick_4">
     <g id="line2d_4"/>
     <g id="text_2">
      <!-- high -->
      <g transform="translate(331.432013 435.298725) scale(0.1 -0.1)">
       <defs>
        <path id="LiberationSans-68" d="M 991 2803 
Q 1172 3134 1426 3289 
Q 1681 3444 2072 3444 
Q 2622 3444 2883 3170 
Q 3144 2897 3144 2253 
L 3144 0 
L 2578 0 
L 2578 2144 
Q 2578 2500 2512 2673 
Q 2447 2847 2297 2928 
Q 2147 3009 1881 3009 
Q 1484 3009 1245 2734 
Q 1006 2459 1006 1994 
L 1006 0 
L 444 0 
L 444 4638 
L 1006 4638 
L 1006 3431 
Q 1006 3241 995 3037 
Q 984 2834 981 2803 
L 991 2803 
z
" transform="scale(0.015625)"/>
        <path id="LiberationSans-69" d="M 428 4100 
L 428 4638 
L 991 4638 
L 991 4100 
L 428 4100 
z
M 428 0 
L 428 3381 
L 991 3381 
L 991 0 
L 428 0 
z
" transform="scale(0.015625)"/>
        <path id="LiberationSans-67" d="M 1713 -1328 
Q 1159 -1328 831 -1111 
Q 503 -894 409 -494 
L 975 -413 
Q 1031 -647 1223 -773 
Q 1416 -900 1728 -900 
Q 2569 -900 2569 84 
L 2569 628 
L 2563 628 
Q 2403 303 2125 139 
Q 1847 -25 1475 -25 
Q 853 -25 561 387 
Q 269 800 269 1684 
Q 269 2581 583 3007 
Q 897 3434 1538 3434 
Q 1897 3434 2161 3270 
Q 2425 3106 2569 2803 
L 2575 2803 
Q 2575 2897 2587 3128 
Q 2600 3359 2613 3381 
L 3147 3381 
Q 3128 3213 3128 2681 
L 3128 97 
Q 3128 -1328 1713 -1328 
z
M 2569 1691 
Q 2569 2103 2456 2401 
Q 2344 2700 2139 2858 
Q 1934 3016 1675 3016 
Q 1244 3016 1047 2703 
Q 850 2391 850 1691 
Q 850 997 1034 694 
Q 1219 391 1666 391 
Q 1931 391 2137 547 
Q 2344 703 2456 995 
Q 2569 1288 2569 1691 
z
" transform="scale(0.015625)"/>
       </defs>
       <use xlink:href="#LiberationSans-68"/>
       <use xlink:href="#LiberationSans-69" transform="translate(55.615234 0)"/>
       <use xlink:href="#LiberationSans-67" transform="translate(77.832031 0)"/>
       <use xlink:href="#LiberationSans-68" transform="translate(133.447266 0)"/>
      </g>
     </g>
    </g>
    <g id="xtick_5">
     <g id="line2d_5"/>
    </g>
    <g id="text_3">
     <!-- Interoperability gain  → -->
     <g transform="translate(187.737331 448.982944) scale(0.105 -0.105)">
      <defs>
       <path id="LiberationSans-49" d="M 591 0 
L 591 4403 
L 1188 4403 
L 1188 0 
L 591 0 
z
" transform="scale(0.015625)"/>
       <path id="LiberationSans-6e" d="M 2578 0 
L 2578 2144 
Q 2578 2478 2512 2662 
Q 2447 2847 2303 2928 
Q 2159 3009 1881 3009 
Q 1475 3009 1240 2731 
Q 1006 2453 1006 1959 
L 1006 0 
L 444 0 
L 444 2659 
Q 444 3250 425 3381 
L 956 3381 
Q 959 3366 962 3297 
Q 966 3228 970 3139 
Q 975 3050 981 2803 
L 991 2803 
Q 1184 3153 1439 3298 
Q 1694 3444 2072 3444 
Q 2628 3444 2886 3167 
Q 3144 2891 3144 2253 
L 3144 0 
L 2578 0 
z
" transform="scale(0.015625)"/>
       <path id="LiberationSans-74" d="M 1731 25 
Q 1453 -50 1163 -50 
Q 488 -50 488 716 
L 488 2972 
L 97 2972 
L 97 3381 
L 509 3381 
L 675 4138 
L 1050 4138 
L 1050 3381 
L 1675 3381 
L 1675 2972 
L 1050 2972 
L 1050 838 
Q 1050 594 1129 495 
Q 1209 397 1406 397 
Q 1519 397 1731 441 
L 1731 25 
z
" transform="scale(0.015625)"/>
       <path id="LiberationSans-65" d="M 863 1572 
Q 863 991 1103 675 
Q 1344 359 1806 359 
Q 2172 359 2392 506 
Q 2613 653 2691 878 
L 3184 738 
Q 2881 -63 1806 -63 
Q 1056 -63 664 384 
Q 272 831 272 1713 
Q 272 2550 664 2997 
Q 1056 3444 1784 3444 
Q 3275 3444 3275 1647 
L 3275 1572 
L 863 1572 
z
M 2694 2003 
Q 2647 2538 2422 2783 
Q 2197 3028 1775 3028 
Q 1366 3028 1127 2754 
Q 888 2481 869 2003 
L 2694 2003 
z
" transform="scale(0.015625)"/>
       <path id="LiberationSans-72" d="M 444 0 
L 444 2594 
Q 444 2950 425 3381 
L 956 3381 
Q 981 2806 981 2691 
L 994 2691 
Q 1128 3125 1303 3284 
Q 1478 3444 1797 3444 
Q 1909 3444 2025 3413 
L 2025 2897 
Q 1913 2928 1725 2928 
Q 1375 2928 1190 2626 
Q 1006 2325 1006 1763 
L 1006 0 
L 444 0 
z
" transform="scale(0.015625)"/>
       <path id="LiberationSans-70" d="M 3291 1706 
Q 3291 -63 2047 -63 
Q 1266 -63 997 525 
L 981 525 
Q 994 500 994 -6 
L 994 -1328 
L 431 -1328 
L 431 2691 
Q 431 3213 413 3381 
L 956 3381 
Q 959 3369 965 3292 
Q 972 3216 980 3056 
Q 988 2897 988 2838 
L 1000 2838 
Q 1150 3150 1397 3295 
Q 1644 3441 2047 3441 
Q 2672 3441 2981 3022 
Q 3291 2603 3291 1706 
z
M 2700 1694 
Q 2700 2400 2509 2703 
Q 2319 3006 1903 3006 
Q 1569 3006 1380 2865 
Q 1191 2725 1092 2426 
Q 994 2128 994 1650 
Q 994 984 1206 668 
Q 1419 353 1897 353 
Q 2316 353 2508 661 
Q 2700 969 2700 1694 
z
" transform="scale(0.015625)"/>
       <path id="LiberationSans-61" d="M 1294 -63 
Q 784 -63 528 206 
Q 272 475 272 944 
Q 272 1469 617 1750 
Q 963 2031 1731 2050 
L 2491 2063 
L 2491 2247 
Q 2491 2659 2316 2837 
Q 2141 3016 1766 3016 
Q 1388 3016 1216 2887 
Q 1044 2759 1009 2478 
L 422 2531 
Q 566 3444 1778 3444 
Q 2416 3444 2737 3151 
Q 3059 2859 3059 2306 
L 3059 850 
Q 3059 600 3125 473 
Q 3191 347 3375 347 
Q 3456 347 3559 369 
L 3559 19 
Q 3347 -31 3125 -31 
Q 2813 -31 2670 133 
Q 2528 297 2509 647 
L 2491 647 
Q 2275 259 1989 98 
Q 1703 -63 1294 -63 
z
M 1422 359 
Q 1731 359 1972 500 
Q 2213 641 2352 886 
Q 2491 1131 2491 1391 
L 2491 1669 
L 1875 1656 
Q 1478 1650 1273 1575 
Q 1069 1500 959 1344 
Q 850 1188 850 934 
Q 850 659 998 509 
Q 1147 359 1422 359 
z
" transform="scale(0.015625)"/>
       <path id="LiberationSans-62" d="M 3291 1706 
Q 3291 -63 2047 -63 
Q 1663 -63 1408 76 
Q 1153 216 994 525 
L 988 525 
Q 988 428 975 229 
Q 963 31 956 0 
L 413 0 
Q 431 169 431 697 
L 431 4638 
L 994 4638 
L 994 3316 
Q 994 3113 981 2838 
L 994 2838 
Q 1150 3163 1408 3303 
Q 1666 3444 2047 3444 
Q 2688 3444 2989 3012 
Q 3291 2581 3291 1706 
z
M 2700 1688 
Q 2700 2397 2512 2703 
Q 2325 3009 1903 3009 
Q 1428 3009 1211 2684 
Q 994 2359 994 1653 
Q 994 988 1206 670 
Q 1419 353 1897 353 
Q 2322 353 2511 667 
Q 2700 981 2700 1688 
z
" transform="scale(0.015625)"/>
       <path id="LiberationSans-79" d="M 597 -1328 
Q 366 -1328 209 -1294 
L 209 -872 
Q 328 -891 472 -891 
Q 997 -891 1303 -119 
L 1356 16 
L 16 3381 
L 616 3381 
L 1328 1513 
Q 1344 1469 1366 1408 
Q 1388 1347 1506 1000 
Q 1625 653 1634 613 
L 1853 1228 
L 2594 3381 
L 3188 3381 
L 1888 0 
Q 1678 -541 1497 -805 
Q 1316 -1069 1095 -1198 
Q 875 -1328 597 -1328 
z
" transform="scale(0.015625)"/>
       <path id="LiberationSans-20" transform="scale(0.015625)"/>
       <path id="LiberationSans-2192" d="M 4397 1197 
Q 4219 1406 4025 1813 
L 4250 1813 
Q 4647 1347 5094 1119 
L 5094 1006 
Q 4647 778 4250 313 
L 4025 313 
Q 4219 719 4397 928 
L 1306 928 
L 1306 1197 
L 4397 1197 
z
" transform="scale(0.015625)"/>
      </defs>
      <use xlink:href="#LiberationSans-49"/>
      <use xlink:href="#LiberationSans-6e" transform="translate(27.783203 0)"/>
      <use xlink:href="#LiberationSans-74" transform="translate(83.398438 0)"/>
      <use xlink:href="#LiberationSans-65" transform="translate(111.181641 0)"/>
      <use xlink:href="#LiberationSans-72" transform="translate(166.796875 0)"/>
      <use xlink:href="#LiberationSans-6f" transform="translate(200.097656 0)"/>
      <use xlink:href="#LiberationSans-70" transform="translate(255.712891 0)"/>
      <use xlink:href="#LiberationSans-65" transform="translate(311.328125 0)"/>
      <use xlink:href="#LiberationSans-72" transform="translate(366.943359 0)"/>
      <use xlink:href="#LiberationSans-61" transform="translate(400.244141 0)"/>
      <use xlink:href="#LiberationSans-62" transform="translate(455.859375 0)"/>
      <use xlink:href="#LiberationSans-69" transform="translate(511.474609 0)"/>
      <use xlink:href="#LiberationSans-6c" transform="translate(533.691406 0)"/>
      <use xlink:href="#LiberationSans-69" transform="translate(555.908203 0)"/>
      <use xlink:href="#LiberationSans-74" transform="translate(578.125 0)"/>
      <use xlink:href="#LiberationSans-79" transform="translate(605.908203 0)"/>
      <use xlink:href="#LiberationSans-20" transform="translate(655.908203 0)"/>
      <use xlink:href="#LiberationSans-67" transform="translate(683.691406 0)"/>
      <use xlink:href="#LiberationSans-61" transform="translate(739.306641 0)"/>
      <use xlink:href="#LiberationSans-69" transform="translate(794.921875 0)"/>
      <use xlink:href="#LiberationSans-6e" transform="translate(817.138672 0)"/>
      <use xlink:href="#LiberationSans-20" transform="translate(872.753906 0)"/>
      <use xlink:href="#LiberationSans-20" transform="translate(900.537109 0)"/>
      <use xlink:href="#LiberationSans-2192" transform="translate(928.320312 0)"/>
     </g>
    </g>
   </g>
   <g id="matplotlib.axis_2">
    <g id="ytick_1">
     <g id="line2d_6"/>
    </g>
    <g id="ytick_2">
     <g id="line2d_7"/>
     <g id="text_4">
      <!-- low -->
      <g transform="translate(24.887969 329.011388) scale(0.1 -0.1)">
       <use xlink:href="#LiberationSans-6c"/>
       <use xlink:href="#LiberationSans-6f" transform="translate(22.216797 0)"/>
       <use xlink:href="#LiberationSans-77" transform="translate(77.832031 0)"/>
      </g>
     </g>
    </g>
    <g id="ytick_3">
     <g id="line2d_8"/>
    </g>
    <g id="ytick_4">
     <g id="line2d_9"/>
     <g id="text_5">
      <!-- high -->
      <g transform="translate(20.987969 130.683588) scale(0.1 -0.1)">
       <use xlink:href="#LiberationSans-68"/>
       <use xlink:href="#LiberationSans-69" transform="translate(55.615234 0)"/>
       <use xlink:href="#LiberationSans-67" transform="translate(77.832031 0)"/>
       <use xlink:href="#LiberationSans-68" transform="translate(133.447266 0)"/>
      </g>
     </g>
    </g>
    <g id="ytick_5">
     <g id="line2d_10"/>
    </g>
    <g id="text_6">
     <!-- Security risk  → -->
     <g transform="translate(14.809219 262.978152) rotate(-90) scale(0.105 -0.105)">
      <defs>
       <path id="LiberationSans-53" d="M 3975 1216 
Q 3975 606 3498 271 
Q 3022 -63 2156 -63 
Q 547 -63 291 1056 
L 869 1172 
Q 969 775 1294 589 
Q 1619 403 2178 403 
Q 2756 403 3070 601 
Q 3384 800 3384 1184 
Q 3384 1400 3286 1534 
Q 3188 1669 3009 1756 
Q 2831 1844 2584 1903 
Q 2338 1963 2038 2031 
Q 1516 2147 1245 2262 
Q 975 2378 819 2520 
Q 663 2663 580 2853 
Q 497 3044 497 3291 
Q 497 3856 930 4162 
Q 1363 4469 2169 4469 
Q 2919 4469 3316 4239 
Q 3713 4009 3872 3456 
L 3284 3353 
Q 3188 3703 2916 3861 
Q 2644 4019 2163 4019 
Q 1634 4019 1356 3844 
Q 1078 3669 1078 3322 
Q 1078 3119 1186 2986 
Q 1294 2853 1497 2761 
Q 1700 2669 2306 2534 
Q 2509 2488 2711 2439 
Q 2913 2391 3097 2323 
Q 3281 2256 3442 2165 
Q 3603 2075 3722 1944 
Q 3841 1813 3908 1634 
Q 3975 1456 3975 1216 
z
" transform="scale(0.015625)"/>
       <path id="LiberationSans-63" d="M 859 1706 
Q 859 1031 1071 706 
Q 1284 381 1713 381 
Q 2013 381 2214 543 
Q 2416 706 2463 1044 
L 3031 1006 
Q 2966 519 2616 228 
Q 2266 -63 1728 -63 
Q 1019 -63 645 385 
Q 272 834 272 1694 
Q 272 2547 647 2995 
Q 1022 3444 1722 3444 
Q 2241 3444 2583 3175 
Q 2925 2906 3013 2434 
L 2434 2391 
Q 2391 2672 2212 2837 
Q 2034 3003 1706 3003 
Q 1259 3003 1059 2706 
Q 859 2409 859 1706 
z
" transform="scale(0.015625)"/>
       <path id="LiberationSans-75" d="M 981 3381 
L 981 1238 
Q 981 903 1047 718 
Q 1113 534 1256 453 
Q 1400 372 1678 372 
Q 2084 372 2318 650 
Q 2553 928 2553 1422 
L 2553 3381 
L 3116 3381 
L 3116 722 
Q 3116 131 3134 0 
L 2603 0 
Q 2600 16 2597 84 
Q 2594 153 2589 242 
Q 2584 331 2578 578 
L 2569 578 
Q 2375 228 2120 82 
Q 1866 -63 1488 -63 
Q 931 -63 673 214 
Q 416 491 416 1128 
L 416 3381 
L 981 3381 
z
" transform="scale(0.015625)"/>
       <path id="LiberationSans-73" d="M 2969 934 
Q 2969 456 2608 196 
Q 2247 -63 1597 -63 
Q 966 -63 623 145 
Q 281 353 178 794 
L 675 891 
Q 747 619 972 492 
Q 1197 366 1597 366 
Q 2025 366 2223 497 
Q 2422 628 2422 891 
Q 2422 1091 2284 1216 
Q 2147 1341 1841 1422 
L 1438 1528 
Q 953 1653 748 1773 
Q 544 1894 428 2066 
Q 313 2238 313 2488 
Q 313 2950 642 3192 
Q 972 3434 1603 3434 
Q 2163 3434 2492 3237 
Q 2822 3041 2909 2606 
L 2403 2544 
Q 2356 2769 2151 2889 
Q 1947 3009 1603 3009 
Q 1222 3009 1040 2893 
Q 859 2778 859 2544 
Q 859 2400 934 2306 
Q 1009 2213 1156 2147 
Q 1303 2081 1775 1966 
Q 2222 1853 2419 1758 
Q 2616 1663 2730 1547 
Q 2844 1431 2906 1279 
Q 2969 1128 2969 934 
z
" transform="scale(0.015625)"/>
       <path id="LiberationSans-6b" d="M 2550 0 
L 1406 1544 
L 994 1203 
L 994 0 
L 431 0 
L 431 4638 
L 994 4638 
L 994 1741 
L 2478 3381 
L 3138 3381 
L 1766 1928 
L 3209 0 
L 2550 0 
z
" transform="scale(0.015625)"/>
      </defs>
      <use xlink:href="#LiberationSans-53"/>
      <use xlink:href="#LiberationSans-65" transform="translate(66.699219 0)"/>
      <use xlink:href="#LiberationSans-63" transform="translate(122.314453 0)"/>
      <use xlink:href="#LiberationSans-75" transform="translate(172.314453 0)"/>
      <use xlink:href="#LiberationSans-72" transform="translate(227.929688 0)"/>
      <use xlink:href="#LiberationSans-69" transform="translate(261.230469 0)"/>
      <use xlink:href="#LiberationSans-74" transform="translate(283.447266 0)"/>
      <use xlink:href="#LiberationSans-79" transform="translate(311.230469 0)"/>
      <use xlink:href="#LiberationSans-20" transform="translate(361.230469 0)"/>
      <use xlink:href="#LiberationSans-72" transform="translate(389.013672 0)"/>
      <use xlink:href="#LiberationSans-69" transform="translate(422.314453 0)"/>
      <use xlink:href="#LiberationSans-73" transform="translate(444.53125 0)"/>
      <use xlink:href="#LiberationSans-6b" transform="translate(494.53125 0)"/>
      <use xlink:href="#LiberationSans-20" transform="translate(544.53125 0)"/>
      <use xlink:href="#LiberationSans-20" transform="translate(572.314453 0)"/>
      <use xlink:href="#LiberationSans-2192" transform="translate(600.097656 0)"/>
     </g>
    </g>
   </g>
   <g id="text_7">
    <!-- Defensive -->
    <g style="fill: #666666" transform="translate(117.754408 48.755914) scale(0.105 -0.105)">
     <defs>
      <path id="LiberationSans-Bold-44" d="M 4353 2234 
Q 4353 1553 4086 1045 
Q 3819 538 3330 269 
Q 2841 0 2209 0 
L 428 0 
L 428 4403 
L 2022 4403 
Q 3134 4403 3743 3842 
Q 4353 3281 4353 2234 
z
M 3425 2234 
Q 3425 2944 3056 3317 
Q 2688 3691 2003 3691 
L 1350 3691 
L 1350 713 
L 2131 713 
Q 2725 713 3075 1122 
Q 3425 1531 3425 2234 
z
" transform="scale(0.015625)"/>
      <path id="LiberationSans-Bold-65" d="M 1831 -63 
Q 1069 -63 659 389 
Q 250 841 250 1706 
Q 250 2544 665 2994 
Q 1081 3444 1844 3444 
Q 2572 3444 2956 2961 
Q 3341 2478 3341 1547 
L 3341 1522 
L 1172 1522 
Q 1172 1028 1355 776 
Q 1538 525 1875 525 
Q 2341 525 2463 928 
L 3291 856 
Q 2931 -63 1831 -63 
z
M 1831 2891 
Q 1522 2891 1355 2675 
Q 1188 2459 1178 2072 
L 2491 2072 
Q 2466 2481 2294 2686 
Q 2122 2891 1831 2891 
z
" transform="scale(0.015625)"/>
      <path id="LiberationSans-Bold-66" d="M 1478 2788 
L 1478 0 
L 603 0 
L 603 2788 
L 109 2788 
L 109 3381 
L 603 3381 
L 603 3734 
Q 603 4194 847 4416 
Q 1091 4638 1588 4638 
Q 1834 4638 2144 4588 
L 2144 4022 
Q 2016 4050 1888 4050 
Q 1663 4050 1570 3961 
Q 1478 3872 1478 3647 
L 1478 3381 
L 2144 3381 
L 2144 2788 
L 1478 2788 
z
" transform="scale(0.015625)"/>
      <path id="LiberationSans-Bold-6e" d="M 2638 0 
L 2638 1897 
Q 2638 2788 2034 2788 
Q 1716 2788 1520 2514 
Q 1325 2241 1325 1813 
L 1325 0 
L 447 0 
L 447 2625 
Q 447 2897 439 3070 
Q 431 3244 422 3381 
L 1259 3381 
Q 1269 3322 1284 3064 
Q 1300 2806 1300 2709 
L 1313 2709 
Q 1491 3097 1759 3272 
Q 2028 3447 2400 3447 
Q 2938 3447 3225 3115 
Q 3513 2784 3513 2147 
L 3513 0 
L 2638 0 
z
" transform="scale(0.015625)"/>
      <path id="LiberationSans-Bold-73" d="M 3297 988 
Q 3297 497 2895 217 
Q 2494 -63 1784 -63 
Q 1088 -63 717 157 
Q 347 378 225 844 
L 997 959 
Q 1063 719 1223 619 
Q 1384 519 1784 519 
Q 2153 519 2322 612 
Q 2491 706 2491 906 
Q 2491 1069 2355 1164 
Q 2219 1259 1894 1325 
Q 1150 1472 890 1598 
Q 631 1725 495 1926 
Q 359 2128 359 2422 
Q 359 2906 732 3176 
Q 1106 3447 1791 3447 
Q 2394 3447 2761 3212 
Q 3128 2978 3219 2534 
L 2441 2453 
Q 2403 2659 2256 2761 
Q 2109 2863 1791 2863 
Q 1478 2863 1322 2783 
Q 1166 2703 1166 2516 
Q 1166 2369 1286 2283 
Q 1406 2197 1691 2141 
Q 2088 2059 2395 1973 
Q 2703 1888 2889 1769 
Q 3075 1650 3186 1464 
Q 3297 1278 3297 988 
z
" transform="scale(0.015625)"/>
      <path id="LiberationSans-Bold-69" d="M 447 3991 
L 447 4638 
L 1325 4638 
L 1325 3991 
L 447 3991 
z
M 447 0 
L 447 3381 
L 1325 3381 
L 1325 0 
L 447 0 
z
" transform="scale(0.015625)"/>
      <path id="LiberationSans-Bold-76" d="M 2284 0 
L 1234 0 
L 25 3381 
L 953 3381 
L 1544 1491 
Q 1591 1334 1766 709 
Q 1797 838 1894 1159 
Q 1991 1481 2613 3381 
L 3531 3381 
L 2284 0 
z
" transform="scale(0.015625)"/>
     </defs>
     <use xlink:href="#LiberationSans-Bold-44"/>
     <use xlink:href="#LiberationSans-Bold-65" transform="translate(72.216797 0)"/>
     <use xlink:href="#LiberationSans-Bold-66" transform="translate(127.832031 0)"/>
     <use xlink:href="#LiberationSans-Bold-65" transform="translate(161.132812 0)"/>
     <use xlink:href="#LiberationSans-Bold-6e" transform="translate(216.748047 0)"/>
     <use xlink:href="#LiberationSans-Bold-73" transform="translate(277.832031 0)"/>
     <use xlink:href="#LiberationSans-Bold-69" transform="translate(333.447266 0)"/>
     <use xlink:href="#LiberationSans-Bold-76" transform="translate(361.230469 0)"/>
     <use xlink:href="#LiberationSans-Bold-65" transform="translate(416.845703 0)"/>
    </g>
    <!-- disclosure -->
    <g style="fill: #666666" transform="translate(116.298353 60.065727) scale(0.105 -0.105)">
     <defs>
      <path id="LiberationSans-Bold-64" d="M 2638 0 
Q 2625 47 2608 236 
Q 2591 425 2591 550 
L 2578 550 
Q 2294 -63 1497 -63 
Q 906 -63 584 398 
Q 263 859 263 1688 
Q 263 2528 602 2986 
Q 941 3444 1563 3444 
Q 1922 3444 2183 3294 
Q 2444 3144 2584 2847 
L 2591 2847 
L 2584 3403 
L 2584 4638 
L 3463 4638 
L 3463 738 
Q 3463 425 3488 0 
L 2638 0 
z
M 2597 1709 
Q 2597 2256 2414 2551 
Q 2231 2847 1875 2847 
Q 1522 2847 1350 2561 
Q 1178 2275 1178 1688 
Q 1178 538 1869 538 
Q 2216 538 2406 842 
Q 2597 1147 2597 1709 
z
" transform="scale(0.015625)"/>
      <path id="LiberationSans-Bold-63" d="M 1856 -63 
Q 1088 -63 669 395 
Q 250 853 250 1672 
Q 250 2509 672 2976 
Q 1094 3444 1869 3444 
Q 2466 3444 2856 3144 
Q 3247 2844 3347 2316 
L 2463 2272 
Q 2425 2531 2275 2686 
Q 2125 2841 1850 2841 
Q 1172 2841 1172 1706 
Q 1172 538 1863 538 
Q 2113 538 2281 695 
Q 2450 853 2491 1166 
L 3372 1125 
Q 3325 778 3123 506 
Q 2922 234 2594 85 
Q 2266 -63 1856 -63 
z
" transform="scale(0.015625)"/>
      <path id="LiberationSans-Bold-6c" d="M 447 0 
L 447 4638 
L 1325 4638 
L 1325 0 
L 447 0 
z
" transform="scale(0.015625)"/>
      <path id="LiberationSans-Bold-6f" d="M 3659 1694 
Q 3659 872 3203 404 
Q 2747 -63 1941 -63 
Q 1150 -63 700 406 
Q 250 875 250 1694 
Q 250 2509 700 2976 
Q 1150 3444 1959 3444 
Q 2788 3444 3223 2992 
Q 3659 2541 3659 1694 
z
M 2741 1694 
Q 2741 2297 2544 2569 
Q 2347 2841 1972 2841 
Q 1172 2841 1172 1694 
Q 1172 1128 1367 833 
Q 1563 538 1931 538 
Q 2741 538 2741 1694 
z
" transform="scale(0.015625)"/>
      <path id="LiberationSans-Bold-75" d="M 1275 3381 
L 1275 1484 
Q 1275 594 1875 594 
Q 2194 594 2389 867 
Q 2584 1141 2584 1569 
L 2584 3381 
L 3463 3381 
L 3463 756 
Q 3463 325 3488 0 
L 2650 0 
Q 2613 450 2613 672 
L 2597 672 
Q 2422 288 2151 112 
Q 1881 -63 1509 -63 
Q 972 -63 684 267 
Q 397 597 397 1234 
L 397 3381 
L 1275 3381 
z
" transform="scale(0.015625)"/>
      <path id="LiberationSans-Bold-72" d="M 447 0 
L 447 2588 
Q 447 2866 439 3052 
Q 431 3238 422 3381 
L 1259 3381 
Q 1269 3325 1284 3039 
Q 1300 2753 1300 2659 
L 1313 2659 
Q 1441 3016 1541 3161 
Q 1641 3306 1778 3376 
Q 1916 3447 2122 3447 
Q 2291 3447 2394 3400 
L 2394 2666 
Q 2181 2713 2019 2713 
Q 1691 2713 1508 2447 
Q 1325 2181 1325 1659 
L 1325 0 
L 447 0 
z
" transform="scale(0.015625)"/>
     </defs>
     <use xlink:href="#LiberationSans-Bold-64"/>
     <use xlink:href="#LiberationSans-Bold-69" transform="translate(61.083984 0)"/>
     <use xlink:href="#LiberationSans-Bold-73" transform="translate(88.867188 0)"/>
     <use xlink:href="#LiberationSans-Bold-63" transform="translate(144.482422 0)"/>
     <use xlink:href="#LiberationSans-Bold-6c" transform="translate(200.097656 0)"/>
     <use xlink:href="#LiberationSans-Bold-6f" transform="translate(227.880859 0)"/>
     <use xlink:href="#LiberationSans-Bold-73" transform="translate(288.964844 0)"/>
     <use xlink:href="#LiberationSans-Bold-75" transform="translate(344.580078 0)"/>
     <use xlink:href="#LiberationSans-Bold-72" transform="translate(405.664062 0)"/>
     <use xlink:href="#LiberationSans-Bold-65" transform="translate(444.580078 0)"/>
    </g>
   </g>
   <g id="text_8">
    <!-- Offensive -->
    <g style="fill: #666666" transform="translate(316.961583 48.755914) scale(0.105 -0.105)">
     <defs>
      <path id="LiberationSans-Bold-4f" d="M 4709 2222 
Q 4709 1534 4437 1012 
Q 4166 491 3659 214 
Q 3153 -63 2478 -63 
Q 1441 -63 852 548 
Q 263 1159 263 2222 
Q 263 3281 850 3875 
Q 1438 4469 2484 4469 
Q 3531 4469 4120 3869 
Q 4709 3269 4709 2222 
z
M 3769 2222 
Q 3769 2934 3431 3339 
Q 3094 3744 2484 3744 
Q 1866 3744 1528 3342 
Q 1191 2941 1191 2222 
Q 1191 1497 1536 1080 
Q 1881 663 2478 663 
Q 3097 663 3433 1069 
Q 3769 1475 3769 2222 
z
" transform="scale(0.015625)"/>
     </defs>
     <use xlink:href="#LiberationSans-Bold-4f"/>
     <use xlink:href="#LiberationSans-Bold-66" transform="translate(77.783203 0)"/>
     <use xlink:href="#LiberationSans-Bold-66" transform="translate(111.083984 0)"/>
     <use xlink:href="#LiberationSans-Bold-65" transform="translate(144.384766 0)"/>
     <use xlink:href="#LiberationSans-Bold-6e" transform="translate(200 0)"/>
     <use xlink:href="#LiberationSans-Bold-73" transform="translate(261.083984 0)"/>
     <use xlink:href="#LiberationSans-Bold-69" transform="translate(316.699219 0)"/>
     <use xlink:href="#LiberationSans-Bold-76" transform="translate(344.482422 0)"/>
     <use xlink:href="#LiberationSans-Bold-65" transform="translate(400.097656 0)"/>
    </g>
    <!-- automation -->
    <g style="fill: #666666" transform="translate(312.59588 60.065727) scale(0.105 -0.105)">
     <defs>
      <path id="LiberationSans-Bold-61" d="M 1228 -63 
Q 738 -63 463 204 
Q 188 472 188 956 
Q 188 1481 530 1756 
Q 872 2031 1522 2038 
L 2250 2050 
L 2250 2222 
Q 2250 2553 2134 2714 
Q 2019 2875 1756 2875 
Q 1513 2875 1398 2764 
Q 1284 2653 1256 2397 
L 341 2441 
Q 425 2934 792 3189 
Q 1159 3444 1794 3444 
Q 2434 3444 2781 3128 
Q 3128 2813 3128 2231 
L 3128 1000 
Q 3128 716 3192 608 
Q 3256 500 3406 500 
Q 3506 500 3600 519 
L 3600 44 
Q 3522 25 3459 9 
Q 3397 -6 3334 -15 
Q 3272 -25 3201 -31 
Q 3131 -38 3038 -38 
Q 2706 -38 2548 125 
Q 2391 288 2359 603 
L 2341 603 
Q 1972 -63 1228 -63 
z
M 2250 1566 
L 1800 1559 
Q 1494 1547 1366 1492 
Q 1238 1438 1170 1325 
Q 1103 1213 1103 1025 
Q 1103 784 1214 667 
Q 1325 550 1509 550 
Q 1716 550 1886 662 
Q 2056 775 2153 973 
Q 2250 1172 2250 1394 
L 2250 1566 
z
" transform="scale(0.015625)"/>
      <path id="LiberationSans-Bold-74" d="M 1313 -56 
Q 925 -56 715 155 
Q 506 366 506 794 
L 506 2788 
L 78 2788 
L 78 3381 
L 550 3381 
L 825 4175 
L 1375 4175 
L 1375 3381 
L 2016 3381 
L 2016 2788 
L 1375 2788 
L 1375 1031 
Q 1375 784 1469 667 
Q 1563 550 1759 550 
Q 1863 550 2053 594 
L 2053 50 
Q 1728 -56 1313 -56 
z
" transform="scale(0.015625)"/>
      <path id="LiberationSans-Bold-6d" d="M 2438 0 
L 2438 1897 
Q 2438 2788 1925 2788 
Q 1659 2788 1492 2516 
Q 1325 2244 1325 1813 
L 1325 0 
L 447 0 
L 447 2625 
Q 447 2897 439 3070 
Q 431 3244 422 3381 
L 1259 3381 
Q 1269 3322 1284 3064 
Q 1300 2806 1300 2709 
L 1313 2709 
Q 1475 3097 1717 3272 
Q 1959 3447 2297 3447 
Q 3072 3447 3238 2709 
L 3256 2709 
Q 3428 3103 3668 3275 
Q 3909 3447 4281 3447 
Q 4775 3447 5034 3111 
Q 5294 2775 5294 2147 
L 5294 0 
L 4422 0 
L 4422 1897 
Q 4422 2788 3909 2788 
Q 3653 2788 3489 2539 
Q 3325 2291 3309 1853 
L 3309 0 
L 2438 0 
z
" transform="scale(0.015625)"/>
     </defs>
     <use xlink:href="#LiberationSans-Bold-61"/>
     <use xlink:href="#LiberationSans-Bold-75" transform="translate(55.615234 0)"/>
     <use xlink:href="#LiberationSans-Bold-74" transform="translate(116.699219 0)"/>
     <use xlink:href="#LiberationSans-Bold-6f" transform="translate(150 0)"/>
     <use xlink:href="#LiberationSans-Bold-6d" transform="translate(211.083984 0)"/>
     <use xlink:href="#LiberationSans-Bold-61" transform="translate(300 0)"/>
     <use xlink:href="#LiberationSans-Bold-74" transform="translate(355.615234 0)"/>
     <use xlink:href="#LiberationSans-Bold-69" transform="translate(388.916016 0)"/>
     <use xlink:href="#LiberationSans-Bold-6f" transform="translate(416.699219 0)"/>
     <use xlink:href="#LiberationSans-Bold-6e" transform="translate(477.783203 0)"/>
    </g>
   </g>
   <g id="text_9">
    <!-- Background -->
    <g style="fill: #666666" transform="translate(111.930189 247.060745) scale(0.105 -0.105)">
     <defs>
      <path id="LiberationSans-Bold-42" d="M 4331 1256 
Q 4331 656 3881 328 
Q 3431 0 2631 0 
L 428 0 
L 428 4403 
L 2444 4403 
Q 3250 4403 3664 4123 
Q 4078 3844 4078 3297 
Q 4078 2922 3870 2664 
Q 3663 2406 3238 2316 
Q 3772 2253 4051 1979 
Q 4331 1706 4331 1256 
z
M 3150 3172 
Q 3150 3469 2961 3594 
Q 2772 3719 2400 3719 
L 1350 3719 
L 1350 2628 
L 2406 2628 
Q 2797 2628 2973 2764 
Q 3150 2900 3150 3172 
z
M 3406 1328 
Q 3406 1947 2519 1947 
L 1350 1947 
L 1350 684 
L 2553 684 
Q 2997 684 3201 845 
Q 3406 1006 3406 1328 
z
" transform="scale(0.015625)"/>
      <path id="LiberationSans-Bold-6b" d="M 2606 0 
L 1703 1531 
L 1325 1269 
L 1325 0 
L 447 0 
L 447 4638 
L 1325 4638 
L 1325 1981 
L 2531 3381 
L 3475 3381 
L 2288 2063 
L 3566 0 
L 2606 0 
z
" transform="scale(0.015625)"/>
      <path id="LiberationSans-Bold-67" d="M 1863 -1356 
Q 1244 -1356 867 -1120 
Q 491 -884 403 -447 
L 1281 -344 
Q 1328 -547 1483 -662 
Q 1638 -778 1888 -778 
Q 2253 -778 2422 -553 
Q 2591 -328 2591 116 
L 2591 294 
L 2597 628 
L 2591 628 
Q 2300 6 1503 6 
Q 913 6 588 450 
Q 263 894 263 1719 
Q 263 2547 597 2997 
Q 931 3447 1569 3447 
Q 2306 3447 2591 2838 
L 2606 2838 
Q 2606 2947 2620 3134 
Q 2634 3322 2650 3381 
L 3481 3381 
Q 3463 3044 3463 2600 
L 3463 103 
Q 3463 -619 3053 -987 
Q 2644 -1356 1863 -1356 
z
M 2597 1738 
Q 2597 2259 2411 2551 
Q 2225 2844 1881 2844 
Q 1178 2844 1178 1719 
Q 1178 616 1875 616 
Q 2225 616 2411 908 
Q 2597 1200 2597 1738 
z
" transform="scale(0.015625)"/>
     </defs>
     <use xlink:href="#LiberationSans-Bold-42"/>
     <use xlink:href="#LiberationSans-Bold-61" transform="translate(72.216797 0)"/>
     <use xlink:href="#LiberationSans-Bold-63" transform="translate(127.832031 0)"/>
     <use xlink:href="#LiberationSans-Bold-6b" transform="translate(183.447266 0)"/>
     <use xlink:href="#LiberationSans-Bold-67" transform="translate(239.0625 0)"/>
     <use xlink:href="#LiberationSans-Bold-72" transform="translate(300.146484 0)"/>
     <use xlink:href="#LiberationSans-Bold-6f" transform="translate(339.0625 0)"/>
     <use xlink:href="#LiberationSans-Bold-75" transform="translate(400.146484 0)"/>
     <use xlink:href="#LiberationSans-Bold-6e" transform="translate(461.230469 0)"/>
     <use xlink:href="#LiberationSans-Bold-64" transform="translate(522.314453 0)"/>
    </g>
    <!-- information -->
    <g style="fill: #666666" transform="translate(113.685658 258.416495) scale(0.105 -0.105)">
     <use xlink:href="#LiberationSans-Bold-69"/>
     <use xlink:href="#LiberationSans-Bold-6e" transform="translate(27.783203 0)"/>
     <use xlink:href="#LiberationSans-Bold-66" transform="translate(88.867188 0)"/>
     <use xlink:href="#LiberationSans-Bold-6f" transform="translate(122.167969 0)"/>
     <use xlink:href="#LiberationSans-Bold-72" transform="translate(183.251953 0)"/>
     <use xlink:href="#LiberationSans-Bold-6d" transform="translate(222.167969 0)"/>
     <use xlink:href="#LiberationSans-Bold-61" transform="translate(311.083984 0)"/>
     <use xlink:href="#LiberationSans-Bold-74" transform="translate(366.699219 0)"/>
     <use xlink:href="#LiberationSans-Bold-69" transform="translate(400 0)"/>
     <use xlink:href="#LiberationSans-Bold-6f" transform="translate(427.783203 0)"/>
     <use xlink:href="#LiberationSans-Bold-6e" transform="translate(488.867188 0)"/>
    </g>
   </g>
   <g id="text_10">
    <!-- Productive -->
    <g style="fill: #666666" transform="translate(313.754161 247.083714) scale(0.105 -0.105)">
     <defs>
      <path id="LiberationSans-Bold-50" d="M 4050 3009 
Q 4050 2584 3856 2250 
Q 3663 1916 3302 1733 
Q 2941 1550 2444 1550 
L 1350 1550 
L 1350 0 
L 428 0 
L 428 4403 
L 2406 4403 
Q 3197 4403 3623 4039 
Q 4050 3675 4050 3009 
z
M 3122 2994 
Q 3122 3688 2303 3688 
L 1350 3688 
L 1350 2259 
L 2328 2259 
Q 2709 2259 2915 2448 
Q 3122 2638 3122 2994 
z
" transform="scale(0.015625)"/>
     </defs>
     <use xlink:href="#LiberationSans-Bold-50"/>
     <use xlink:href="#LiberationSans-Bold-72" transform="translate(66.699219 0)"/>
     <use xlink:href="#LiberationSans-Bold-6f" transform="translate(105.615234 0)"/>
     <use xlink:href="#LiberationSans-Bold-64" transform="translate(166.699219 0)"/>
     <use xlink:href="#LiberationSans-Bold-75" transform="translate(227.783203 0)"/>
     <use xlink:href="#LiberationSans-Bold-63" transform="translate(288.867188 0)"/>
     <use xlink:href="#LiberationSans-Bold-74" transform="translate(344.482422 0)"/>
     <use xlink:href="#LiberationSans-Bold-69" transform="translate(377.783203 0)"/>
     <use xlink:href="#LiberationSans-Bold-76" transform="translate(405.566406 0)"/>
     <use xlink:href="#LiberationSans-Bold-65" transform="translate(461.181641 0)"/>
    </g>
    <!-- interoperability -->
    <g style="fill: #666666" transform="translate(302.96295 258.393527) scale(0.105 -0.105)">
     <defs>
      <path id="LiberationSans-Bold-70" d="M 3647 1706 
Q 3647 859 3308 398 
Q 2969 -63 2350 -63 
Q 1994 -63 1730 92 
Q 1466 247 1325 538 
L 1306 538 
Q 1325 444 1325 -31 
L 1325 -1328 
L 447 -1328 
L 447 2603 
Q 447 3081 422 3381 
L 1275 3381 
Q 1291 3325 1302 3159 
Q 1313 2994 1313 2831 
L 1325 2831 
Q 1622 3453 2406 3453 
Q 2997 3453 3322 2998 
Q 3647 2544 3647 1706 
z
M 2731 1706 
Q 2731 2844 2034 2844 
Q 1684 2844 1498 2537 
Q 1313 2231 1313 1681 
Q 1313 1134 1498 836 
Q 1684 538 2028 538 
Q 2731 538 2731 1706 
z
" transform="scale(0.015625)"/>
      <path id="LiberationSans-Bold-62" d="M 3647 1703 
Q 3647 866 3311 401 
Q 2975 -63 2350 -63 
Q 1991 -63 1728 93 
Q 1466 250 1325 544 
L 1319 544 
Q 1319 434 1305 243 
Q 1291 53 1275 0 
L 422 0 
Q 447 291 447 772 
L 447 4638 
L 1325 4638 
L 1325 3344 
L 1313 2794 
L 1325 2794 
Q 1622 3444 2406 3444 
Q 3006 3444 3326 2989 
Q 3647 2534 3647 1703 
z
M 2731 1703 
Q 2731 2278 2562 2556 
Q 2394 2834 2041 2834 
Q 1684 2834 1498 2536 
Q 1313 2238 1313 1675 
Q 1313 1138 1495 838 
Q 1678 538 2034 538 
Q 2731 538 2731 1703 
z
" transform="scale(0.015625)"/>
      <path id="LiberationSans-Bold-79" d="M 884 -1328 
Q 569 -1328 331 -1288 
L 331 -663 
Q 497 -688 634 -688 
Q 822 -688 945 -628 
Q 1069 -569 1167 -431 
Q 1266 -294 1388 34 
L 50 3381 
L 978 3381 
L 1509 1797 
Q 1634 1456 1825 753 
L 1903 1050 
L 2106 1784 
L 2606 3381 
L 3525 3381 
L 2188 -178 
Q 1919 -828 1630 -1078 
Q 1341 -1328 884 -1328 
z
" transform="scale(0.015625)"/>
     </defs>
     <use xlink:href="#LiberationSans-Bold-69"/>
     <use xlink:href="#LiberationSans-Bold-6e" transform="translate(27.783203 0)"/>
     <use xlink:href="#LiberationSans-Bold-74" transform="translate(88.867188 0)"/>
     <use xlink:href="#LiberationSans-Bold-65" transform="translate(122.167969 0)"/>
     <use xlink:href="#LiberationSans-Bold-72" transform="translate(177.783203 0)"/>
     <use xlink:href="#LiberationSans-Bold-6f" transform="translate(216.699219 0)"/>
     <use xlink:href="#LiberationSans-Bold-70" transform="translate(277.783203 0)"/>
     <use xlink:href="#LiberationSans-Bold-65" transform="translate(338.867188 0)"/>
     <use xlink:href="#LiberationSans-Bold-72" transform="translate(394.482422 0)"/>
     <use xlink:href="#LiberationSans-Bold-61" transform="translate(433.398438 0)"/>
     <use xlink:href="#LiberationSans-Bold-62" transform="translate(489.013672 0)"/>
     <use xlink:href="#LiberationSans-Bold-69" transform="translate(550.097656 0)"/>
     <use xlink:href="#LiberationSans-Bold-6c" transform="translate(577.880859 0)"/>
     <use xlink:href="#LiberationSans-Bold-69" transform="translate(605.664062 0)"/>
     <use xlink:href="#LiberationSans-Bold-74" transform="translate(633.447266 0)"/>
     <use xlink:href="#LiberationSans-Bold-79" transform="translate(666.748047 0)"/>
    </g>
   </g>
   <g id="line2d_11">
    <path d="M 241.720456 424.55185 
L 241.720456 27.89625 
" clip-path="url(#p83ff7190de)" style="fill: none; stroke: #666666; stroke-linecap: round"/>
   </g>
   <g id="line2d_12">
    <path d="M 43.392656 226.22405 
L 440.048256 226.22405 
" clip-path="url(#p83ff7190de)" style="fill: none; stroke: #666666; stroke-linecap: round"/>
   </g>
   <g id="PathCollection_1"/>
   <g id="PathCollection_2"/>
   <g id="patch_7">
    <path d="M 43.392656 424.55185 
L 43.392656 27.89625 
" style="fill: none; stroke: #262626; stroke-width: 1.25; stroke-linejoin: miter; stroke-linecap: square"/>
   </g>
   <g id="patch_8">
    <path d="M 43.392656 424.55185 
L 440.048256 424.55185 
" style="fill: none; stroke: #262626; stroke-width: 1.25; stroke-linejoin: miter; stroke-linecap: square"/>
   </g>
   <g id="text_11">
    <!-- Dual-use plane: interoperability gain × security risk -->
    <g style="fill: #666666" transform="translate(95.852956 15.89625) scale(0.12 -0.12)">
     <defs>
      <path id="LiberationSans-Bold-2d" d="M 250 1278 
L 250 2041 
L 1875 2041 
L 1875 1278 
L 250 1278 
z
" transform="scale(0.015625)"/>
      <path id="LiberationSans-Bold-20" transform="scale(0.015625)"/>
      <path id="LiberationSans-Bold-3a" d="M 616 2350 
L 616 3231 
L 1516 3231 
L 1516 2350 
L 616 2350 
z
M 616 0 
L 616 878 
L 1516 878 
L 1516 0 
L 616 0 
z
" transform="scale(0.015625)"/>
      <path id="LiberationSans-Bold-d7" d="M 269 1019 
L 1381 2138 
L 281 3238 
L 775 3725 
L 1875 2631 
L 2975 3731 
L 3469 3238 
L 2369 2131 
L 3469 1038 
L 2975 538 
L 1875 1644 
L 763 525 
L 269 1019 
z
" transform="scale(0.015625)"/>
     </defs>
     <use xlink:href="#LiberationSans-Bold-44"/>
     <use xlink:href="#LiberationSans-Bold-75" transform="translate(72.216797 0)"/>
     <use xlink:href="#LiberationSans-Bold-61" transform="translate(133.300781 0)"/>
     <use xlink:href="#LiberationSans-Bold-6c" transform="translate(188.916016 0)"/>
     <use xlink:href="#LiberationSans-Bold-2d" transform="translate(216.699219 0)"/>
     <use xlink:href="#LiberationSans-Bold-75" transform="translate(250 0)"/>
     <use xlink:href="#LiberationSans-Bold-73" transform="translate(311.083984 0)"/>
     <use xlink:href="#LiberationSans-Bold-65" transform="translate(366.699219 0)"/>
     <use xlink:href="#LiberationSans-Bold-20" transform="translate(422.314453 0)"/>
     <use xlink:href="#LiberationSans-Bold-70" transform="translate(450.097656 0)"/>
     <use xlink:href="#LiberationSans-Bold-6c" transform="translate(511.181641 0)"/>
     <use xlink:href="#LiberationSans-Bold-61" transform="translate(538.964844 0)"/>
     <use xlink:href="#LiberationSans-Bold-6e" transform="translate(594.580078 0)"/>
     <use xlink:href="#LiberationSans-Bold-65" transform="translate(655.664062 0)"/>
     <use xlink:href="#LiberationSans-Bold-3a" transform="translate(711.279297 0)"/>
     <use xlink:href="#LiberationSans-Bold-20" transform="translate(744.580078 0)"/>
     <use xlink:href="#LiberationSans-Bold-69" transform="translate(772.363281 0)"/>
     <use xlink:href="#LiberationSans-Bold-6e" transform="translate(800.146484 0)"/>
     <use xlink:href="#LiberationSans-Bold-74" transform="translate(861.230469 0)"/>
     <use xlink:href="#LiberationSans-Bold-65" transform="translate(894.53125 0)"/>
     <use xlink:href="#LiberationSans-Bold-72" transform="translate(950.146484 0)"/>
     <use xlink:href="#LiberationSans-Bold-6f" transform="translate(989.0625 0)"/>
     <use xlink:href="#LiberationSans-Bold-70" transform="translate(1050.146484 0)"/>
     <use xlink:href="#LiberationSans-Bold-65" transform="translate(1111.230469 0)"/>
     <use xlink:href="#LiberationSans-Bold-72" transform="translate(1166.845703 0)"/>
     <use xlink:href="#LiberationSans-Bold-61" transform="translate(1205.761719 0)"/>
     <use xlink:href="#LiberationSans-Bold-62" transform="translate(1261.376953 0)"/>
     <use xlink:href="#LiberationSans-Bold-69" transform="translate(1322.460938 0)"/>
     <use xlink:href="#LiberationSans-Bold-6c" transform="translate(1350.244141 0)"/>
     <use xlink:href="#LiberationSans-Bold-69" transform="translate(1378.027344 0)"/>
     <use xlink:href="#LiberationSans-Bold-74" transform="translate(1405.810547 0)"/>
     <use xlink:href="#LiberationSans-Bold-79" transform="translate(1439.111328 0)"/>
     <use xlink:href="#LiberationSans-Bold-20" transform="translate(1494.726562 0)"/>
     <use xlink:href="#LiberationSans-Bold-67" transform="translate(1522.509766 0)"/>
     <use xlink:href="#LiberationSans-Bold-61" transform="translate(1583.59375 0)"/>
     <use xlink:href="#LiberationSans-Bold-69" transform="translate(1639.208984 0)"/>
     <use xlink:href="#LiberationSans-Bold-6e" transform="translate(1666.992188 0)"/>
     <use xlink:href="#LiberationSans-Bold-20" transform="translate(1728.076172 0)"/>
     <use xlink:href="#LiberationSans-Bold-d7" transform="translate(1755.859375 0)"/>
     <use xlink:href="#LiberationSans-Bold-20" transform="translate(1814.257812 0)"/>
     <use xlink:href="#LiberationSans-Bold-73" transform="translate(1842.041016 0)"/>
     <use xlink:href="#LiberationSans-Bold-65" transform="translate(1897.65625 0)"/>
     <use xlink:href="#LiberationSans-Bold-63" transform="translate(1953.271484 0)"/>
     <use xlink:href="#LiberationSans-Bold-75" transform="translate(2008.886719 0)"/>
     <use xlink:href="#LiberationSans-Bold-72" transform="translate(2069.970703 0)"/>
     <use xlink:href="#LiberationSans-Bold-69" transform="translate(2108.886719 0)"/>
     <use xlink:href="#LiberationSans-Bold-74" transform="translate(2136.669922 0)"/>
     <use xlink:href="#LiberationSans-Bold-79" transform="translate(2169.970703 0)"/>
     <use xlink:href="#LiberationSans-Bold-20" transform="translate(2225.585938 0)"/>
     <use xlink:href="#LiberationSans-Bold-72" transform="translate(2253.369141 0)"/>
     <use xlink:href="#LiberationSans-Bold-69" transform="translate(2292.285156 0)"/>
     <use xlink:href="#LiberationSans-Bold-73" transform="translate(2320.068359 0)"/>
     <use xlink:href="#LiberationSans-Bold-6b" transform="translate(2375.683594 0)"/>
    </g>
   </g>
   <g id="PathCollection_3">
    <defs>
     <path id="mfba96c778c" d="M 0 5.91608 
C 1.568963 5.91608 3.073876 5.292724 4.1833 4.1833 
C 5.292724 3.073876 5.91608 1.568963 5.91608 0 
C 5.91608 -1.568963 5.292724 -3.073876 4.1833 -4.1833 
C 3.073876 -5.292724 1.568963 -5.91608 0 -5.91608 
C -1.568963 -5.91608 -3.073876 -5.292724 -4.1833 -4.1833 
C -5.292724 -3.073876 -5.91608 -1.568963 -5.91608 0 
C -5.91608 1.568963 -5.292724 3.073876 -4.1833 4.1833 
C -3.073876 5.292724 -1.568963 5.91608 0 5.91608 
z
" style="stroke: #ffffff; stroke-width: 1.4"/>
    </defs>
    <g clip-path="url(#p83ff7190de)">
     <use xlink:href="#mfba96c778c" x="340.884356" y="325.38795" style="fill: #00658b; stroke: #ffffff; stroke-width: 1.4"/>
    </g>
   </g>
   <g id="PathCollection_4">
    <g clip-path="url(#p83ff7190de)">
     <use xlink:href="#mfba96c778c" x="368.650248" y="265.88961" style="fill: #00658b; stroke: #ffffff; stroke-width: 1.4"/>
    </g>
   </g>
   <g id="PathCollection_5">
    <g clip-path="url(#p83ff7190de)">
     <use xlink:href="#mfba96c778c" x="261.553236" y="297.622058" style="fill: #00658b; stroke: #ffffff; stroke-width: 1.4"/>
    </g>
   </g>
   <g id="PathCollection_6">
    <g clip-path="url(#p83ff7190de)">
     <use xlink:href="#mfba96c778c" x="281.386016" y="206.39127" style="fill: #00658b; stroke: #ffffff; stroke-width: 1.4"/>
    </g>
   </g>
   <g id="PathCollection_7">
    <g clip-path="url(#p83ff7190de)">
     <use xlink:href="#mfba96c778c" x="202.054896" y="166.72571" style="fill: #00658b; stroke: #ffffff; stroke-width: 1.4"/>
    </g>
   </g>
   <g id="PathCollection_8">
    <defs>
     <path id="mdb254efc19" d="M 0 5.91608 
C 1.568963 5.91608 3.073876 5.292724 4.1833 4.1833 
C 5.292724 3.073876 5.91608 1.568963 5.91608 0 
C 5.91608 -1.568963 5.292724 -3.073876 4.1833 -4.1833 
C 3.073876 -5.292724 1.568963 -5.91608 0 -5.91608 
C -1.568963 -5.91608 -3.073876 -5.292724 -4.1833 -4.1833 
C -5.292724 -3.073876 -5.91608 -1.568963 -5.91608 0 
C -5.91608 1.568963 -5.292724 3.073876 -4.1833 4.1833 
C -3.073876 5.292724 -1.568963 5.91608 0 5.91608 
z
" style="stroke: #ffffff; stroke-width: 1.4"/>
    </defs>
    <g clip-path="url(#p83ff7190de)">
     <use xlink:href="#mdb254efc19" x="400.382696" y="67.56181" style="fill: #ee6677; stroke: #ffffff; stroke-width: 1.4"/>
    </g>
   </g>
   <g id="text_12">
    <!-- Spider Farmer -->
    <g style="fill: #1a1a1a" transform="translate(350.800746 312.811857) scale(0.095 -0.095)">
     <defs>
      <path id="LiberationSans-64" d="M 2566 544 
Q 2409 219 2151 78 
Q 1894 -63 1513 -63 
Q 872 -63 570 368 
Q 269 800 269 1675 
Q 269 3444 1513 3444 
Q 1897 3444 2153 3303 
Q 2409 3163 2566 2856 
L 2572 2856 
L 2566 3234 
L 2566 4638 
L 3128 4638 
L 3128 697 
Q 3128 169 3147 0 
L 2609 0 
Q 2600 50 2589 231 
Q 2578 413 2578 544 
L 2566 544 
z
M 859 1694 
Q 859 984 1046 678 
Q 1234 372 1656 372 
Q 2134 372 2350 703 
Q 2566 1034 2566 1731 
Q 2566 2403 2350 2715 
Q 2134 3028 1663 3028 
Q 1238 3028 1048 2714 
Q 859 2400 859 1694 
z
" transform="scale(0.015625)"/>
      <path id="LiberationSans-46" d="M 1122 3916 
L 1122 2278 
L 3578 2278 
L 3578 1784 
L 1122 1784 
L 1122 0 
L 525 0 
L 525 4403 
L 3653 4403 
L 3653 3916 
L 1122 3916 
z
" transform="scale(0.015625)"/>
      <path id="LiberationSans-6d" d="M 2400 0 
L 2400 2144 
Q 2400 2634 2265 2821 
Q 2131 3009 1781 3009 
Q 1422 3009 1212 2734 
Q 1003 2459 1003 1959 
L 1003 0 
L 444 0 
L 444 2659 
Q 444 3250 425 3381 
L 956 3381 
Q 959 3366 962 3297 
Q 966 3228 970 3139 
Q 975 3050 981 2803 
L 991 2803 
Q 1172 3163 1406 3303 
Q 1641 3444 1978 3444 
Q 2363 3444 2586 3291 
Q 2809 3138 2897 2803 
L 2906 2803 
Q 3081 3144 3329 3294 
Q 3578 3444 3931 3444 
Q 4444 3444 4676 3166 
Q 4909 2888 4909 2253 
L 4909 0 
L 4353 0 
L 4353 2144 
Q 4353 2634 4218 2821 
Q 4084 3009 3734 3009 
Q 3366 3009 3161 2736 
Q 2956 2463 2956 1959 
L 2956 0 
L 2400 0 
z
" transform="scale(0.015625)"/>
     </defs>
     <use xlink:href="#LiberationSans-53"/>
     <use xlink:href="#LiberationSans-70" transform="translate(66.699219 0)"/>
     <use xlink:href="#LiberationSans-69" transform="translate(122.314453 0)"/>
     <use xlink:href="#LiberationSans-64" transform="translate(144.53125 0)"/>
     <use xlink:href="#LiberationSans-65" transform="translate(200.146484 0)"/>
     <use xlink:href="#LiberationSans-72" transform="translate(255.761719 0)"/>
     <use xlink:href="#LiberationSans-20" transform="translate(289.0625 0)"/>
     <use xlink:href="#LiberationSans-46" transform="translate(316.845703 0)"/>
     <use xlink:href="#LiberationSans-61" transform="translate(377.929688 0)"/>
     <use xlink:href="#LiberationSans-72" transform="translate(433.544922 0)"/>
     <use xlink:href="#LiberationSans-6d" transform="translate(466.845703 0)"/>
     <use xlink:href="#LiberationSans-65" transform="translate(550.146484 0)"/>
     <use xlink:href="#LiberationSans-72" transform="translate(605.761719 0)"/>
    </g>
    <!-- (local BLE control) -->
    <g style="fill: #1a1a1a" transform="translate(350.800746 323.044544) scale(0.095 -0.095)">
     <defs>
      <path id="LiberationSans-28" d="M 397 1663 
Q 397 2566 680 3284 
Q 963 4003 1550 4638 
L 2094 4638 
Q 1509 3988 1236 3256 
Q 963 2525 963 1656 
Q 963 791 1233 62 
Q 1503 -666 2094 -1325 
L 1550 -1325 
Q 959 -688 678 32 
Q 397 753 397 1650 
L 397 1663 
z
" transform="scale(0.015625)"/>
      <path id="LiberationSans-42" d="M 3931 1241 
Q 3931 653 3503 326 
Q 3075 0 2313 0 
L 525 0 
L 525 4403 
L 2125 4403 
Q 3675 4403 3675 3334 
Q 3675 2944 3456 2678 
Q 3238 2413 2838 2322 
Q 3363 2259 3647 1970 
Q 3931 1681 3931 1241 
z
M 3075 3263 
Q 3075 3619 2831 3772 
Q 2588 3925 2125 3925 
L 1122 3925 
L 1122 2531 
L 2125 2531 
Q 2603 2531 2839 2711 
Q 3075 2891 3075 3263 
z
M 3328 1288 
Q 3328 2066 2234 2066 
L 1122 2066 
L 1122 478 
L 2281 478 
Q 2828 478 3078 681 
Q 3328 884 3328 1288 
z
" transform="scale(0.015625)"/>
      <path id="LiberationSans-4c" d="M 525 0 
L 525 4403 
L 1122 4403 
L 1122 488 
L 3347 488 
L 3347 0 
L 525 0 
z
" transform="scale(0.015625)"/>
      <path id="LiberationSans-45" d="M 525 0 
L 525 4403 
L 3866 4403 
L 3866 3916 
L 1122 3916 
L 1122 2503 
L 3678 2503 
L 3678 2022 
L 1122 2022 
L 1122 488 
L 3994 488 
L 3994 0 
L 525 0 
z
" transform="scale(0.015625)"/>
      <path id="LiberationSans-29" d="M 1734 1650 
Q 1734 747 1451 28 
Q 1169 -691 581 -1325 
L 38 -1325 
Q 625 -669 897 57 
Q 1169 784 1169 1656 
Q 1169 2528 895 3256 
Q 622 3984 38 4638 
L 581 4638 
Q 1172 4000 1453 3279 
Q 1734 2559 1734 1663 
L 1734 1650 
z
" transform="scale(0.015625)"/>
     </defs>
     <use xlink:href="#LiberationSans-28"/>
     <use xlink:href="#LiberationSans-6c" transform="translate(33.300781 0)"/>
     <use xlink:href="#LiberationSans-6f" transform="translate(55.517578 0)"/>
     <use xlink:href="#LiberationSans-63" transform="translate(111.132812 0)"/>
     <use xlink:href="#LiberationSans-61" transform="translate(161.132812 0)"/>
     <use xlink:href="#LiberationSans-6c" transform="translate(216.748047 0)"/>
     <use xlink:href="#LiberationSans-20" transform="translate(238.964844 0)"/>
     <use xlink:href="#LiberationSans-42" transform="translate(266.748047 0)"/>
     <use xlink:href="#LiberationSans-4c" transform="translate(333.447266 0)"/>
     <use xlink:href="#LiberationSans-45" transform="translate(389.0625 0)"/>
     <use xlink:href="#LiberationSans-20" transform="translate(455.761719 0)"/>
     <use xlink:href="#LiberationSans-63" transform="translate(483.544922 0)"/>
     <use xlink:href="#LiberationSans-6f" transform="translate(533.544922 0)"/>
     <use xlink:href="#LiberationSans-6e" transform="translate(589.160156 0)"/>
     <use xlink:href="#LiberationSans-74" transform="translate(644.775391 0)"/>
     <use xlink:href="#LiberationSans-72" transform="translate(672.558594 0)"/>
     <use xlink:href="#LiberationSans-6f" transform="translate(705.859375 0)"/>
     <use xlink:href="#LiberationSans-6c" transform="translate(761.474609 0)"/>
     <use xlink:href="#LiberationSans-29" transform="translate(783.691406 0)"/>
    </g>
   </g>
   <g id="text_13">
    <!-- EcoFlow PowerOcean -->
    <g style="fill: #1a1a1a" transform="translate(378.566638 281.079409) scale(0.095 -0.095)">
     <defs>
      <path id="LiberationSans-50" d="M 3931 3078 
Q 3931 2453 3523 2084 
Q 3116 1716 2416 1716 
L 1122 1716 
L 1122 0 
L 525 0 
L 525 4403 
L 2378 4403 
Q 3119 4403 3525 4056 
Q 3931 3709 3931 3078 
z
M 3331 3072 
Q 3331 3925 2306 3925 
L 1122 3925 
L 1122 2188 
L 2331 2188 
Q 3331 2188 3331 3072 
z
" transform="scale(0.015625)"/>
      <path id="LiberationSans-4f" d="M 4672 2222 
Q 4672 1531 4408 1012 
Q 4144 494 3650 215 
Q 3156 -63 2484 -63 
Q 1806 -63 1314 212 
Q 822 488 562 1008 
Q 303 1528 303 2222 
Q 303 3278 881 3873 
Q 1459 4469 2491 4469 
Q 3163 4469 3656 4201 
Q 4150 3934 4411 3425 
Q 4672 2916 4672 2222 
z
M 4063 2222 
Q 4063 3044 3652 3512 
Q 3241 3981 2491 3981 
Q 1734 3981 1321 3518 
Q 909 3056 909 2222 
Q 909 1394 1326 908 
Q 1744 422 2484 422 
Q 3247 422 3655 892 
Q 4063 1363 4063 2222 
z
" transform="scale(0.015625)"/>
     </defs>
     <use xlink:href="#LiberationSans-45"/>
     <use xlink:href="#LiberationSans-63" transform="translate(66.699219 0)"/>
     <use xlink:href="#LiberationSans-6f" transform="translate(116.699219 0)"/>
     <use xlink:href="#LiberationSans-46" transform="translate(172.314453 0)"/>
     <use xlink:href="#LiberationSans-6c" transform="translate(233.398438 0)"/>
     <use xlink:href="#LiberationSans-6f" transform="translate(255.615234 0)"/>
     <use xlink:href="#LiberationSans-77" transform="translate(311.230469 0)"/>
     <use xlink:href="#LiberationSans-20" transform="translate(383.447266 0)"/>
     <use xlink:href="#LiberationSans-50" transform="translate(411.230469 0)"/>
     <use xlink:href="#LiberationSans-6f" transform="translate(477.929688 0)"/>
     <use xlink:href="#LiberationSans-77" transform="translate(533.544922 0)"/>
     <use xlink:href="#LiberationSans-65" transform="translate(605.761719 0)"/>
     <use xlink:href="#LiberationSans-72" transform="translate(661.376953 0)"/>
     <use xlink:href="#LiberationSans-4f" transform="translate(694.677734 0)"/>
     <use xlink:href="#LiberationSans-63" transform="translate(772.460938 0)"/>
     <use xlink:href="#LiberationSans-65" transform="translate(822.460938 0)"/>
     <use xlink:href="#LiberationSans-61" transform="translate(878.076172 0)"/>
     <use xlink:href="#LiberationSans-6e" transform="translate(933.691406 0)"/>
    </g>
    <!-- (local energy data) -->
    <g style="fill: #1a1a1a" transform="translate(378.566638 291.312096) scale(0.095 -0.095)">
     <use xlink:href="#LiberationSans-28"/>
     <use xlink:href="#LiberationSans-6c" transform="translate(33.300781 0)"/>
     <use xlink:href="#LiberationSans-6f" transform="translate(55.517578 0)"/>
     <use xlink:href="#LiberationSans-63" transform="translate(111.132812 0)"/>
     <use xlink:href="#LiberationSans-61" transform="translate(161.132812 0)"/>
     <use xlink:href="#LiberationSans-6c" transform="translate(216.748047 0)"/>
     <use xlink:href="#LiberationSans-20" transform="translate(238.964844 0)"/>
     <use xlink:href="#LiberationSans-65" transform="translate(266.748047 0)"/>
     <use xlink:href="#LiberationSans-6e" transform="translate(322.363281 0)"/>
     <use xlink:href="#LiberationSans-65" transform="translate(377.978516 0)"/>
     <use xlink:href="#LiberationSans-72" transform="translate(433.59375 0)"/>
     <use xlink:href="#LiberationSans-67" transform="translate(466.894531 0)"/>
     <use xlink:href="#LiberationSans-79" transform="translate(522.509766 0)"/>
     <use xlink:href="#LiberationSans-20" transform="translate(572.509766 0)"/>
     <use xlink:href="#LiberationSans-64" transform="translate(600.292969 0)"/>
     <use xlink:href="#LiberationSans-61" transform="translate(655.908203 0)"/>
     <use xlink:href="#LiberationSans-74" transform="translate(711.523438 0)"/>
     <use xlink:href="#LiberationSans-61" transform="translate(739.306641 0)"/>
     <use xlink:href="#LiberationSans-29" transform="translate(794.921875 0)"/>
    </g>
   </g>
   <g id="text_14">
    <!-- Ondilo ICO -->
    <g style="fill: #1a1a1a" transform="translate(204.648956 283.062687) scale(0.095 -0.095)">
     <defs>
      <path id="LiberationSans-43" d="M 2475 3981 
Q 1744 3981 1337 3511 
Q 931 3041 931 2222 
Q 931 1413 1354 920 
Q 1778 428 2500 428 
Q 3425 428 3891 1344 
L 4378 1100 
Q 4106 531 3614 234 
Q 3122 -63 2472 -63 
Q 1806 -63 1320 214 
Q 834 491 579 1005 
Q 325 1519 325 2222 
Q 325 3275 894 3872 
Q 1463 4469 2469 4469 
Q 3172 4469 3644 4194 
Q 4116 3919 4338 3378 
L 3772 3191 
Q 3619 3575 3280 3778 
Q 2941 3981 2475 3981 
z
" transform="scale(0.015625)"/>
     </defs>
     <use xlink:href="#LiberationSans-4f"/>
     <use xlink:href="#LiberationSans-6e" transform="translate(77.783203 0)"/>
     <use xlink:href="#LiberationSans-64" transform="translate(133.398438 0)"/>
     <use xlink:href="#LiberationSans-69" transform="translate(189.013672 0)"/>
     <use xlink:href="#LiberationSans-6c" transform="translate(211.230469 0)"/>
     <use xlink:href="#LiberationSans-6f" transform="translate(233.447266 0)"/>
     <use xlink:href="#LiberationSans-20" transform="translate(289.0625 0)"/>
     <use xlink:href="#LiberationSans-49" transform="translate(316.845703 0)"/>
     <use xlink:href="#LiberationSans-43" transform="translate(344.628906 0)"/>
     <use xlink:href="#LiberationSans-4f" transform="translate(416.845703 0)"/>
    </g>
    <!-- (spa telemetry) -->
    <g style="fill: #1a1a1a" transform="translate(188.291143 293.295374) scale(0.095 -0.095)">
     <use xlink:href="#LiberationSans-28"/>
     <use xlink:href="#LiberationSans-73" transform="translate(33.300781 0)"/>
     <use xlink:href="#LiberationSans-70" transform="translate(83.300781 0)"/>
     <use xlink:href="#LiberationSans-61" transform="translate(138.916016 0)"/>
     <use xlink:href="#LiberationSans-20" transform="translate(194.53125 0)"/>
     <use xlink:href="#LiberationSans-74" transform="translate(222.314453 0)"/>
     <use xlink:href="#LiberationSans-65" transform="translate(250.097656 0)"/>
     <use xlink:href="#LiberationSans-6c" transform="translate(305.712891 0)"/>
     <use xlink:href="#LiberationSans-65" transform="translate(327.929688 0)"/>
     <use xlink:href="#LiberationSans-6d" transform="translate(383.544922 0)"/>
     <use xlink:href="#LiberationSans-65" transform="translate(466.845703 0)"/>
     <use xlink:href="#LiberationSans-74" transform="translate(522.460938 0)"/>
     <use xlink:href="#LiberationSans-72" transform="translate(550.244141 0)"/>
     <use xlink:href="#LiberationSans-79" transform="translate(583.544922 0)"/>
     <use xlink:href="#LiberationSans-29" transform="translate(633.544922 0)"/>
    </g>
   </g>
   <g id="text_15">
    <!-- Balboa GL -->
    <g style="fill: #1a1a1a" transform="translate(291.302406 219.597791) scale(0.095 -0.095)">
     <defs>
      <path id="LiberationSans-47" d="M 322 2222 
Q 322 3294 897 3881 
Q 1472 4469 2513 4469 
Q 3244 4469 3700 4222 
Q 4156 3975 4403 3431 
L 3834 3263 
Q 3647 3638 3317 3809 
Q 2988 3981 2497 3981 
Q 1734 3981 1331 3520 
Q 928 3059 928 2222 
Q 928 1388 1356 905 
Q 1784 422 2541 422 
Q 2972 422 3345 553 
Q 3719 684 3950 909 
L 3950 1703 
L 2634 1703 
L 2634 2203 
L 4500 2203 
L 4500 684 
Q 4150 328 3642 132 
Q 3134 -63 2541 -63 
Q 1850 -63 1350 212 
Q 850 488 586 1005 
Q 322 1522 322 2222 
z
" transform="scale(0.015625)"/>
     </defs>
     <use xlink:href="#LiberationSans-42"/>
     <use xlink:href="#LiberationSans-61" transform="translate(66.699219 0)"/>
     <use xlink:href="#LiberationSans-6c" transform="translate(122.314453 0)"/>
     <use xlink:href="#LiberationSans-62" transform="translate(144.53125 0)"/>
     <use xlink:href="#LiberationSans-6f" transform="translate(200.146484 0)"/>
     <use xlink:href="#LiberationSans-61" transform="translate(255.761719 0)"/>
     <use xlink:href="#LiberationSans-20" transform="translate(311.376953 0)"/>
     <use xlink:href="#LiberationSans-47" transform="translate(339.160156 0)"/>
     <use xlink:href="#LiberationSans-4c" transform="translate(416.943359 0)"/>
    </g>
    <!-- (spa control) -->
    <g style="fill: #1a1a1a" transform="translate(291.302406 229.830478) scale(0.095 -0.095)">
     <use xlink:href="#LiberationSans-28"/>
     <use xlink:href="#LiberationSans-73" transform="translate(33.300781 0)"/>
     <use xlink:href="#LiberationSans-70" transform="translate(83.300781 0)"/>
     <use xlink:href="#LiberationSans-61" transform="translate(138.916016 0)"/>
     <use xlink:href="#LiberationSans-20" transform="translate(194.53125 0)"/>
     <use xlink:href="#LiberationSans-63" transform="translate(222.314453 0)"/>
     <use xlink:href="#LiberationSans-6f" transform="translate(272.314453 0)"/>
     <use xlink:href="#LiberationSans-6e" transform="translate(327.929688 0)"/>
     <use xlink:href="#LiberationSans-74" transform="translate(383.544922 0)"/>
     <use xlink:href="#LiberationSans-72" transform="translate(411.328125 0)"/>
     <use xlink:href="#LiberationSans-6f" transform="translate(444.628906 0)"/>
     <use xlink:href="#LiberationSans-6c" transform="translate(500.244141 0)"/>
     <use xlink:href="#LiberationSans-29" transform="translate(522.460938 0)"/>
    </g>
   </g>
   <g id="text_16">
    <!-- Meta-process -->
    <g style="fill: #1a1a1a" transform="translate(134.595225 152.166339) scale(0.095 -0.095)">
     <defs>
      <path id="LiberationSans-4d" d="M 4269 0 
L 4269 2938 
Q 4269 3425 4297 3875 
Q 4144 3316 4022 3000 
L 2884 0 
L 2466 0 
L 1313 3000 
L 1138 3531 
L 1034 3875 
L 1044 3528 
L 1056 2938 
L 1056 0 
L 525 0 
L 525 4403 
L 1309 4403 
L 2481 1350 
Q 2544 1166 2601 955 
Q 2659 744 2678 650 
Q 2703 775 2783 1029 
Q 2863 1284 2891 1350 
L 4041 4403 
L 4806 4403 
L 4806 0 
L 4269 0 
z
" transform="scale(0.015625)"/>
      <path id="LiberationSans-2d" d="M 284 1450 
L 284 1950 
L 1847 1950 
L 1847 1450 
L 284 1450 
z
" transform="scale(0.015625)"/>
     </defs>
     <use xlink:href="#LiberationSans-4d"/>
     <use xlink:href="#LiberationSans-65" transform="translate(83.300781 0)"/>
     <use xlink:href="#LiberationSans-74" transform="translate(138.916016 0)"/>
     <use xlink:href="#LiberationSans-61" transform="translate(166.699219 0)"/>
     <use xlink:href="#LiberationSans-2d" transform="translate(222.314453 0)"/>
     <use xlink:href="#LiberationSans-70" transform="translate(255.615234 0)"/>
     <use xlink:href="#LiberationSans-72" transform="translate(311.230469 0)"/>
     <use xlink:href="#LiberationSans-6f" transform="translate(344.53125 0)"/>
     <use xlink:href="#LiberationSans-63" transform="translate(400.146484 0)"/>
     <use xlink:href="#LiberationSans-65" transform="translate(450.146484 0)"/>
     <use xlink:href="#LiberationSans-73" transform="translate(505.761719 0)"/>
     <use xlink:href="#LiberationSans-73" transform="translate(555.761719 0)"/>
    </g>
    <!-- (this paper) -->
    <g style="fill: #1a1a1a" transform="translate(144.095225 162.399026) scale(0.095 -0.095)">
     <use xlink:href="#LiberationSans-28"/>
     <use xlink:href="#LiberationSans-74" transform="translate(33.300781 0)"/>
     <use xlink:href="#LiberationSans-68" transform="translate(61.083984 0)"/>
     <use xlink:href="#LiberationSans-69" transform="translate(116.699219 0)"/>
     <use xlink:href="#LiberationSans-73" transform="translate(138.916016 0)"/>
     <use xlink:href="#LiberationSans-20" transform="translate(188.916016 0)"/>
     <use xlink:href="#LiberationSans-70" transform="translate(216.699219 0)"/>
     <use xlink:href="#LiberationSans-61" transform="translate(272.314453 0)"/>
     <use xlink:href="#LiberationSans-70" transform="translate(327.929688 0)"/>
     <use xlink:href="#LiberationSans-65" transform="translate(383.544922 0)"/>
     <use xlink:href="#LiberationSans-72" transform="translate(439.160156 0)"/>
     <use xlink:href="#LiberationSans-29" transform="translate(472.460938 0)"/>
    </g>
   </g>
   <g id="text_17">
    <!-- Adversarial -->
    <g style="fill: #ee6677" transform="translate(338.715056 82.730828) scale(0.095 -0.095)">
     <defs>
      <path id="LiberationSans-Bold-41" d="M 3541 0 
L 3150 1125 
L 1472 1125 
L 1081 0 
L 159 0 
L 1766 4403 
L 2853 4403 
L 4453 0 
L 3541 0 
z
M 2309 3725 
L 2291 3656 
Q 2259 3544 2215 3400 
Q 2172 3256 1678 1819 
L 2944 1819 
L 2509 3084 
L 2375 3509 
L 2309 3725 
z
" transform="scale(0.015625)"/>
     </defs>
     <use xlink:href="#LiberationSans-Bold-41"/>
     <use xlink:href="#LiberationSans-Bold-64" transform="translate(72.216797 0)"/>
     <use xlink:href="#LiberationSans-Bold-76" transform="translate(133.300781 0)"/>
     <use xlink:href="#LiberationSans-Bold-65" transform="translate(188.916016 0)"/>
     <use xlink:href="#LiberationSans-Bold-72" transform="translate(244.53125 0)"/>
     <use xlink:href="#LiberationSans-Bold-73" transform="translate(283.447266 0)"/>
     <use xlink:href="#LiberationSans-Bold-61" transform="translate(339.0625 0)"/>
     <use xlink:href="#LiberationSans-Bold-72" transform="translate(394.677734 0)"/>
     <use xlink:href="#LiberationSans-Bold-69" transform="translate(433.59375 0)"/>
     <use xlink:href="#LiberationSans-Bold-61" transform="translate(461.376953 0)"/>
     <use xlink:href="#LiberationSans-Bold-6c" transform="translate(516.992188 0)"/>
    </g>
    <!-- integrator (§7.13) -->
    <g style="fill: #ee6677" transform="translate(313.396072 92.963515) scale(0.095 -0.095)">
     <defs>
      <path id="LiberationSans-Bold-28" d="M 1247 -1328 
Q 756 -622 537 81 
Q 319 784 319 1659 
Q 319 2531 537 3232 
Q 756 3934 1247 4638 
L 2125 4638 
Q 1631 3925 1407 3219 
Q 1184 2513 1184 1656 
Q 1184 803 1406 101 
Q 1628 -600 2125 -1328 
L 1247 -1328 
z
" transform="scale(0.015625)"/>
      <path id="LiberationSans-Bold-a7" d="M 1797 4459 
Q 2403 4459 2770 4239 
Q 3138 4019 3222 3603 
L 2475 3525 
Q 2434 3719 2256 3823 
Q 2078 3928 1797 3928 
Q 1447 3928 1283 3836 
Q 1119 3744 1119 3541 
Q 1119 3413 1203 3323 
Q 1288 3234 1442 3167 
Q 1597 3100 2006 3009 
Q 2531 2891 2782 2762 
Q 3034 2634 3167 2443 
Q 3300 2253 3300 1981 
Q 3300 1691 3128 1467 
Q 2956 1244 2684 1159 
Q 3250 913 3250 359 
Q 3250 -163 2858 -439 
Q 2466 -716 1738 -716 
Q 1041 -716 664 -498 
Q 288 -281 166 184 
L 906 300 
Q 969 50 1161 -67 
Q 1353 -184 1738 -184 
Q 2119 -184 2316 -82 
Q 2513 19 2513 269 
Q 2513 419 2438 512 
Q 2363 606 2202 676 
Q 2041 747 1463 884 
Q 819 1038 551 1281 
Q 284 1525 284 1875 
Q 284 2166 456 2366 
Q 628 2566 950 2675 
Q 669 2794 516 3006 
Q 363 3219 363 3481 
Q 363 3947 730 4203 
Q 1097 4459 1797 4459 
z
M 2556 1875 
Q 2556 2097 2370 2215 
Q 2184 2334 1644 2438 
Q 1041 2366 1041 1959 
Q 1041 1831 1125 1745 
Q 1209 1659 1365 1593 
Q 1522 1528 1947 1431 
Q 2556 1463 2556 1875 
z
" transform="scale(0.015625)"/>
      <path id="LiberationSans-Bold-37" d="M 3278 3706 
Q 2981 3238 2717 2797 
Q 2453 2356 2256 1911 
Q 2059 1466 1945 995 
Q 1831 525 1831 0 
L 916 0 
Q 916 550 1059 1064 
Q 1203 1578 1475 2111 
Q 1747 2644 2463 3681 
L 275 3681 
L 275 4403 
L 3278 4403 
L 3278 3706 
z
" transform="scale(0.015625)"/>
      <path id="LiberationSans-Bold-2e" d="M 434 0 
L 434 953 
L 1338 953 
L 1338 0 
L 434 0 
z
" transform="scale(0.015625)"/>
      <path id="LiberationSans-Bold-31" d="M 403 0 
L 403 653 
L 1494 653 
L 1494 3656 
L 438 2997 
L 438 3688 
L 1541 4403 
L 2372 4403 
L 2372 653 
L 3381 653 
L 3381 0 
L 403 0 
z
" transform="scale(0.015625)"/>
      <path id="LiberationSans-Bold-33" d="M 3328 1222 
Q 3328 603 2922 265 
Q 2516 -72 1766 -72 
Q 1056 -72 637 254 
Q 219 581 147 1197 
L 1041 1275 
Q 1125 641 1763 641 
Q 2078 641 2253 797 
Q 2428 953 2428 1275 
Q 2428 1569 2215 1725 
Q 2003 1881 1584 1881 
L 1278 1881 
L 1278 2591 
L 1566 2591 
Q 1944 2591 2134 2745 
Q 2325 2900 2325 3188 
Q 2325 3459 2173 3614 
Q 2022 3769 1731 3769 
Q 1459 3769 1292 3619 
Q 1125 3469 1100 3194 
L 222 3256 
Q 291 3825 694 4147 
Q 1097 4469 1747 4469 
Q 2438 4469 2827 4158 
Q 3216 3847 3216 3297 
Q 3216 2884 2973 2618 
Q 2731 2353 2275 2266 
L 2275 2253 
Q 2781 2194 3054 1920 
Q 3328 1647 3328 1222 
z
" transform="scale(0.015625)"/>
      <path id="LiberationSans-Bold-29" d="M 6 -1328 
Q 506 -597 726 101 
Q 947 800 947 1656 
Q 947 2516 722 3223 
Q 497 3931 6 4638 
L 884 4638 
Q 1378 3928 1595 3225 
Q 1813 2522 1813 1659 
Q 1813 791 1595 87 
Q 1378 -616 884 -1328 
L 6 -1328 
z
" transform="scale(0.015625)"/>
     </defs>
     <use xlink:href="#LiberationSans-Bold-69"/>
     <use xlink:href="#LiberationSans-Bold-6e" transform="translate(27.783203 0)"/>
     <use xlink:href="#LiberationSans-Bold-74" transform="translate(88.867188 0)"/>
     <use xlink:href="#LiberationSans-Bold-65" transform="translate(122.167969 0)"/>
     <use xlink:href="#LiberationSans-Bold-67" transform="translate(177.783203 0)"/>
     <use xlink:href="#LiberationSans-Bold-72" transform="translate(238.867188 0)"/>
     <use xlink:href="#LiberationSans-Bold-61" transform="translate(277.783203 0)"/>
     <use xlink:href="#LiberationSans-Bold-74" transform="translate(333.398438 0)"/>
     <use xlink:href="#LiberationSans-Bold-6f" transform="translate(366.699219 0)"/>
     <use xlink:href="#LiberationSans-Bold-72" transform="translate(427.783203 0)"/>
     <use xlink:href="#LiberationSans-Bold-20" transform="translate(466.699219 0)"/>
     <use xlink:href="#LiberationSans-Bold-28" transform="translate(494.482422 0)"/>
     <use xlink:href="#LiberationSans-Bold-a7" transform="translate(527.783203 0)"/>
     <use xlink:href="#LiberationSans-Bold-37" transform="translate(583.398438 0)"/>
     <use xlink:href="#LiberationSans-Bold-2e" transform="translate(639.013672 0)"/>
     <use xlink:href="#LiberationSans-Bold-31" transform="translate(666.796875 0)"/>
     <use xlink:href="#LiberationSans-Bold-33" transform="translate(722.412109 0)"/>
     <use xlink:href="#LiberationSans-Bold-29" transform="translate(778.027344 0)"/>
    </g>
   </g>
   <g id="legend_1">
    <g id="PathCollection_9">
     <defs>
      <path id="mf322e51cf3" d="M 0 5.91608 
C 1.568963 5.91608 3.073876 5.292724 4.1833 4.1833 
C 5.292724 3.073876 5.91608 1.568963 5.91608 0 
C 5.91608 -1.568963 5.292724 -3.073876 4.1833 -4.1833 
C 3.073876 -5.292724 1.568963 -5.91608 0 -5.91608 
C -1.568963 -5.91608 -3.073876 -5.292724 -4.1833 -4.1833 
C -5.292724 -3.073876 -5.91608 -1.568963 -5.91608 0 
C -5.91608 1.568963 -5.292724 3.073876 -4.1833 4.1833 
C -3.073876 5.292724 -1.568963 5.91608 0 5.91608 
z
" style="stroke: #00658b"/>
     </defs>
     <g>
      <use xlink:href="#mf322e51cf3" x="61.442656" y="482.934858" style="fill: #00658b; stroke: #00658b"/>
     </g>
    </g>
    <g id="text_18">
     <!-- researcher-governed -->
     <g transform="translate(78.542656 485.428608) scale(0.095 -0.095)">
      <defs>
       <path id="LiberationSans-76" d="M 1916 0 
L 1250 0 
L 22 3381 
L 622 3381 
L 1366 1181 
Q 1406 1056 1581 441 
L 1691 806 
L 1813 1175 
L 2581 3381 
L 3178 3381 
L 1916 0 
z
" transform="scale(0.015625)"/>
      </defs>
      <use xlink:href="#LiberationSans-72"/>
      <use xlink:href="#LiberationSans-65" transform="translate(33.300781 0)"/>
      <use xlink:href="#LiberationSans-73" transform="translate(88.916016 0)"/>
      <use xlink:href="#LiberationSans-65" transform="translate(138.916016 0)"/>
      <use xlink:href="#LiberationSans-61" transform="translate(194.53125 0)"/>
      <use xlink:href="#LiberationSans-72" transform="translate(250.146484 0)"/>
      <use xlink:href="#LiberationSans-63" transform="translate(283.447266 0)"/>
      <use xlink:href="#LiberationSans-68" transform="translate(333.447266 0)"/>
      <use xlink:href="#LiberationSans-65" transform="translate(389.0625 0)"/>
      <use xlink:href="#LiberationSans-72" transform="translate(444.677734 0)"/>
      <use xlink:href="#LiberationSans-2d" transform="translate(477.978516 0)"/>
      <use xlink:href="#LiberationSans-67" transform="translate(511.279297 0)"/>
      <use xlink:href="#LiberationSans-6f" transform="translate(566.894531 0)"/>
      <use xlink:href="#LiberationSans-76" transform="translate(622.509766 0)"/>
      <use xlink:href="#LiberationSans-65" transform="translate(672.509766 0)"/>
      <use xlink:href="#LiberationSans-72" transform="translate(728.125 0)"/>
      <use xlink:href="#LiberationSans-6e" transform="translate(761.425781 0)"/>
      <use xlink:href="#LiberationSans-65" transform="translate(817.041016 0)"/>
      <use xlink:href="#LiberationSans-64" transform="translate(872.65625 0)"/>
     </g>
    </g>
    <g id="PathCollection_10">
     <defs>
      <path id="m8e565387ae" d="M 0 5.91608 
C 1.568963 5.91608 3.073876 5.292724 4.1833 4.1833 
C 5.292724 3.073876 5.91608 1.568963 5.91608 0 
C 5.91608 -1.568963 5.292724 -3.073876 4.1833 -4.1833 
C 3.073876 -5.292724 1.568963 -5.91608 0 -5.91608 
C -1.568963 -5.91608 -3.073876 -5.292724 -4.1833 -4.1833 
C -5.292724 -3.073876 -5.91608 -1.568963 -5.91608 0 
C -5.91608 1.568963 -5.292724 3.073876 -4.1833 4.1833 
C -3.073876 5.292724 -1.568963 5.91608 0 5.91608 
z
" style="stroke: #ee6677"/>
     </defs>
     <g>
      <use xlink:href="#m8e565387ae" x="195.220469" y="482.934858" style="fill: #ee6677; stroke: #ee6677"/>
     </g>
    </g>
    <g id="text_19">
     <!-- adversarial variant -->
     <g transform="translate(212.320469 485.428608) scale(0.095 -0.095)">
      <use xlink:href="#LiberationSans-61"/>
      <use xlink:href="#LiberationSans-64" transform="translate(55.615234 0)"/>
      <use xlink:href="#LiberationSans-76" transform="translate(111.230469 0)"/>
      <use xlink:href="#LiberationSans-65" transform="translate(161.230469 0)"/>
      <use xlink:href="#LiberationSans-72" transform="translate(216.845703 0)"/>
      <use xlink:href="#LiberationSans-73" transform="translate(250.146484 0)"/>
      <use xlink:href="#LiberationSans-61" transform="translate(300.146484 0)"/>
      <use xlink:href="#LiberationSans-72" transform="translate(355.761719 0)"/>
      <use xlink:href="#LiberationSans-69" transform="translate(389.0625 0)"/>
      <use xlink:href="#LiberationSans-61" transform="translate(411.279297 0)"/>
      <use xlink:href="#LiberationSans-6c" transform="translate(466.894531 0)"/>
      <use xlink:href="#LiberationSans-20" transform="translate(489.111328 0)"/>
      <use xlink:href="#LiberationSans-76" transform="translate(516.894531 0)"/>
      <use xlink:href="#LiberationSans-61" transform="translate(566.894531 0)"/>
      <use xlink:href="#LiberationSans-72" transform="translate(622.509766 0)"/>
      <use xlink:href="#LiberationSans-69" transform="translate(655.810547 0)"/>
      <use xlink:href="#LiberationSans-61" transform="translate(678.027344 0)"/>
      <use xlink:href="#LiberationSans-6e" transform="translate(733.642578 0)"/>
      <use xlink:href="#LiberationSans-74" transform="translate(789.257812 0)"/>
     </g>
    </g>
   </g>
  </g>
 </g>
 <defs>
  <clipPath id="p83ff7190de">
   <rect x="43.392656" y="27.89625" width="396.6556" height="396.6556"/>
  </clipPath>
 </defs>
</svg>
